<svg xmlns="http://www.w3.org/2000/svg" xmlns:xlink="http://www.w3.org/1999/xlink" width="1366" height="150" viewBox="0 0 1366 150"><defs><style>.a{fill:#fff;stroke:#707070;}.b{fill:#253356;}.c{clip-path:url(#a);}.d{clip-path:url(#b);}.e{fill:#0052a1;opacity:0.25;mix-blend-mode:multiply;isolation:isolate;}.f{fill:url(#c);}.g,.j{fill:none;stroke:#fff;stroke-width:2px;}.g,.i{stroke-miterlimit:10;}.h{fill:url(#d);}.i{fill:#f5f5ff;stroke:#f5f5ff;stroke-width:1.3px;}.j{stroke-linecap:round;stroke-linejoin:round;}</style><clipPath id="a"><rect class="a" width="1366" height="150" transform="translate(8975 1406)"/></clipPath><clipPath id="b"><rect class="b" width="1366" height="150" transform="translate(8975 1406)"/></clipPath><linearGradient id="c" x1="0.417" y1="-0.035" x2="0.54" y2="0.651" gradientUnits="objectBoundingBox"><stop offset="0" stop-color="#d8b087"/><stop offset="1" stop-color="#ac7f50"/></linearGradient><linearGradient id="d" x1="0.497" y1="0.84" x2="0.482" y2="0.339" gradientUnits="objectBoundingBox"><stop offset="0" stop-color="#e9c6a2"/><stop offset="1" stop-color="#ac7f50"/></linearGradient></defs><g class="c" transform="translate(-8975 -1406)"><g class="d"><rect class="b" width="1366" height="535" transform="translate(8974 1406)"/></g><g transform="translate(8934.097 1362.947)"><path class="e" d="M-52.659,79.923c-.269,6.267,17.535,14.965,22.272,17.719C3.486,117.334,42.677,103.083,73.874,85.17c25.644-14.726,50.67-32.341,78.852-41.768,21.956-7.344,45-10.653,67.977-12.808,36.753-3.448,74.08-3.691,110.136-12.41,29.164-7.052,63.128-20.8,68-54.5L-45.788-58.4S-52.652,79.8-52.659,79.923Z" transform="translate(75.057 81.737)"/><path class="f" d="M-54.182,83.054c.043,6.272,18.256,14.077,23.124,16.593,34.807,17.987,73.244,1.81,103.513-17.628,24.883-15.979,49-34.815,76.684-45.629C170.7,27.966,193.556,23.518,216.4,20.225c36.536-5.266,73.807-7.361,109.385-17.857,28.778-8.491,62.019-23.9,65.209-57.8H-54.182Z" transform="translate(75.305 81.254)"/><path class="g" d="M-79.424,52.2c.042,6.272,18.256,14.077,23.123,16.592C-21.494,86.781,16.943,70.6,47.212,51.166c24.883-15.979,49-34.816,76.684-45.629,21.565-8.424,44.418-12.871,67.258-16.164,36.536-5.266,73.806-7.361,109.386-17.858,28.778-8.49,62.017-23.9,65.209-57.8H-79.424Z" transform="translate(79.424 86.288)"/></g><g transform="translate(9913.74 1398.719)"><path class="e" d="M174.539,494.724c-.268-3.613,7.883-12.213,9.818-14.86,44.459-60.8,117.721-87.467,191.65-77.921,35.6,4.6,70.135,15.372,105.9,18.9,42.73,4.213,83.814-4.834,123.8-19.354,28.869-10.482,58.055-26.03,74.2-53.6a46.528,46.528,0,0,0,4.944-11.5l10.988,148.342L152.987,524.947S174.54,494.744,174.539,494.724Z" transform="translate(-152.987 -333.328)"/><path class="h" d="M186.2,517.3c-.455-3.6,7.238-12.608,9.033-15.352,41.24-63.031,113.019-93.462,187.344-87.769,35.789,2.742,70.839,11.71,106.74,13.373,42.89,1.987,83.449-9.182,122.629-25.757,28.285-11.967,56.624-29.011,71.32-57.378a46.51,46.51,0,0,0,4.34-11.739l18.678,147.571-516.5,65.373S186.2,517.318,186.2,517.3Z" transform="translate(-158.802 -332.677)"/><path class="g" d="M221.035,545.72c-.454-3.6,7.238-12.607,9.034-15.352,41.24-63.031,113.019-93.461,187.343-87.769,35.789,2.742,70.839,11.709,106.74,13.372,42.891,1.987,83.45-9.182,122.63-25.757,28.285-11.966,56.623-29.01,71.319-57.378a46.483,46.483,0,0,0,4.34-11.74l18.678,147.572-516.5,65.372Z" transform="translate(-164.906 -337.656)"/></g><g transform="translate(10096.544 1399.072)"><circle class="i" cx="1" cy="1" r="1" transform="translate(0 28.279)"/><circle class="i" cx="1" cy="1" r="1" transform="translate(19.579 28.279)"/><circle class="i" cx="1" cy="1" r="1" transform="translate(39.158 28.279)"/><circle class="i" cx="1" cy="1" r="1" transform="translate(58.738 28.279)"/><circle class="i" cx="1" cy="1" r="1" transform="translate(78.317 28.279)"/><circle class="i" cx="1" cy="1" r="1" transform="translate(97.896 28.279)"/><circle class="i" cx="1" cy="1" r="1" transform="translate(117.476 28.279)"/><circle class="i" cx="1" cy="1" r="1" transform="translate(137.056 28.279)"/><circle class="i" cx="1" cy="1" r="1" transform="translate(156.635 28.279)"/><circle class="i" cx="1" cy="1" r="1" transform="translate(176.214 28.279)"/><circle class="i" cx="1" cy="1" r="1" transform="translate(195.793 28.279)"/><g transform="translate(0 37.42)"><circle class="i" cx="1" cy="1" r="1"/><circle class="i" cx="1" cy="1" r="1" transform="translate(19.579)"/><circle class="i" cx="1" cy="1" r="1" transform="translate(39.159)"/><circle class="i" cx="1" cy="1" r="1" transform="translate(58.738)"/><circle class="i" cx="1" cy="1" r="1" transform="translate(78.317)"/><circle class="i" cx="1" cy="1" r="1" transform="translate(97.897)"/><circle class="i" cx="1" cy="1" r="1" transform="translate(117.476)"/><circle class="i" cx="1" cy="1" r="1" transform="translate(137.055)"/><circle class="i" cx="1" cy="1" r="1" transform="translate(156.635)"/><circle class="i" cx="1" cy="1" r="1" transform="translate(176.214)"/><circle class="i" cx="1" cy="1" r="1" transform="translate(195.793)"/></g><g transform="translate(0 -10)"><circle class="i" cx="1" cy="1" r="1" transform="translate(0 56.56)"/><circle class="i" cx="1" cy="1" r="1" transform="translate(19.579 56.56)"/><circle class="i" cx="1" cy="1" r="1" transform="translate(39.158 56.56)"/><circle class="i" cx="1" cy="1" r="1" transform="translate(58.738 56.56)"/><circle class="i" cx="1" cy="1" r="1" transform="translate(78.317 56.56)"/><circle class="i" cx="1" cy="1" r="1" transform="translate(97.896 56.56)"/><circle class="i" cx="1" cy="1" r="1" transform="translate(117.476 56.56)"/><circle class="i" cx="1" cy="1" r="1" transform="translate(137.056 56.56)"/><circle class="i" cx="1" cy="1" r="1" transform="translate(156.635 56.56)"/><circle class="i" cx="1" cy="1" r="1" transform="translate(176.214 56.56)"/><circle class="i" cx="1" cy="1" r="1" transform="translate(195.793 56.56)"/></g></g><g transform="translate(10096.544 1372.072)"><circle class="i" cx="1" cy="1" r="1" transform="translate(0 28.279)"/><circle class="i" cx="1" cy="1" r="1" transform="translate(19.579 28.279)"/><circle class="i" cx="1" cy="1" r="1" transform="translate(39.158 28.279)"/><circle class="i" cx="1" cy="1" r="1" transform="translate(58.738 28.279)"/><circle class="i" cx="1" cy="1" r="1" transform="translate(78.317 28.279)"/><circle class="i" cx="1" cy="1" r="1" transform="translate(97.896 28.279)"/><circle class="i" cx="1" cy="1" r="1" transform="translate(117.476 28.279)"/><circle class="i" cx="1" cy="1" r="1" transform="translate(137.056 28.279)"/><circle class="i" cx="1" cy="1" r="1" transform="translate(156.635 28.279)"/><circle class="i" cx="1" cy="1" r="1" transform="translate(176.214 28.279)"/><circle class="i" cx="1" cy="1" r="1" transform="translate(195.793 28.279)"/><g transform="translate(0 37.42)"><circle class="i" cx="1" cy="1" r="1"/><circle class="i" cx="1" cy="1" r="1" transform="translate(19.579)"/><circle class="i" cx="1" cy="1" r="1" transform="translate(39.159)"/><circle class="i" cx="1" cy="1" r="1" transform="translate(58.738)"/><circle class="i" cx="1" cy="1" r="1" transform="translate(78.317)"/><circle class="i" cx="1" cy="1" r="1" transform="translate(97.897)"/><circle class="i" cx="1" cy="1" r="1" transform="translate(117.476)"/><circle class="i" cx="1" cy="1" r="1" transform="translate(137.055)"/><circle class="i" cx="1" cy="1" r="1" transform="translate(156.635)"/><circle class="i" cx="1" cy="1" r="1" transform="translate(176.214)"/><circle class="i" cx="1" cy="1" r="1" transform="translate(195.793)"/></g><g transform="translate(0 -10)"><circle class="i" cx="1" cy="1" r="1" transform="translate(0 56.56)"/><circle class="i" cx="1" cy="1" r="1" transform="translate(19.579 56.56)"/><circle class="i" cx="1" cy="1" r="1" transform="translate(39.158 56.56)"/><circle class="i" cx="1" cy="1" r="1" transform="translate(58.738 56.56)"/><circle class="i" cx="1" cy="1" r="1" transform="translate(78.317 56.56)"/><circle class="i" cx="1" cy="1" r="1" transform="translate(97.896 56.56)"/><circle class="i" cx="1" cy="1" r="1" transform="translate(117.476 56.56)"/><circle class="i" cx="1" cy="1" r="1" transform="translate(137.056 56.56)"/><circle class="i" cx="1" cy="1" r="1" transform="translate(156.635 56.56)"/><circle class="i" cx="1" cy="1" r="1" transform="translate(176.214 56.56)"/><circle class="i" cx="1" cy="1" r="1" transform="translate(195.793 56.56)"/></g></g><circle class="g" cx="7.303" cy="7.303" r="7.303" transform="translate(9287.581 1527.172)"/><circle class="g" cx="7.5" cy="7.5" r="7.5" transform="translate(9953 1441)"/><g transform="translate(9760.131 1517.367)"><line class="j" y2="13.288" transform="translate(6.645)"/><line class="j" x1="13.29" transform="translate(0 6.645)"/></g><path class="j" d="M366.053,445.861l-3.586,11.772,13.883-5.033Z" transform="translate(9093.069 1010.587)"/></g></svg>