<svg version="1.1" id="Layer_1" xmlns="http://www.w3.org/2000/svg" xmlns:xlink="http://www.w3.org/1999/xlink" x="0px" y="0px" width="12px" height="12px" viewBox="0 0 12 12" enable-background="new 0 0 12 12" xml:space="preserve">
    <path d="M5.297,6.703h-4.55c-0.201,0-0.368-0.066-0.503-0.2c-0.135-0.133-0.203-0.3-0.203-0.499s0.068-0.366,0.203-0.503
	c0.135-0.137,0.302-0.206,0.503-0.206h4.55v-4.55c0-0.201,0.066-0.367,0.201-0.503c0.133-0.134,0.299-0.202,0.498-0.202
	s0.366,0.067,0.501,0.202c0.137,0.136,0.206,0.302,0.206,0.503v4.55h4.55c0.201,0,0.368,0.066,0.503,0.201s0.203,0.3,0.203,0.498
	c0,0.198-0.068,0.366-0.203,0.503c-0.135,0.139-0.302,0.206-0.503,0.206h-4.55v4.55c0,0.201-0.066,0.368-0.2,0.503
	c-0.132,0.135-0.299,0.203-0.497,0.203c-0.198,0-0.366-0.068-0.503-0.203s-0.206-0.302-0.206-0.503V6.703z" />
</svg>