<svg xmlns="http://www.w3.org/2000/svg" width="24" height="24" viewBox="0 0 24 24"><defs><style>.a{fill:none;}.b{fill:#fff;}</style></defs><rect class="a" width="24" height="24"/><g transform="translate(2 2)"><path class="b" d="M8.808,0a8.808,8.808,0,1,0,8.808,8.808A8.818,8.818,0,0,0,8.808,0Zm0,15.989a7.182,7.182,0,1,1,7.182-7.182A7.19,7.19,0,0,1,8.808,15.989Z"/><g transform="translate(13.713 13.713)"><path class="b" d="M357.095,355.945l-4.661-4.661a.813.813,0,1,0-1.15,1.15l4.661,4.661a.813.813,0,0,0,1.15-1.15Z" transform="translate(-351.046 -351.046)"/></g></g></svg>