<svg xmlns="http://www.w3.org/2000/svg" width="24" height="24" viewBox="0 0 24 24"><defs><style>.a{fill:none;}</style></defs><g transform="translate(-1129 -671)"><g transform="translate(-7311.645 -3939.114)"><g transform="translate(8442.646 4619.572)"><g transform="translate(0)"><path d="M33.785,241.468H31.2a.646.646,0,0,0-.646.646v10.333a.646.646,0,0,0,.646.646h2.583a.646.646,0,0,0,.646-.646V242.114A.646.646,0,0,0,33.785,241.468Z" transform="translate(-30.556 -241.468)"/></g></g><g transform="translate(8447.813 4613.114)"><g transform="translate(0)"><path d="M164.989,99.342a2.031,2.031,0,0,0-2.058-1.712H157.9a11.15,11.15,0,0,0,.647-3.818,2.689,2.689,0,0,0-2.7-2.64h-.533a.645.645,0,0,0-.646.646c0,1.493-.581,4.189-1.678,5.286a7.154,7.154,0,0,1-2.2,1.419v9.69a15.086,15.086,0,0,0,5.327,1.042h4.225a1.964,1.964,0,0,0,1.937-2.651,1.938,1.938,0,0,0,1.292-2.583,1.938,1.938,0,0,0,.933-3.161A1.933,1.933,0,0,0,164.989,99.342Z" transform="translate(-150.794 -91.172)"/></g></g></g><rect class="a" width="24" height="24" transform="translate(1129 671)"/></g></svg>