<svg width="25" height="25" viewBox="0 0 25 25" fill="none" xmlns="http://www.w3.org/2000/svg">
<rect x="0.75" y="6.39526" width="18.5" height="17.8548" rx="1.25" stroke="white" stroke-width="1.5"/>
<path d="M13.5208 12.9034C13.5208 14.6931 12.0145 16.1856 10.1042 16.1856C8.19382 16.1856 6.6875 14.6931 6.6875 12.9034C6.6875 11.1136 8.19382 9.62109 10.1042 9.62109C12.0145 9.62109 13.5208 11.1136 13.5208 12.9034Z" stroke="white" stroke-width="1.5"/>
<path d="M4.8494 23.231C5.55344 20.7649 7.66641 19.0295 10.104 19.0295C12.5416 19.0295 14.6546 20.7649 15.3586 23.231C15.4315 23.4865 15.3653 23.7152 15.1923 23.9037C15.0085 24.1039 14.7045 24.25 14.354 24.25H5.854C5.50352 24.25 5.19948 24.1039 5.01574 23.9037C4.8427 23.7152 4.77647 23.4865 4.8494 23.231Z" stroke="white" stroke-width="1.5"/>
<path d="M22.2127 2.5463V3.28946H18.6201V2.5463C18.6201 1.55423 19.4243 0.75 20.4164 0.75C21.4085 0.75 22.2127 1.55423 22.2127 2.5463Z" stroke="white" stroke-width="1.5"/>
<rect x="16.5835" y="3.27026" width="7.66667" height="6.57892" rx="1.25" fill="black" stroke="white" stroke-width="1.5"/>
<mask id="path-6-inside-1_30310_96819" fill="white">
<ellipse cx="20.417" cy="6.32204" rx="1.01852" ry="0.950461"/>
</mask>
<ellipse cx="20.417" cy="6.32204" rx="1.01852" ry="0.950461" fill="white"/>
<path d="M20.4355 6.32204C20.4355 6.3067 20.4391 6.29129 20.4446 6.27918C20.4497 6.26801 20.4545 6.26336 20.4549 6.26301C20.4552 6.26271 20.4442 6.2725 20.417 6.2725V8.2725C21.4655 8.2725 22.4355 7.46326 22.4355 6.32204H20.4355ZM20.417 6.2725C20.3897 6.2725 20.3787 6.26271 20.379 6.26301C20.3794 6.26336 20.3842 6.26801 20.3893 6.27918C20.3948 6.29129 20.3984 6.3067 20.3984 6.32204H18.3984C18.3984 7.46326 19.3684 8.2725 20.417 8.2725V6.2725ZM20.3984 6.32204C20.3984 6.33738 20.3948 6.35279 20.3893 6.36491C20.3842 6.37608 20.3794 6.38072 20.379 6.38108C20.3787 6.38137 20.3897 6.37158 20.417 6.37158V4.37158C19.3684 4.37158 18.3984 5.18082 18.3984 6.32204H20.3984ZM20.417 6.37158C20.4442 6.37158 20.4552 6.38137 20.4549 6.38108C20.4545 6.38072 20.4497 6.37608 20.4446 6.36491C20.4391 6.35279 20.4355 6.33738 20.4355 6.32204H22.4355C22.4355 5.18082 21.4655 4.37158 20.417 4.37158V6.37158Z" fill="white" mask="url(#path-6-inside-1_30310_96819)"/>
</svg>
