<svg width="25" height="25" viewBox="0 0 25 25" fill="none" xmlns="http://www.w3.org/2000/svg">
<path d="M14.4231 24.9999C12.7707 24.9999 11.0862 24.4875 9.36966 23.4628C7.65313 22.4381 6.06125 20.9833 4.59402 19.0985C3.12678 17.2137 1.9943 15.1688 1.19658 12.9638C0.39886 10.7588 0 8.59491 0 6.47224C0 6.11933 0.091574 5.82523 0.274722 5.58996C0.45787 5.3547 0.686809 5.23706 0.961538 5.23706H3.95299C4.15242 5.23706 4.32336 5.32856 4.46581 5.51154C4.60826 5.69453 4.70798 5.92327 4.76496 6.19775L5.34036 9.6464C5.36986 9.90915 5.36681 10.1457 5.3312 10.3562C5.29558 10.5666 5.21917 10.7471 5.10194 10.8976L2.97009 13.6637C3.34046 14.4689 3.73219 15.2191 4.1453 15.9145C4.5584 16.6098 5.01424 17.2686 5.51282 17.8908C6.03989 18.5861 6.59544 19.222 7.17949 19.7984C7.76353 20.3749 8.37607 20.8826 9.01709 21.3218L11.047 18.6319C11.1895 18.4306 11.3544 18.2933 11.5417 18.2202C11.729 18.147 11.9131 18.1287 12.094 18.1653L14.6368 18.8789C14.8504 18.9521 15.0285 19.0989 15.1709 19.3193C15.3134 19.5397 15.3846 19.7863 15.3846 20.0592V23.7647C15.3846 24.1176 15.293 24.4117 15.1099 24.647C14.9267 24.8823 14.6978 24.9999 14.4231 24.9999ZM2.32906 12.1541L4.05983 9.90329L3.56838 6.88396H1.28205C1.31054 7.65252 1.4067 8.46225 1.57051 9.31315C1.73433 10.164 1.98718 11.111 2.32906 12.1541ZM10.2137 22.1178C10.7977 22.4655 11.4316 22.7491 12.1154 22.9687C12.7991 23.1883 13.4615 23.3164 14.1026 23.353V20.416L11.9017 19.8396L10.2137 22.1178Z" fill="black"/>
<path d="M7.75 13.2174V2.12341L14.2246 7.59708C15.2496 8.46363 16.7504 8.46364 17.7754 7.59708L24.25 2.12341V13.2174C24.25 13.9077 23.6904 14.4674 23 14.4674H9C8.30964 14.4674 7.75 13.9077 7.75 13.2174ZM23.5512 0.75L16.807 6.45158C16.3411 6.84547 15.6589 6.84547 15.193 6.45158L8.44883 0.75H23.5512Z" stroke="black" stroke-width="1.5"/>
</svg>
