<svg width="25" height="25" viewBox="0 0 25 25" fill="none" xmlns="http://www.w3.org/2000/svg">
<mask id="path-1-inside-1_30310_96831" fill="white">
<path d="M0 2C0 0.895429 0.895431 0 2 0H22.9998C24.1044 0 24.9998 0.895431 24.9998 2V22.5524H0V2Z"/>
</mask>
<path d="M-1.5 2C-1.5 0.0670034 0.0670034 -1.5 2 -1.5H22.9998C24.9328 -1.5 26.4998 0.0670034 26.4998 2H23.4998C23.4998 1.72386 23.276 1.5 22.9998 1.5H2C1.72386 1.5 1.5 1.72386 1.5 2H-1.5ZM26.4998 23.5524H-1.5L1.5 21.5524H23.4998L26.4998 23.5524ZM-1.5 23.5524V2C-1.5 0.0670034 0.0670034 -1.5 2 -1.5V1.5C1.72386 1.5 1.5 1.72386 1.5 2V21.5524L-1.5 23.5524ZM22.9998 -1.5C24.9328 -1.5 26.4998 0.0670034 26.4998 2V23.5524L23.4998 21.5524V2C23.4998 1.72386 23.276 1.5 22.9998 1.5V-1.5Z" fill="black" mask="url(#path-1-inside-1_30310_96831)"/>
<rect x="4.62988" y="5.84692" width="15.7406" height="1.67055" rx="0.835275" fill="black"/>
<rect x="4.62988" y="10.0232" width="15.7406" height="1.67055" rx="0.835275" fill="black"/>
<rect x="4.62988" y="14.1995" width="15.7406" height="1.67055" rx="0.835275" fill="black"/>
<path d="M0 22.5525H2.7132H5.4264L3.08446 24.6652C2.87942 24.8501 2.54698 24.8501 2.34194 24.6652L0 22.5525Z" fill="black"/>
<path d="M4.89404 22.5525H7.60724H10.3204L7.9785 24.6652C7.77346 24.8501 7.44103 24.8501 7.23599 24.6652L4.89404 22.5525Z" fill="black"/>
<path d="M10.0103 22.5525H12.7235H15.4367L13.0947 24.6652C12.8897 24.8501 12.5572 24.8501 12.3522 24.6652L10.0103 22.5525Z" fill="black"/>
<path d="M14.458 22.5525H17.1712H19.8844L17.5425 24.6652C17.3374 24.8501 17.005 24.8501 16.8 24.6652L14.458 22.5525Z" fill="black"/>
<path d="M19.5737 22.5525H22.2869H25.0001L22.6582 24.6652C22.4531 24.8501 22.1207 24.8501 21.9157 24.6652L19.5737 22.5525Z" fill="black"/>
</svg>
