<svg xmlns="http://www.w3.org/2000/svg" width="25" height="25" viewBox="0 0 100 100" version="1.1"><path d="M 53.795 9.813 C 41.911 16.910, 39.996 18.591, 40.015 21.905 C 40.036 25.470, 41.169 26.951, 44.569 27.860 C 46.232 28.305, 48.227 29.937, 49.252 31.691 L 51.037 34.747 29.030 46.939 C 16.926 53.644, 6.342 60.101, 5.511 61.287 C 3.248 64.518, 3.612 69.287, 6.314 71.826 C 10.711 75.956, 13.256 74.971, 35.121 60.678 C 46.329 53.350, 56.056 47.028, 56.735 46.628 C 58.454 45.615, 61.992 51.700, 61.996 55.679 C 62.001 59.547, 64.245 62, 67.778 62 C 70.424 62, 87.543 52.493, 91.750 48.687 C 95.923 44.912, 93.839 38, 88.529 38 C 86.635 38, 84.846 35.808, 78.942 26.250 C 73.051 16.712, 71.720 13.814, 71.876 10.856 C 72.105 6.525, 70.001 3.996, 66.179 4.008 C 64.705 4.013, 59.133 6.625, 53.795 9.813 M 54.770 14.763 C 46.065 19.896, 42.826 23, 46.174 23 C 48.262 23, 66.964 11.541, 66.982 10.250 C 67.014 8.050, 64.717 8.899, 54.770 14.763 M 60 21.108 C 56.425 23.357, 53.132 25.543, 52.683 25.966 C 51.774 26.820, 64.898 49, 66.312 49 C 67.765 49, 80.982 40.576, 80.991 39.644 C 81.004 38.356, 67.978 16.999, 67.186 17.010 C 66.809 17.015, 63.575 18.859, 60 21.108 M 30.763 51.361 C 18.807 58.037, 8.809 64.063, 8.544 64.750 C 7.856 66.537, 8.891 68.744, 10.751 69.458 C 11.792 69.857, 19.777 65.129, 33.701 55.866 C 52.880 43.109, 56.510 40.084, 53.438 39.423 C 52.922 39.312, 42.718 44.684, 30.763 51.361 M 76.770 48.763 C 67.921 53.981, 64.283 57.635, 68.750 56.820 C 71.729 56.276, 88.951 45.573, 88.976 44.250 C 89.018 42.048, 86.715 42.900, 76.770 48.763 M 49.571 85.571 C 48.616 86.527, 48 88.879, 48 91.571 L 48 96 72 96 L 96 96 96 91.571 C 96 84.063, 95.799 84, 72 84 C 54.372 84, 50.900 84.243, 49.571 85.571 M 53.200 89.200 C 52.540 89.860, 52 90.760, 52 91.200 C 52 91.640, 61 92, 72 92 C 83 92, 92 91.640, 92 91.200 C 92 90.760, 91.460 89.860, 90.800 89.200 C 89.112 87.512, 54.888 87.512, 53.200 89.200" stroke="none" fill="#fffcfc" fill-rule="evenodd"/><path d="" stroke="none" fill="#fcfcfc" fill-rule="evenodd"/></svg>
