<svg xmlns="http://www.w3.org/2000/svg" width="25" height="25" viewBox="0 0 100 100" version="1.1"><path d="M 45.571 5.571 C 44.707 6.436, 44 8.236, 44 9.571 C 44 12.513, 43.936 12.518, 38.893 9.945 C 35.458 8.193, 33.368 7.936, 24.683 8.195 C 14.991 8.485, 14.485 8.608, 14.180 10.750 C 13.940 12.441, 14.359 13, 15.865 13 C 17.678 13, 17.243 14.504, 11.311 28.750 C 7.704 37.413, 4.529 45.521, 4.256 46.769 C 3.946 48.185, 4.711 50.476, 6.291 52.863 C 12.990 62.986, 28.826 62.165, 34.627 51.394 C 36.721 47.506, 37.065 48.751, 27.699 26.372 L 22.205 13.244 26.483 12.657 C 31.421 11.981, 34.975 12.836, 40.250 15.970 L 44 18.198 44 52.099 L 44 86 36.174 86 C 29.287 86, 28.088 86.278, 26.174 88.314 C 24.978 89.587, 24 91.837, 24 93.314 L 24 96 50 96 L 76 96 76 93.174 C 76 91.514, 75.046 89.452, 73.686 88.174 C 71.724 86.331, 70.200 86, 63.686 86 L 56 86 56 53.500 L 56 21 59.250 20.820 C 65.339 20.484, 69.326 21.125, 73.097 23.050 C 75.169 24.107, 77.116 25.379, 77.424 25.877 C 77.732 26.375, 74.839 34.369, 70.996 43.641 C 67.152 52.914, 64.006 61.183, 64.004 62.018 C 63.997 64.728, 68.790 70.672, 72.340 72.357 C 76.156 74.168, 82.548 74.503, 86.271 73.087 C 89.560 71.836, 94.872 66.359, 95.597 63.469 C 96.007 61.835, 94.135 56.075, 89.597 45.012 C 85.969 36.167, 83 28.721, 83 28.465 C 83 28.209, 83.675 28, 84.500 28 C 85.325 28, 86 27.210, 86 26.244 C 86 25.054, 83.340 23.120, 77.748 20.244 C 70.442 16.487, 68.721 16, 62.748 16 L 56 16 56 11.571 C 56 6.382, 54.113 4, 50 4 C 48.429 4, 46.436 4.707, 45.571 5.571 M 48.688 9.646 C 48.309 10.024, 48 27.358, 48 48.167 C 48 85.408, 48.031 86, 50.012 86 C 51.997 86, 52.020 85.495, 51.762 47.833 C 51.512 11.358, 51.174 7.160, 48.688 9.646 M 15 32.256 C 12.525 38.440, 10.355 44.063, 10.177 44.750 C 9.934 45.689, 12.362 46, 19.927 46 C 25.467 46, 30 45.664, 30 45.254 C 30 43.982, 20.530 21.036, 20 21.024 C 19.725 21.018, 17.475 26.072, 15 32.256 M 79.228 36.603 C 77.790 39.333, 70 58.507, 70 59.318 C 70 59.693, 74.500 60, 80 60 C 85.500 60, 89.994 59.663, 89.986 59.250 C 89.978 58.837, 87.779 53.146, 85.100 46.603 C 81.043 36.695, 80.061 35.023, 79.228 36.603 M 11.495 51.994 C 13.994 54.755, 19.243 56.048, 23.350 54.914 C 25.193 54.405, 27.512 53.091, 28.505 51.994 C 30.297 50.014, 30.237 50, 20 50 C 9.763 50, 9.703 50.014, 11.495 51.994 M 71.495 65.994 C 72.488 67.091, 74.807 68.405, 76.650 68.914 C 80.757 70.048, 86.006 68.755, 88.505 65.994 C 90.297 64.014, 90.237 64, 80 64 C 69.763 64, 69.703 64.014, 71.495 65.994 M 30.500 91 C 30.096 91.654, 36.843 92, 50 92 C 63.157 92, 69.904 91.654, 69.500 91 C 68.667 89.652, 31.333 89.652, 30.500 91" stroke="none" fill="#fffcfc" fill-rule="evenodd"/><path d="" stroke="none" fill="#fcfcfc" fill-rule="evenodd"/></svg>