<svg width="25" height="25" viewBox="0 0 25 25" fill="none" xmlns="http://www.w3.org/2000/svg">
<mask id="path-1-inside-1_30310_96788" fill="white">
<path fill-rule="evenodd" clip-rule="evenodd" d="M16.4922 2.16858C16.4922 0.970907 15.5213 0 14.3236 0H10.6743C9.47665 0 8.50574 0.970906 8.50574 2.16858V3.09775C8.50574 3.69361 8.14191 4.22517 7.62099 4.51447V4.51447C7.12868 4.78789 6.53275 4.82364 6.03932 4.55224L4.95364 3.95507C3.93524 3.3949 2.65628 3.73725 2.0539 4.73126L0.31048 7.60811C-0.328739 8.6629 0.0392694 10.0377 1.11994 10.6321L2.04027 11.1384C2.52953 11.4075 2.80009 11.9437 2.80009 12.5021V12.5021V12.5021C2.80009 13.0557 2.53154 13.5872 2.04644 13.854L1.12023 14.3635C0.0395585 14.9579 -0.328452 16.3327 0.310768 17.3875L2.05419 20.2643C2.65657 21.2584 3.93552 21.6007 4.95393 21.0405L6.02866 20.4494C6.52439 20.1767 7.12314 20.2129 7.61764 20.4878V20.4878C8.14046 20.7784 8.50574 21.312 8.50574 21.9102V22.8314C8.50574 24.0291 9.47664 25 10.6743 25H14.3236C15.5213 25 16.4922 24.0291 16.4922 22.8314V21.9083C16.4922 21.3107 16.857 20.7776 17.3793 20.4872V20.4872C17.8734 20.2125 18.4717 20.1763 18.967 20.4488L20.0419 21.04C21.0603 21.6002 22.3393 21.2578 22.9417 20.2638L24.6851 17.387C25.3243 16.3322 24.9563 14.9574 23.8756 14.3629L22.9491 13.8533C22.4642 13.5866 22.1958 13.0554 22.1958 12.5021V12.5021V12.5021C22.1958 11.944 22.4662 11.4081 22.9552 11.1391L23.8759 10.6327C24.9566 10.0382 25.3246 8.66342 24.6854 7.60863L22.942 4.73178C22.3396 3.73777 21.0606 3.39542 20.0422 3.95558L18.9564 4.55286C18.4633 4.82405 17.8678 4.78832 17.3759 4.51505V4.51505C16.8556 4.22599 16.4922 3.69493 16.4922 3.09969V2.16858Z"/>
</mask>
<path d="M24.6854 7.60863L25.9682 6.83122L24.6854 7.60863ZM22.9552 11.1391L22.2323 9.82479L22.9552 11.1391ZM22.9491 13.8533L22.2261 15.1676L22.9491 13.8533ZM20.0419 21.04L20.7649 19.7257L20.0419 21.04ZM22.9417 20.2638L24.2245 21.0412L22.9417 20.2638ZM18.967 20.4488L18.2441 21.7631L18.967 20.4488ZM1.12023 14.3635L0.397312 13.0492L1.12023 14.3635ZM2.04644 13.854L2.76936 15.1683L2.04644 13.854ZM2.04027 11.1384L1.31736 12.4527L2.04027 11.1384ZM1.11994 10.6321L1.84286 9.31784L1.11994 10.6321ZM2.0539 4.73126L0.771075 3.95385L2.0539 4.73126ZM18.9564 4.55286L18.2334 3.23856L18.9564 4.55286ZM6.02866 20.4494L5.30574 19.1351L6.02866 20.4494ZM22.942 4.73178L21.6592 5.50919L22.942 4.73178ZM10.6743 1.5H14.3236V-1.5H10.6743V1.5ZM10.0057 3.09775V2.16858H7.00574V3.09775H10.0057ZM4.23072 5.26937L5.3164 5.86654L6.76224 3.23793L5.67656 2.64076L4.23072 5.26937ZM1.5933 8.38552L3.33672 5.50867L0.771075 3.95385L-0.972342 6.8307L1.5933 8.38552ZM2.76319 9.82406L1.84286 9.31784L0.397023 11.9464L1.31736 12.4527L2.76319 9.82406ZM1.84315 15.6778L2.76936 15.1683L1.32352 12.5397L0.397312 13.0492L1.84315 15.6778ZM3.33701 19.4869L1.59359 16.6101L-0.972055 18.1649L0.771363 21.0418L3.33701 19.4869ZM5.30574 19.1351L4.23101 19.7262L5.67685 22.3548L6.75158 21.7637L5.30574 19.1351ZM10.0057 22.8314V21.9102H7.00574V22.8314H10.0057ZM14.3236 23.5H10.6743V26.5H14.3236V23.5ZM14.9922 21.9083V22.8314H17.9922V21.9083H14.9922ZM20.7649 19.7257L19.6899 19.1345L18.2441 21.7631L19.319 22.3543L20.7649 19.7257ZM23.4023 16.6096L21.6589 19.4864L24.2245 21.0412L25.9679 18.1644L23.4023 16.6096ZM22.2261 15.1676L23.1527 15.6772L24.5986 13.0486L23.672 12.539L22.2261 15.1676ZM23.153 9.31836L22.2323 9.82479L23.6781 12.4534L24.5988 11.947L23.153 9.31836ZM21.6592 5.50919L23.4026 8.38604L25.9682 6.83122L24.2248 3.95437L21.6592 5.50919ZM19.6793 5.86716L20.7652 5.26989L19.3193 2.64128L18.2334 3.23856L19.6793 5.86716ZM14.9922 2.16858V3.09969H17.9922V2.16858H14.9922ZM18.1044 3.2038C18.0523 3.17489 18.0186 3.13891 18.0019 3.11296C17.9872 3.09004 17.9922 3.08632 17.9922 3.09969H14.9922C14.9922 4.32493 15.7304 5.31684 16.6475 5.8263L18.1044 3.2038ZM24.5988 11.947C26.427 10.9414 27.0496 8.61561 25.9682 6.83122L23.4026 8.38604C23.5996 8.71124 23.4862 9.1351 23.153 9.31836L24.5988 11.947ZM23.6958 12.5021C23.6958 12.4833 23.6981 12.4666 23.7015 12.4528C23.7049 12.4391 23.7088 12.4307 23.7107 12.4273C23.7124 12.424 23.7115 12.4267 23.7056 12.4328C23.6994 12.4392 23.6899 12.4469 23.6781 12.4534L22.2323 9.82479C21.191 10.3975 20.6958 11.4856 20.6958 12.5021H23.6958ZM23.672 12.539C23.6847 12.546 23.695 12.5543 23.7019 12.5615C23.7086 12.5683 23.7101 12.5719 23.7089 12.5696C23.7076 12.5672 23.7042 12.56 23.701 12.5475C23.6979 12.535 23.6958 12.5195 23.6958 12.5021H20.6958C20.6958 13.5146 21.1896 14.5975 22.2261 15.1676L23.672 12.539ZM25.9679 18.1644C27.0493 16.38 26.4267 14.0542 24.5986 13.0486L23.1527 15.6772C23.4859 15.8605 23.5994 16.2844 23.4023 16.6096L25.9679 18.1644ZM19.319 22.3543C21.0419 23.3019 23.2055 22.7228 24.2245 21.0412L21.6589 19.4864C21.4731 19.7929 21.0788 19.8984 20.7649 19.7257L19.319 22.3543ZM18.1082 21.7982C18.1571 21.771 18.199 21.7628 18.2239 21.7619C18.2457 21.7612 18.2488 21.7657 18.2441 21.7631L19.6899 19.1345C18.6804 18.5792 17.5302 18.687 16.6503 19.1763L18.1082 21.7982ZM17.9922 21.9083C17.9922 21.9205 17.9876 21.9157 18.0029 21.8917C18.0202 21.8647 18.055 21.8278 18.1082 21.7982L16.6503 19.1763C15.7319 19.6869 14.9922 20.6806 14.9922 21.9083H17.9922ZM14.3236 26.5C16.3497 26.5 17.9922 24.8575 17.9922 22.8314H14.9922C14.9922 23.2007 14.6929 23.5 14.3236 23.5V26.5ZM7.00574 22.8314C7.00574 24.8575 8.64822 26.5 10.6743 26.5V23.5C10.3051 23.5 10.0057 23.2007 10.0057 22.8314H7.00574ZM6.88886 21.7989C6.94238 21.8286 6.97735 21.8657 6.99479 21.893C7.0103 21.9172 7.00574 21.9222 7.00574 21.9102H10.0057C10.0057 20.6818 9.2654 19.6876 8.34643 19.1768L6.88886 21.7989ZM0.771363 21.0418C1.79042 22.7233 3.95402 23.3025 5.67685 22.3548L4.23101 19.7262C3.91703 19.8989 3.52273 19.7934 3.33701 19.4869L0.771363 21.0418ZM0.397312 13.0492C-1.43086 14.0547 -2.05342 16.3805 -0.972055 18.1649L1.59359 16.6101C1.39652 16.2849 1.50997 15.861 1.84315 15.6778L0.397312 13.0492ZM1.30009 12.5021C1.30009 12.5196 1.29792 12.5351 1.2948 12.5477C1.29167 12.5603 1.28817 12.5676 1.28683 12.5701C1.28559 12.5724 1.28713 12.5688 1.2937 12.5621C1.30065 12.5549 1.31086 12.5467 1.32352 12.5397L2.76936 15.1683C3.80616 14.598 4.30009 13.5148 4.30009 12.5021H1.30009ZM1.31736 12.4527C1.30561 12.4462 1.29622 12.4386 1.29001 12.4322C1.28417 12.4262 1.28329 12.4235 1.28508 12.4268C1.28697 12.4303 1.29091 12.4388 1.29434 12.4526C1.29777 12.4664 1.30009 12.4832 1.30009 12.5021H4.30009C4.30009 11.4854 3.80476 10.397 2.76319 9.82406L1.31736 12.4527ZM-0.972342 6.8307C-2.05371 8.61509 -1.43115 10.9409 0.397023 11.9464L1.84286 9.31784C1.50969 9.13458 1.39623 8.71072 1.5933 8.38552L-0.972342 6.8307ZM5.67656 2.64076C3.95373 1.69314 1.79013 2.27228 0.771075 3.95385L3.33672 5.50867C3.52244 5.20221 3.91674 5.09667 4.23072 5.26937L5.67656 2.64076ZM6.89272 3.20313C6.84481 3.22974 6.80389 3.23771 6.77996 3.23851C6.75911 3.23922 6.75678 3.23493 6.76224 3.23793L5.3164 5.86654C6.32353 6.4205 7.47107 6.31354 8.34927 5.82581L6.89272 3.20313ZM7.00574 3.09775C7.00574 3.08462 7.01063 3.08857 6.99579 3.11172C6.97902 3.13789 6.94504 3.17407 6.89272 3.20313L8.34927 5.82581C9.26692 5.31618 10.0057 4.32376 10.0057 3.09775H7.00574ZM18.2334 3.23856C18.2391 3.23545 18.237 3.23968 18.2164 3.23898C18.1927 3.23818 18.152 3.23028 18.1044 3.2038L16.6475 5.8263C17.5254 6.31398 18.6725 6.42092 19.6793 5.86716L18.2334 3.23856ZM14.3236 1.5C14.6929 1.5 14.9922 1.79933 14.9922 2.16858H17.9922C17.9922 0.14248 16.3497 -1.5 14.3236 -1.5V1.5ZM6.75158 21.7637C6.74706 21.7662 6.75045 21.7616 6.77248 21.7624C6.79759 21.7633 6.83977 21.7716 6.88886 21.7989L8.34643 19.1768C7.46627 18.6875 6.31566 18.5796 5.30574 19.1351L6.75158 21.7637ZM24.2248 3.95437C23.2057 2.2728 21.0421 1.69366 19.3193 2.64128L20.7652 5.26989C21.0791 5.09719 21.4734 5.20273 21.6592 5.50919L24.2248 3.95437ZM10.6743 -1.5C8.64822 -1.5 7.00574 0.142478 7.00574 2.16858H10.0057C10.0057 1.79933 10.3051 1.5 10.6743 1.5V-1.5Z" fill="black" mask="url(#path-1-inside-1_30310_96788)"/>
<path d="M15.9776 12.4985C15.9776 14.3834 14.4446 15.9151 12.5491 15.9151C10.6536 15.9151 9.12061 14.3834 9.12061 12.4985C9.12061 10.6135 10.6536 9.08179 12.5491 9.08179C14.4446 9.08179 15.9776 10.6135 15.9776 12.4985Z" stroke="black" stroke-width="1.5"/>
</svg>
