<svg xmlns="http://www.w3.org/2000/svg" width="32" height="32" viewBox="0 0 32 32">
  <g id="ride-to-work-active" transform="translate(0 -35.885)">
    <g id="Group_1156" data-name="Group 1156" transform="translate(0 37.884)">
      <g id="Group_1155" data-name="Group 1155" transform="translate(0 0)">
        <path id="Path_659" data-name="Path 659" d="M290.721,42.774A2.721,2.721,0,1,0,288,40.054,2.729,2.729,0,0,0,290.721,42.774Z" transform="translate(-270.073 -37.333)" fill="#fff"/>
        <path id="Path_660" data-name="Path 660" d="M6.8,261.333a6.8,6.8,0,1,0,6.8,6.8A6.821,6.821,0,0,0,6.8,261.333Zm0,11.562a4.761,4.761,0,1,1,4.761-4.761A4.732,4.732,0,0,1,6.8,272.9Z" transform="translate(0 -247.605)" fill="#fff"/>
        <path id="Path_661" data-name="Path 661" d="M170.581,119.858v-2.641a6.979,6.979,0,0,1-4.965-1.915l-2.653-2.509a2.6,2.6,0,0,0-3.741,0l-3.741,3.632a2.612,2.612,0,0,0-.816,1.849,2.9,2.9,0,0,0,.816,1.915l4.285,3.7v6.6h2.721v-8.254l-2.993-2.905,3.2-3.169,1.02.99A9.465,9.465,0,0,0,170.581,119.858Z" transform="translate(-145.185 -107.239)" fill="#fff"/>
        <path id="Path_662" data-name="Path 662" d="M305.467,261.333a6.8,6.8,0,1,0,6.8,6.8A6.821,6.821,0,0,0,305.467,261.333Zm0,11.562a4.761,4.761,0,1,1,4.761-4.761A4.732,4.732,0,0,1,305.467,272.9Z" transform="translate(-280.269 -247.605)" fill="#fff"/>
      </g>
    </g>
    <rect id="Rectangle_904" data-name="Rectangle 904" width="32" height="32" transform="translate(0 35.885)" fill="none"/>
  </g>
</svg>
