<svg width="27" height="27" viewBox="0 0 27 27" fill="none" xmlns="http://www.w3.org/2000/svg">
<path d="M3.9661 12.6013V24C3.9661 25.1046 4.86153 26 5.9661 26H20.6102C21.7147 26 22.6102 25.1046 22.6102 24V14.2353M22.6102 14.2353L25.1273 11.3233C25.6557 10.712 25.7644 9.84289 25.4028 9.12034L21.8919 2.10493C21.553 1.42772 20.8607 1 20.1034 1H6.52464C5.7406 1 5.02886 1.45813 4.70418 2.17178L1.48039 9.25781C1.18331 9.91081 1.25873 10.6729 1.67804 11.255L1.91079 11.5781C2.57138 12.4952 3.86007 12.6831 4.75502 11.9929L5.43455 11.4688C6.27487 10.8207 7.47506 10.9417 8.16904 11.7446L8.48321 12.108C9.24607 12.9906 10.5992 13.0356 11.4191 12.2057L11.7674 11.8531C12.5872 11.0233 13.9404 11.0683 14.7032 11.9508L14.8391 12.108C15.602 12.9906 16.9552 13.0356 17.775 12.2057L18.0201 11.9576C18.8766 11.0906 20.3028 11.1847 21.038 12.1567L22.6102 14.2353Z" stroke="white" stroke-width="1.5"/>
<path d="M7.87584 3.84082L6.89355 8.38625" stroke="white" stroke-width="1.5" stroke-linecap="round"/>
<path d="M18.6808 3.84082L19.6631 8.38625" stroke="white" stroke-width="1.5" stroke-linecap="round"/>
<path d="M13.7384 3.84102L13.7746 8.52616" stroke="white" stroke-width="1.5" stroke-linecap="round"/>
<path d="M14.1356 20.157V24.0001C14.1356 25.1047 15.031 26.0001 16.1356 26.0001H17.2204C18.3249 26.0001 19.2204 25.1047 19.2204 24.0001V20.157C19.2204 19.0524 18.3249 18.157 17.2204 18.157H16.1356C15.031 18.157 14.1356 19.0524 14.1356 20.157Z" stroke="white" stroke-width="1.5"/>
<path d="M11.1695 20.0638V20.6619C11.1695 21.715 10.3158 22.5687 9.26274 22.5687C8.20965 22.5687 7.35596 21.715 7.35596 20.6619V20.0638C7.35596 19.0107 8.20965 18.157 9.26274 18.157C10.3158 18.157 11.1695 19.0107 11.1695 20.0638Z" stroke="white" stroke-width="1.5"/>
</svg>
