<svg width="27" height="26" viewBox="0 0 27 26" fill="none" xmlns="http://www.w3.org/2000/svg">
<path fill-rule="evenodd" clip-rule="evenodd" d="M4.99148 2.23257C5.2283 1.92809 5.59243 1.75 5.97817 1.75H21.0218C21.4076 1.75 21.7717 1.92809 22.0085 2.23257L23.9665 4.75H3.03348L4.99148 2.23257ZM2.25 6.25V23C2.25 23.6904 2.80964 24.25 3.5 24.25H23.5C24.1904 24.25 24.75 23.6904 24.75 23V17.5C24.75 17.3619 24.6381 17.25 24.5 17.25H18.8107L21.5 19.9393C21.7929 20.2322 21.7929 20.7071 21.5 21C21.2071 21.2929 20.7322 21.2929 20.4393 21L15.9393 16.5L20.4393 12C20.7322 11.7071 21.2071 11.7071 21.5 12C21.7929 12.2929 21.7929 12.7678 21.5 13.0607L18.8107 15.75H24.5C25.4665 15.75 26.25 16.5335 26.25 17.5V23C26.25 24.5188 25.0188 25.75 23.5 25.75H3.5C1.98122 25.75 0.75 24.5188 0.75 23V6.18622C0.75 5.57468 0.953836 4.98059 1.32928 4.49788L3.80745 1.31166C4.32845 0.641799 5.12954 0.25 5.97817 0.25H21.0218C21.8705 0.25 22.6715 0.641799 23.1926 1.31166L25.6707 4.49788C26.0462 4.98059 26.25 5.57468 26.25 6.18622V14C26.25 14.4142 25.9142 14.75 25.5 14.75C25.0858 14.75 24.75 14.4142 24.75 14V6.25H2.25Z" fill="white"/>
</svg>
