<svg width="27" height="25" viewBox="0 0 27 25" fill="none" xmlns="http://www.w3.org/2000/svg">
<path d="M3.9661 11.7092V21.5C3.9661 22.6046 4.86153 23.5 5.9661 23.5H20.6102C21.7147 23.5 22.6102 22.6046 22.6102 21.5V13.1471M22.6102 13.1471L24.9417 10.7735C25.568 10.1359 25.6952 9.16017 25.2534 8.38328L21.9141 2.51132C21.5586 1.88614 20.8948 1.5 20.1756 1.5H6.45478C5.70695 1.5 5.0216 1.9172 4.67816 2.58151L1.60381 8.52815C1.23732 9.23704 1.32732 10.096 1.8328 10.7135L1.96061 10.8696C2.6163 11.6706 3.77485 11.8389 4.63137 11.2576L5.55155 10.6331C6.35112 10.0905 7.42433 10.1971 8.10149 10.8865L8.56351 11.3568C9.31099 12.1178 10.5241 12.1582 11.3206 11.4487L11.8658 10.9631C12.6623 10.2535 13.8754 10.294 14.6229 11.0549L14.9194 11.3568C15.6669 12.1178 16.8801 12.1582 17.6766 11.4487L18.124 11.0502C18.9591 10.3062 20.242 10.3918 20.971 11.2399L22.6102 13.1471Z" stroke="white" stroke-width="1.5"/>
<path d="M7.87584 4L6.89355 7.99998" stroke="white" stroke-width="1.5" stroke-linecap="round"/>
<path d="M18.6808 4L19.6631 7.99998" stroke="white" stroke-width="1.5" stroke-linecap="round"/>
<path d="M13.7384 4.00003L13.7746 8.12295" stroke="white" stroke-width="1.5" stroke-linecap="round"/>
<path d="M14.1356 18.5981V21.5001C14.1356 22.6046 15.031 23.5001 16.1356 23.5001H17.2204C18.3249 23.5001 19.2204 22.6046 19.2204 21.5001V18.5981C19.2204 17.4936 18.3249 16.5981 17.2204 16.5981H16.1356C15.031 16.5981 14.1356 17.4936 14.1356 18.5981Z" stroke="white" stroke-width="1.5"/>
<path d="M11.1695 18.5049V18.5737C11.1695 19.6268 10.3158 20.4805 9.26274 20.4805C8.20965 20.4805 7.35596 19.6268 7.35596 18.5737V18.5049C7.35596 17.4518 8.20965 16.5981 9.26274 16.5981C10.3158 16.5981 11.1695 17.4518 11.1695 18.5049Z" stroke="white" stroke-width="1.5"/>
</svg>
