<svg width="25" height="20" viewBox="0 0 25 20" fill="none" xmlns="http://www.w3.org/2000/svg">
<path d="M2.05741 20C1.46827 20 0.978076 19.7828 0.586846 19.3484C0.195615 18.914 0 18.3696 0 17.7153V2.27137C0 1.61734 0.195615 1.07527 0.586846 0.645161C0.978076 0.215054 1.46827 0 2.05741 0H22.9426C23.5317 0 24.0219 0.217203 24.4132 0.651612C24.8044 1.08602 25 1.63038 25 2.28468V17.7286C25 18.3827 24.8044 18.9247 24.4132 19.3548C24.0219 19.7849 23.5317 20 22.9426 20H2.05741ZM13.6127 9.76394C12.9394 10.2147 12.0606 10.2147 11.3873 9.76394L1.16279 2.91855V17.7169C1.16279 18.0065 1.24661 18.2444 1.41424 18.4306C1.58212 18.6167 1.79651 18.7097 2.05741 18.7097H22.9426C23.2035 18.7097 23.4179 18.6167 23.5858 18.4306C23.7534 18.2444 23.8372 18.0065 23.8372 17.7169V2.91855L13.6127 9.76394ZM11.3951 7.77573C12.0648 8.21963 12.9352 8.21963 13.6049 7.77573L23.3899 1.29032H1.6101L11.3951 7.77573ZM1.16279 2.91855V1.29032V17.7169C1.16279 18.0065 1.24661 18.2444 1.41424 18.4306C1.58212 18.6167 1.79651 18.7097 2.05741 18.7097H1.16279V2.91855Z" fill="#F8F8F8"/>
</svg>
