<svg width="26" height="26" viewBox="0 0 26 26" fill="none" xmlns="http://www.w3.org/2000/svg">
<path d="M20.2499 21.3646H15.5127M21.4195 21.3646V13.5537H13.9899C13.0368 13.5537 12.2642 14.3264 12.2642 15.2795V20.0337C12.2642 20.7688 12.86 21.3646 13.5951 21.3646V21.3646" stroke="black" stroke-width="1.5"/>
<path d="M16.034 22.7138C16.034 23.6612 15.3569 24.2956 14.6784 24.2956C13.9998 24.2956 13.3228 23.6612 13.3228 22.7138C13.3228 21.7664 13.9998 21.1321 14.6784 21.1321C15.3569 21.1321 16.034 21.7664 16.034 22.7138Z" stroke="black" stroke-width="1.5"/>
<path d="M22.385 22.7138C22.385 23.6612 21.708 24.2956 21.0294 24.2956C20.3509 24.2956 19.6738 23.6612 19.6738 22.7138C19.6738 21.7664 20.3509 21.1321 21.0294 21.1321C21.708 21.1321 22.385 21.7664 22.385 22.7138Z" stroke="black" stroke-width="1.5"/>
<path d="M21.1982 16.5825H24.1372C24.6138 16.5825 25.0001 16.9688 25.0001 17.4454V20.502C25.0001 20.9786 24.6138 21.3649 24.1372 21.3649H22.0247" stroke="black" stroke-width="1.5"/>
<path fill-rule="evenodd" clip-rule="evenodd" d="M1.5 22.9005V8.89981C1.5 8.7489 1.56816 8.60607 1.68546 8.51114L10.153 1.65869C10.3364 1.51025 10.5987 1.51025 10.7821 1.65869L19.2497 8.51114C19.367 8.60607 19.4351 8.7489 19.4351 8.89981V11.5177H20.9351V8.89981C20.9351 8.29618 20.6625 7.72485 20.1933 7.34512L11.7257 0.492672C10.992 -0.101074 9.9431 -0.101072 9.20941 0.492673L0.741852 7.34512C0.272625 7.72485 0 8.29618 0 8.89981V22.9005C0 24.0051 0.895429 24.9005 2 24.9005H6.32037C7.42494 24.9005 8.32037 24.0051 8.32037 22.9005V18.4164C8.32037 17.3119 9.2158 16.4164 10.3204 16.4164H10.3774V14.9164H10.3204C8.38737 14.9164 6.82037 16.4834 6.82037 18.4164V22.9005C6.82037 23.1767 6.59651 23.4005 6.32037 23.4005H2C1.72386 23.4005 1.5 23.1767 1.5 22.9005Z" fill="black"/>
</svg>
