<svg width="31" height="22" viewBox="0 0 31 22" fill="none" xmlns="http://www.w3.org/2000/svg">
<path d="M30.3521 3.38851C29.9956 2.05466 28.9453 1.00435 27.6115 0.647912C25.1937 -2.30968e-07 15.4999 0 15.4999 0C15.4999 0 5.80602 -2.30968e-07 3.3882 0.647912C2.05466 1.00435 1.00411 2.05466 0.647609 3.38851C0 5.80602 0 10.8501 0 10.8501C0 10.8501 0 15.8941 0.647609 18.3114C1.00411 19.6452 2.05466 20.6958 3.3882 21.0522C5.80602 21.6999 15.4999 21.6999 15.4999 21.6999C15.4999 21.6999 25.1937 21.6999 27.6115 21.0522C28.9453 20.6958 29.9956 19.6452 30.3521 18.3114C31 15.8941 31 10.8501 31 10.8501C31 10.8501 31 5.80602 30.3521 3.38851Z" fill="#ED1F24"/>
<path d="M12.3998 15.5001L20.4536 10.85L12.3998 6.19995V15.5001Z" fill="white"/>
</svg>
