<svg width="27" height="23" viewBox="0 0 27 23" fill="none" xmlns="http://www.w3.org/2000/svg">
<path d="M15.2461 23C13.5276 23 11.7757 22.5852 9.99054 21.7556C8.20535 20.9259 6.5498 19.7481 5.02387 18.2222C3.49795 16.6963 2.32017 15.0407 1.49054 13.2556C0.660909 11.4704 0.246094 9.71852 0.246094 8C0.246094 7.71428 0.341331 7.47619 0.531805 7.28571C0.722279 7.09524 0.960375 7 1.24609 7H4.3572C4.56461 7 4.74239 7.07407 4.89054 7.22222C5.03869 7.37037 5.14239 7.55556 5.20165 7.77778L5.80007 10.5698C5.83075 10.7825 5.82758 10.9741 5.79054 11.1444C5.7535 11.3148 5.67403 11.4609 5.55212 11.5828L3.33498 13.8222C3.72017 14.4741 4.12758 15.0815 4.55721 15.6444C4.98683 16.2074 5.46091 16.7407 5.97943 17.2444C6.52758 17.8074 7.10535 18.3222 7.71276 18.7889C8.32017 19.2556 8.9572 19.6667 9.62387 20.0222L11.735 17.8444C11.8831 17.6815 12.0546 17.5704 12.2494 17.5111C12.4443 17.4519 12.6358 17.437 12.8239 17.4667L15.4683 18.0444C15.6905 18.1037 15.8757 18.2225 16.0239 18.401C16.172 18.5794 16.2461 18.7791 16.2461 19V22C16.2461 22.2857 16.1509 22.5238 15.9604 22.7143C15.7699 22.9048 15.5318 23 15.2461 23ZM2.66832 12.6L4.46832 10.7778L3.95721 8.33333H1.57943C1.60906 8.95556 1.70906 9.61111 1.87943 10.3C2.0498 10.9889 2.31276 11.7556 2.66832 12.6ZM10.8683 20.6667C11.4757 20.9481 12.135 21.1778 12.8461 21.3556C13.5572 21.5333 14.2461 21.637 14.9128 21.6667V19.2889L12.6239 18.8222L10.8683 20.6667Z" fill="black"/>
<path d="M7.24609 1.5V14C7.24609 15.1046 8.14152 16 9.24609 16H24.2461C25.3507 16 26.2461 15.1046 26.2461 14V1.5M7.24609 1.5V1.5C7.24609 1.22386 7.46995 1 7.74609 1H25.7461C26.0222 1 26.2461 1.22386 26.2461 1.5V1.5M7.24609 1.5L15.5068 8.02162C16.2334 8.59526 17.2588 8.59526 17.9854 8.02161L26.2461 1.5" stroke="black" stroke-width="1.5"/>
</svg>
