<svg width="28" height="24" viewBox="0 0 28 24" fill="none" xmlns="http://www.w3.org/2000/svg">
<path d="M21.711 20.4766H16.6896M22.9509 20.4766V13H14.9719C14.0187 13 13.2461 13.7727 13.2461 14.7258V19.0658C13.2461 19.845 13.8777 20.4766 14.6569 20.4766V20.4766" stroke="white" stroke-width="1.5"/>
<path d="M17.2876 21.7681C17.2876 22.5866 16.6242 23.25 15.8057 23.25C14.9872 23.25 14.3237 22.5866 14.3237 21.7681C14.3237 20.9496 14.9872 20.2861 15.8057 20.2861C16.6242 20.2861 17.2876 20.9496 17.2876 21.7681Z" stroke="white" stroke-width="1.5"/>
<path d="M24.0196 21.7681C24.0196 22.5866 23.3561 23.25 22.5376 23.25C21.7192 23.25 21.0557 22.5866 21.0557 21.7681C21.0557 20.9496 21.7192 20.2861 22.5376 20.2861C23.3561 20.2861 24.0196 20.9496 24.0196 21.7681Z" stroke="white" stroke-width="1.5"/>
<path d="M22.7163 15.8989H25.8835C26.36 15.8989 26.7463 16.2853 26.7463 16.7618V19.6138C26.7463 20.0903 26.36 20.4766 25.8835 20.4766H23.5923" stroke="white" stroke-width="1.5"/>
<path fill-rule="evenodd" clip-rule="evenodd" d="M1.74609 21.8607V8.64688C1.74609 8.48731 1.82225 8.33733 1.95109 8.24318L11.0468 1.59631C11.2225 1.4679 11.4611 1.4679 11.6368 1.5963L20.7326 8.24318C20.8614 8.33733 20.9375 8.48731 20.9375 8.64687V11.0508H22.4375V8.64687C22.4375 8.00861 22.1329 7.40868 21.6176 7.03209L12.5219 0.385217C11.819 -0.128406 10.8646 -0.128405 10.1618 0.385218L1.06606 7.03209C0.550732 7.40868 0.246094 8.00861 0.246094 8.64688V21.8607C0.246094 22.9653 1.14152 23.8607 2.24609 23.8607H7.06577C8.17034 23.8607 9.06577 22.9653 9.06577 21.8607V17.7397C9.06577 16.6351 9.96121 15.7397 11.0658 15.7397H11.2461V14.2397H11.0658C9.13278 14.2397 7.56577 15.8067 7.56577 17.7397V21.8607C7.56577 22.1368 7.34192 22.3607 7.06577 22.3607H2.24609C1.96995 22.3607 1.74609 22.1368 1.74609 21.8607Z" fill="white"/>
</svg>
