<svg width="22" height="24" viewBox="0 0 22 24" fill="none" xmlns="http://www.w3.org/2000/svg">
<mask id="path-1-inside-1_30310_96831" fill="white">
<path d="M0.246094 2C0.246094 0.89543 1.14152 0 2.24609 0H19.2459C20.3505 0 21.2459 0.895431 21.2459 2V21.6503H0.246094V2Z"/>
</mask>
<path d="M-1.25391 2C-1.25391 0.0670034 0.313097 -1.5 2.24609 -1.5H19.2459C21.1789 -1.5 22.7459 0.0670034 22.7459 2H19.7459C19.7459 1.72386 19.5221 1.5 19.2459 1.5H2.24609C1.96995 1.5 1.74609 1.72386 1.74609 2H-1.25391ZM22.7459 22.6503H-1.25391L1.74609 20.6503H19.7459L22.7459 22.6503ZM-1.25391 22.6503V2C-1.25391 0.0670034 0.313097 -1.5 2.24609 -1.5V1.5C1.96995 1.5 1.74609 1.72386 1.74609 2V20.6503L-1.25391 22.6503ZM19.2459 -1.5C21.1789 -1.5 22.7459 0.0670034 22.7459 2V22.6503L19.7459 20.6503V2C19.7459 1.72386 19.5221 1.5 19.2459 1.5V-1.5Z" fill="white" mask="url(#path-1-inside-1_30310_96831)"/>
<rect x="4.13525" y="5.61304" width="13.2221" height="1.60373" rx="0.801864" fill="white"/>
<rect x="4.13525" y="9.62231" width="13.2221" height="1.60373" rx="0.801864" fill="white"/>
<rect x="4.13525" y="13.6316" width="13.2221" height="1.60373" rx="0.801864" fill="white"/>
<path d="M0.246094 21.6504H2.52518H4.80427L2.8733 23.6412C2.68104 23.8394 2.36932 23.8394 2.17706 23.6412L0.246094 21.6504Z" fill="white"/>
<path d="M4.35693 21.6504H6.63602H8.91511L6.98414 23.6412C6.79188 23.8394 6.48016 23.8394 6.2879 23.6412L4.35693 21.6504Z" fill="white"/>
<path d="M8.65479 21.6504H10.9339H13.213L11.282 23.6412C11.0897 23.8394 10.778 23.8394 10.5858 23.6412L8.65479 21.6504Z" fill="white"/>
<path d="M12.3906 21.6504H14.6697H16.9488L15.0178 23.6412C14.8256 23.8394 14.5139 23.8394 14.3216 23.6412L12.3906 21.6504Z" fill="white"/>
<path d="M16.688 21.6504H18.9671H21.2462L19.3152 23.6412C19.1229 23.8394 18.8112 23.8394 18.619 23.6412L16.688 21.6504Z" fill="white"/>
</svg>
