<svg width="31" height="31" viewBox="0 0 31 31" fill="none" xmlns="http://www.w3.org/2000/svg">
<rect x="0.996094" y="7.75" width="22.5" height="22.5" rx="1.25" stroke="white" stroke-width="1.5"/>
<circle cx="12.3711" cy="16" r="4.25" stroke="white" stroke-width="1.5"/>
<path d="M5.81769 29.1758C6.55668 25.8158 9.25478 23.4165 12.3711 23.4165C15.4874 23.4165 18.1855 25.8158 18.9245 29.1758C19.034 29.6736 18.6195 30.2498 17.8711 30.2498H6.87109C6.12272 30.2498 5.70821 29.6736 5.81769 29.1758Z" stroke="white" stroke-width="1.5"/>
<path d="M22.4404 3.05556C22.4404 1.78223 23.4727 0.75 24.746 0.75C26.0193 0.75 27.0515 1.78223 27.0515 3.05556V4.25893H22.4404V3.05556Z" stroke="white" stroke-width="1.5"/>
<rect x="19.9961" y="3.875" width="9.5" height="8.51786" rx="1.25" fill="black" stroke="white" stroke-width="1.5"/>
<path d="M25.4684 7.83922C25.4684 8.197 25.1623 8.51779 24.7461 8.51779C24.33 8.51779 24.0239 8.197 24.0239 7.83922C24.0239 7.48143 24.33 7.16064 24.7461 7.16064C25.1623 7.16064 25.4684 7.48143 25.4684 7.83922Z" fill="white" stroke="white"/>
</svg>
