<svg width="25" height="24" viewBox="0 0 25 24" fill="none" xmlns="http://www.w3.org/2000/svg">
<mask id="path-1-inside-1_30310_96788" fill="white">
<path fill-rule="evenodd" clip-rule="evenodd" d="M16.0943 2.24133C16.0943 1.04366 15.1234 0.0727539 13.9257 0.0727539H10.5684C9.37069 0.0727539 8.39978 1.04366 8.39978 2.24134V3.01591C8.39978 3.59194 8.04674 4.10557 7.5422 4.38352C7.07074 4.64325 6.50199 4.67705 6.0293 4.41956L5.03313 3.87689C4.01862 3.32423 2.74896 3.66394 2.14597 4.64937L0.565333 7.23253C-0.0821432 8.29067 0.288331 9.67532 1.3777 10.2688L2.17698 10.7042C2.64435 10.9588 2.90315 11.4698 2.90315 12.002C2.90315 12.5297 2.64628 13.0362 2.18288 13.2886L1.37809 13.727C0.288721 14.3205 -0.0817526 15.7051 0.565723 16.7633L2.14636 19.3464C2.74935 20.3319 4.01901 20.6716 5.03352 20.1189L6.01905 19.582C6.49395 19.3233 7.06538 19.3576 7.53895 19.6187C8.04533 19.8979 8.39978 20.4135 8.39978 20.9918V21.7586C8.39978 22.9562 9.37069 23.9271 10.5684 23.9271H13.9257C15.1234 23.9271 16.0943 22.9562 16.0943 21.7586V20.9907C16.0943 20.4128 16.4485 19.8975 16.9545 19.6184C17.4278 19.3574 17.9989 19.3232 18.4736 19.5818L19.459 20.1185C20.4735 20.6712 21.7431 20.3315 22.3461 19.3461L23.9268 16.7629C24.5742 15.7048 24.2038 14.3201 23.1144 13.7267L22.31 13.2885C21.8466 13.0361 21.5898 12.5296 21.5898 12.002C21.5898 11.4699 21.8486 10.9589 22.3159 10.7043L23.1148 10.2691C24.2042 9.6757 24.5746 8.29105 23.9272 7.23291L22.3465 4.64974C21.7435 3.66431 20.4739 3.32461 19.4594 3.87726L18.4633 4.41984C17.9909 4.6772 17.4224 4.64342 16.9512 4.3838C16.4471 4.106 16.0943 3.59268 16.0943 3.01703V2.24133Z"/>
</mask>
<path d="M23.9272 7.23291L22.6477 8.01582L23.9272 7.23291ZM22.3159 10.7043L23.0334 12.0216L22.3159 10.7043ZM23.9268 16.7629L22.6473 15.98L23.9268 16.7629ZM23.1144 13.7267L22.3968 15.0439L23.1144 13.7267ZM22.3461 19.3461L21.0666 18.5631L22.3461 19.3461ZM18.4736 19.5818L17.756 20.899L18.4736 19.5818ZM2.14636 19.3464L3.42584 18.5635L2.14636 19.3464ZM5.03352 20.1189L4.31596 18.8017L5.03352 20.1189ZM1.37809 13.727L2.09565 15.0443L1.37809 13.727ZM2.18288 13.2886L2.90044 14.6059L2.18288 13.2886ZM2.17698 10.7042L2.89454 9.38693L2.17698 10.7042ZM0.565333 7.23253L-0.71414 6.44962L0.565333 7.23253ZM1.3777 10.2688L0.660134 11.586L1.3777 10.2688ZM18.4633 4.41984L17.7458 3.10261L18.4633 4.41984ZM6.01905 19.582L6.73661 20.8993L6.01905 19.582ZM22.3465 4.64974L23.626 3.86683L22.3465 4.64974ZM10.5684 1.57275H13.9257V-1.42725H10.5684V1.57275ZM9.89978 3.01591V2.24134H6.89978V3.01591H9.89978ZM4.31557 5.19412L5.31174 5.73679L6.74687 3.10232L5.75069 2.55966L4.31557 5.19412ZM1.84481 8.01544L3.42545 5.43228L0.866502 3.86646L-0.71414 6.44962L1.84481 8.01544ZM2.89454 9.38693L2.09526 8.95152L0.660134 11.586L1.45942 12.0214L2.89454 9.38693ZM2.09565 15.0443L2.90044 14.6059L1.46531 11.9714L0.660524 12.4098L2.09565 15.0443ZM3.42584 18.5635L1.8452 15.9804L-0.713749 17.5462L0.866892 20.1293L3.42584 18.5635ZM5.30149 18.2648L4.31596 18.8017L5.75108 21.4361L6.73661 20.8993L5.30149 18.2648ZM9.89978 21.7586V20.9918H6.89978V21.7586H9.89978ZM13.9257 22.4271H10.5684V25.4271H13.9257V22.4271ZM14.5943 20.9907V21.7586H17.5943V20.9907H14.5943ZM20.1765 18.8013L19.1912 18.2645L17.756 20.899L18.7414 21.4358L20.1765 18.8013ZM22.6473 15.98L21.0666 18.5631L23.6256 20.129L25.2062 17.5458L22.6473 15.98ZM21.5924 14.6057L22.3968 15.0439L23.832 12.4094L23.0275 11.9712L21.5924 14.6057ZM22.3972 8.9519L21.5983 9.38711L23.0334 12.0216L23.8324 11.5864L22.3972 8.9519ZM21.067 5.43266L22.6477 8.01582L25.2066 6.45L23.626 3.86683L21.067 5.43266ZM19.1809 5.73708L20.1769 5.1945L18.7418 2.56003L17.7458 3.10261L19.1809 5.73708ZM14.5943 2.24133V3.01703H17.5943V2.24133H14.5943ZM17.6751 3.07002C17.6323 3.04643 17.6063 3.01778 17.5951 3.00045C17.5859 2.98615 17.5943 2.99265 17.5943 3.01703H14.5943C14.5943 4.22505 15.3245 5.20012 16.2274 5.69758L17.6751 3.07002ZM23.8324 11.5864C25.6752 10.5825 26.302 8.24004 25.2066 6.45L22.6477 8.01582C22.8473 8.34205 22.7331 8.76894 22.3972 8.9519L23.8324 11.5864ZM23.0898 12.002C23.0898 11.9902 23.0913 11.9802 23.0931 11.9731C23.0948 11.9659 23.0963 11.9639 23.095 11.9664C23.0935 11.9691 23.0885 11.9774 23.0778 11.9884C23.0666 11.9997 23.0516 12.0117 23.0334 12.0216L21.5983 9.38711C20.5748 9.94466 20.0898 11.0103 20.0898 12.002H23.0898ZM23.0275 11.9712C23.0465 11.9816 23.0624 11.9941 23.0742 12.0062C23.0856 12.0179 23.0913 12.027 23.0933 12.0307C23.0952 12.0342 23.0941 12.0332 23.0926 12.0272C23.0911 12.0213 23.0898 12.0126 23.0898 12.002H20.0898C20.0898 12.99 20.5735 14.0506 21.5924 14.6057L23.0275 11.9712ZM25.2062 17.5458C26.3016 15.7558 25.6748 13.4133 23.832 12.4094L22.3968 15.0439C22.7327 15.2269 22.8469 15.6537 22.6473 15.98L25.2062 17.5458ZM18.7414 21.4358C20.4577 22.3707 22.6055 21.796 23.6256 20.129L21.0666 18.5631C20.8807 18.867 20.4893 18.9717 20.1765 18.8013L18.7414 21.4358ZM17.6789 20.9319C17.7184 20.9101 17.7499 20.9049 17.7644 20.9044C17.7759 20.904 17.7693 20.9062 17.756 20.899L19.1912 18.2645C18.2058 17.7278 17.0876 17.832 16.2301 18.3049L17.6789 20.9319ZM17.5943 20.9907C17.5943 21.014 17.5863 21.0194 17.5961 21.0041C17.6079 20.9857 17.6349 20.9562 17.6789 20.9319L16.2301 18.3049C15.326 18.8035 14.5943 19.7803 14.5943 20.9907H17.5943ZM13.9257 25.4271C15.9518 25.4271 17.5943 23.7847 17.5943 21.7586H14.5943C14.5943 22.1278 14.2949 22.4271 13.9257 22.4271V25.4271ZM6.89978 21.7586C6.89978 23.7847 8.54226 25.4271 10.5684 25.4271V22.4271C10.1991 22.4271 9.89978 22.1278 9.89978 21.7586H6.89978ZM6.81465 20.9322C6.8588 20.9566 6.88594 20.9863 6.89783 21.0048C6.90777 21.0202 6.89978 21.0149 6.89978 20.9918H9.89978C9.89978 19.781 9.16769 18.8039 8.26326 18.3052L6.81465 20.9322ZM0.866892 20.1293C1.88696 21.7964 4.03483 22.3711 5.75108 21.4361L4.31596 18.8017C4.00318 18.9721 3.61174 18.8673 3.42584 18.5635L0.866892 20.1293ZM0.660524 12.4098C-1.18235 13.4137 -1.80908 15.7561 -0.713749 17.5462L1.8452 15.9804C1.64558 15.6541 1.7598 15.2272 2.09565 15.0443L0.660524 12.4098ZM1.40315 12.002C1.40315 12.0126 1.40182 12.0213 1.40032 12.0273C1.39883 12.0333 1.39776 12.0343 1.39966 12.0308C1.40166 12.0271 1.40725 12.018 1.41868 12.0063C1.43049 11.9943 1.44634 11.9817 1.46531 11.9714L2.90044 14.6059C3.91943 14.0508 4.40315 12.9901 4.40315 12.002H1.40315ZM1.45942 12.0214C1.4413 12.0115 1.42624 11.9996 1.41513 11.9882C1.4044 11.9773 1.39944 11.969 1.39797 11.9663C1.3966 11.9638 1.39809 11.9658 1.39988 11.973C1.40166 11.9802 1.40315 11.9901 1.40315 12.002H4.40315C4.40315 11.0102 3.91812 9.94453 2.89454 9.38693L1.45942 12.0214ZM-0.71414 6.44962C-1.80947 8.23967 -1.18274 10.5821 0.660134 11.586L2.09526 8.95152C1.7594 8.76857 1.64519 8.34167 1.84481 8.01544L-0.71414 6.44962ZM5.75069 2.55966C4.03444 1.62473 1.88657 2.19941 0.866502 3.86646L3.42545 5.43228C3.61135 5.12847 4.00279 5.02374 4.31557 5.19412L5.75069 2.55966ZM6.81841 3.0697C6.77988 3.09093 6.74947 3.09589 6.73592 3.09634C6.72988 3.09655 6.72889 3.09585 6.73216 3.09659C6.73579 3.09742 6.74127 3.09927 6.74687 3.10232L5.31174 5.73679C6.29461 6.27221 7.41016 6.16883 8.266 5.69734L6.81841 3.0697ZM6.89978 3.01591C6.89978 2.99167 6.9081 2.98533 6.89881 2.99977C6.88756 3.01724 6.86139 3.04602 6.81841 3.0697L8.266 5.69734C9.16917 5.19978 9.89978 4.2244 9.89978 3.01591H6.89978ZM17.7458 3.10261C17.7514 3.09952 17.757 3.09765 17.7607 3.0968C17.764 3.09604 17.7631 3.09673 17.7571 3.09653C17.7437 3.09608 17.7135 3.09117 17.6751 3.07002L16.2274 5.69758C17.083 6.16901 18.1983 6.27236 19.1809 5.73708L17.7458 3.10261ZM13.9257 1.57275C14.295 1.57275 14.5943 1.87209 14.5943 2.24133H17.5943C17.5943 0.215233 15.9518 -1.42725 13.9257 -1.42725V1.57275ZM6.73661 20.8993C6.72343 20.9065 6.71701 20.9042 6.72869 20.9046C6.74337 20.9051 6.77498 20.9104 6.81465 20.9322L8.26326 18.3052C7.40554 17.8322 6.28705 17.7279 5.30149 18.2648L6.73661 20.8993ZM23.626 3.86683C22.6059 2.19979 20.458 1.6251 18.7418 2.56003L20.1769 5.1945C20.4897 5.02411 20.8811 5.12884 21.067 5.43266L23.626 3.86683ZM10.5684 -1.42725C8.54226 -1.42725 6.89978 0.215235 6.89978 2.24134H9.89978C9.89978 1.87209 10.1991 1.57275 10.5684 1.57275V-1.42725Z" fill="black" mask="url(#path-1-inside-1_30310_96788)"/>
<path d="M15.5711 11.9984C15.5711 13.7711 14.1133 15.2242 12.2953 15.2242C10.4773 15.2242 9.01953 13.7711 9.01953 11.9984C9.01953 10.2257 10.4773 8.77271 12.2953 8.77271C14.1133 8.77271 15.5711 10.2257 15.5711 11.9984Z" stroke="black" stroke-width="1.5"/>
</svg>
