<svg width="25" height="24" viewBox="0 0 25 24" fill="none" xmlns="http://www.w3.org/2000/svg">
<mask id="path-1-inside-1_30310_96811" fill="white">
<path fill-rule="evenodd" clip-rule="evenodd" d="M2.24609 0C1.14152 0 0.246094 0.895431 0.246094 2V17C0.246094 18.1046 1.14152 19 2.24609 19H4.27795V22.9987C4.27795 23.7831 5.13984 24.2621 5.80596 23.848L13.6031 19H22.2461C23.3507 19 24.2461 18.1046 24.2461 17V2C24.2461 0.895431 23.3507 0 22.2461 0H2.24609Z"/>
</mask>
<path d="M4.27795 19H5.77795V17.5H4.27795V19ZM5.80596 23.848L5.01394 22.5741L5.80596 23.848ZM13.6031 19V17.5H13.1748L12.8111 17.7262L13.6031 19ZM1.74609 2C1.74609 1.72386 1.96995 1.5 2.24609 1.5V-1.5C0.313097 -1.5 -1.25391 0.0670039 -1.25391 2H1.74609ZM1.74609 17V2H-1.25391V17H1.74609ZM2.24609 17.5C1.96995 17.5 1.74609 17.2761 1.74609 17H-1.25391C-1.25391 18.933 0.313097 20.5 2.24609 20.5V17.5ZM4.27795 17.5H2.24609V20.5H4.27795V17.5ZM5.77795 22.9987V19H2.77795V22.9987H5.77795ZM5.01394 22.5741C5.347 22.367 5.77795 22.6065 5.77795 22.9987H2.77795C2.77795 24.9597 4.93268 26.1572 6.59799 25.1218L5.01394 22.5741ZM12.8111 17.7262L5.01394 22.5741L6.59799 25.1218L14.3951 20.2738L12.8111 17.7262ZM22.2461 17.5H13.6031V20.5H22.2461V17.5ZM22.7461 17C22.7461 17.2761 22.5222 17.5 22.2461 17.5V20.5C24.1791 20.5 25.7461 18.933 25.7461 17H22.7461ZM22.7461 2V17H25.7461V2H22.7461ZM22.2461 1.5C22.5222 1.5 22.7461 1.72386 22.7461 2H25.7461C25.7461 0.0670039 24.1791 -1.5 22.2461 -1.5V1.5ZM2.24609 1.5H22.2461V-1.5H2.24609V1.5Z" fill="white" mask="url(#path-1-inside-1_30310_96811)"/>
<path d="M10.8614 11.3206V10.6971C10.8614 10.1905 11.0563 9.69686 11.6928 9.20324L12.3553 8.69663C12.8489 8.31992 13.1347 7.91723 13.1347 7.28072C13.1347 6.63122 12.706 6.21554 11.9915 6.21554C11.2121 6.21554 10.7185 6.6572 10.7185 7.44959C10.7185 7.67042 10.7315 7.87826 10.7965 8.09909L8.79601 7.93022C8.73106 7.63145 8.70508 7.39763 8.70508 7.1768C8.70508 5.66996 9.93913 4.65674 12.0045 4.65674C14.057 4.65674 15.265 5.54006 15.265 7.05989C15.265 8.00816 14.7714 8.80055 14.044 9.3851L13.4464 9.87872C13.0307 10.2165 12.8879 10.4763 12.8879 10.9439V11.3206H10.8614ZM10.7705 14.1005V12.113H13.0048V14.1005H10.7705Z" fill="white"/>
</svg>
