<svg width="27" height="24" viewBox="0 0 27 24" fill="none" xmlns="http://www.w3.org/2000/svg">
<path d="M4.2657 11.2092V21C4.2657 22.1046 5.16113 23 6.2657 23H21.2461C22.3507 23 23.2461 22.1046 23.2461 21V12.6471M23.2461 12.6471L25.6106 10.2826C26.2513 9.64188 26.3812 8.65047 25.9272 7.8663L22.5297 1.99793C22.1721 1.38029 21.5125 1 20.7989 1H6.76728C6.02472 1 5.34329 1.4114 4.99745 2.06851L1.86925 8.01208C1.49212 8.72863 1.58426 9.60188 2.10265 10.2239L2.25244 10.4037C2.90677 11.1889 4.04785 11.3544 4.89829 10.7874L5.92107 10.1056C6.71432 9.57674 7.77056 9.68133 8.44469 10.3555L8.98185 10.8926C9.72638 11.6371 10.9207 11.6769 11.7131 10.9836L12.3477 10.4282C13.1402 9.73485 14.3344 9.77462 15.079 10.5192L15.4524 10.8926C16.197 11.6371 17.3912 11.6769 18.1837 10.9836L18.7213 10.5131C19.5526 9.78572 20.8161 9.86996 21.5435 10.7012L23.2461 12.6471Z" stroke="white" stroke-width="1.5"/>
<path d="M8.24609 3.5L7.24609 7.5" stroke="white" stroke-width="1.5" stroke-linecap="round"/>
<path d="M19.2461 3.5L20.2461 7.5" stroke="white" stroke-width="1.5" stroke-linecap="round"/>
<path d="M14.214 3.50003L14.2509 7.62297" stroke="white" stroke-width="1.5" stroke-linecap="round"/>
<path d="M14.6188 18.0981V21.0001C14.6188 22.1047 15.5142 23.0001 16.6188 23.0001H17.7952C18.8998 23.0001 19.7952 22.1047 19.7952 21.0001V18.0981C19.7952 16.9936 18.8998 16.0981 17.7952 16.0981H16.6188C15.5142 16.0981 14.6188 16.9936 14.6188 18.0981Z" stroke="white" stroke-width="1.5"/>
<path d="M7.7168 18.0393C7.7168 16.9672 8.58589 16.0981 9.65797 16.0981C10.7301 16.0981 11.5991 16.9672 11.5991 18.0393C11.5991 19.1114 10.7301 19.9805 9.65797 19.9805C8.58589 19.9805 7.7168 19.1114 7.7168 18.0393Z" stroke="white" stroke-width="1.5"/>
</svg>
