<?xml version="1.0" encoding="utf-8"?>
<!-- Generator: Adobe Illustrator 21.0.2, SVG Export Plug-In . SVG Version: 6.00 Build 0)  -->
<svg version="1.1" id="Layer_1" xmlns="http://www.w3.org/2000/svg" xmlns:xlink="http://www.w3.org/1999/xlink" x="0px" y="0px"
	 width="235.7px" height="41.3px" viewBox="0 0 235.7 41.3" style="enable-background:new 0 0 235.7 41.3;" xml:space="preserve">
<style type="text/css">
	.st0{fill:#123553;}
	.st1{fill:#FFFFFF;}
	.st2{fill:#009EE2;}
</style>
<g>
	<g>
		<rect x="11.7" class="st0" width="211.9" height="41.4"/>
	</g>
	<g>
		<path class="st1" d="M37.6,24.9c0-2.2-1.3-4-3.2-4.8c1.5-0.9,2.4-2.3,2.4-4.1c0-3.9-3.4-5.3-6.4-5.3h-8v20.3h7.4
			C34.8,30.8,37.6,28.7,37.6,24.9z M26.8,14.5h2.3c2.9,0,3.2,1,3.2,2c0,1.7-1.8,1.9-2.9,1.9h-2.6V14.5z M26.8,26.9v-4.6h2.8
			c3,0,3.6,0.9,3.6,2.2c0,1.6-1.1,2.3-3.7,2.3H26.8z"/>
		<path class="st1" d="M50.3,30.8h4.1h1.2h3.8l1.7-4.4h7.7l1.8,4.4h5l-8.7-20.3h-3.6l-8.3,19.1l-4.5-7.5c2.6-0.7,4.2-2.7,4.2-5.6
			c0-3.9-2.7-6-7.7-6h-7.2v20.3h4.4v-8.2h1.7L50.3,30.8z M65,16.5l2.3,6h-4.6L65,16.5z M44.1,14.5h2.5c2.4,0,3.4,0.6,3.4,2.1
			c0,1.8-1.4,2.2-3.7,2.2h-2.2V14.5z"/>
		<polygon class="st1" points="90.4,23.8 81.8,10.6 76.5,10.6 76.5,30.8 80.9,30.8 80.9,17.2 89.7,30.8 94.9,30.8 94.9,10.6 
			90.4,10.6 		"/>
		<path class="st1" d="M105.5,10.6h-8.1v20.3h7.7c5.2,0,10.7-3.6,10.7-10.1C115.8,13.7,110.6,10.6,105.5,10.6z M103.9,26.8h-2.1
			V14.7h2.6c3.1,0,6.7,1,6.7,6C111.2,26,106.6,26.8,103.9,26.8z"/>
	</g>
	<g>
		<polygon class="st1" points="133.3,23.2 128.5,10.6 122.4,10.6 122.4,30.9 126.7,30.9 126.7,17 131.8,30.9 134.8,30.9 139.9,17 
			139.9,30.9 144.2,30.9 144.2,10.6 138.2,10.6 		"/>
		<path class="st1" d="M151.8,26.5h7.7l1.8,4.4h2.9h0.4h5.3l4.8-6.7l4.8,6.7h5.6l-7.3-10.1l7.3-10.2h-5.6l-4.8,6.7l-4.8-6.7h-5.3
			l7.2,10.1h0l-6.2,8.7l-8.1-18.8H154l-8.8,20.3h4.9L151.8,26.5z M155.7,16.6l2.3,6h-4.6L155.7,16.6z"/>
	</g>
	<g>
		<polygon class="st2" points="187.1,14.8 182.9,20.7 187.1,26.6 223.6,26.6 223.6,14.8 		"/>
		<g>
			<path class="st1" d="M192.4,18.3c0-1.3-1-1.9-1.9-1.9h-1.5v3.8h1.4C191.3,20.2,192.4,19.6,192.4,18.3z M190.2,17.2
				c0.6,0,1.3,0.2,1.3,1.1c0,1-0.9,1.1-1.4,1.1h-0.4v-2.3H190.2z"/>
			<polygon class="st1" points="195.4,19.5 193.5,19.5 193.5,18.7 195.2,18.7 195.2,17.9 193.5,17.9 193.5,17.2 195.3,17.2 
				195.3,16.4 192.7,16.4 192.7,20.2 195.4,20.2 			"/>
			<path class="st1" d="M196.9,19.5c-0.3,0-0.5-0.1-0.6-0.3l-0.1-0.1l-0.6,0.6l0.1,0.1c0.4,0.4,0.9,0.5,1.3,0.5
				c0.9,0,1.4-0.5,1.4-1.2c0-0.8-0.6-1-1.1-1.2c-0.4-0.1-0.6-0.2-0.6-0.4c0-0.4,0.4-0.4,0.5-0.4c0.2,0,0.4,0.1,0.6,0.2l0.1,0.1
				l0.6-0.6l-0.1-0.1c-0.3-0.3-0.8-0.4-1.1-0.4c-0.7,0-1.4,0.4-1.4,1.2c0,0.8,0.6,1,1.1,1.1c0.4,0.1,0.6,0.2,0.6,0.5
				C197.4,19.4,197.1,19.5,196.9,19.5z"/>
			<rect x="198.7" y="16.4" class="st1" width="0.8" height="3.8"/>
			<path class="st1" d="M201.9,20.3c0.6,0,1.1-0.1,1.5-0.4l0,0v-2h-1.6v0.8h0.7v0.7c-0.2,0.1-0.5,0.2-0.8,0.2
				c-0.7,0-1.1-0.5-1.1-1.2c0-0.7,0.5-1.2,1.1-1.2c0.3,0,0.7,0.1,0.9,0.3l0.1,0.1l0.6-0.6l-0.1-0.1c-0.4-0.3-0.8-0.5-1.5-0.5
				c-1.2,0-2,0.8-2,2C199.9,19.5,200.7,20.3,201.9,20.3z"/>
			<polygon class="st1" points="204.8,17.7 206.4,20.2 207.4,20.2 207.4,16.4 206.6,16.4 206.6,18.9 205,16.4 204,16.4 204,20.2 
				204.8,20.2 			"/>
			<polygon class="st1" points="208.7,18.7 210.3,18.7 210.3,17.9 208.7,17.9 208.7,17.2 210.4,17.2 210.4,16.4 207.9,16.4 
				207.9,20.2 210.5,20.2 210.5,19.5 208.7,19.5 			"/>
			<path class="st1" d="M213,18.6c0.5-0.1,0.8-0.5,0.8-1c0-0.7-0.5-1.1-1.4-1.1H211v3.8h0.8v-1.5h0.3l0.8,1.5h1L213,18.6z
				 M211.8,17.2h0.5c0.5,0,0.6,0.1,0.6,0.4c0,0.3-0.3,0.4-0.7,0.4h-0.4V17.2z"/>
			<path class="st1" d="M190.7,21.1c-1.2,0-2,0.8-2,2c0,1.2,0.8,2,2,2c1.2,0,2-0.8,2-2c0-0.6-0.2-1.1-0.6-1.4
				C191.8,21.2,191.3,21,190.7,21.1z M190.7,24.3c-0.7,0-1.1-0.5-1.1-1.2c0-0.7,0.5-1.2,1.1-1.2c0.7,0,1.2,0.5,1.2,1.2
				C191.9,23.8,191.4,24.3,190.7,24.3z"/>
			<path class="st1" d="M195.3,23.5c0,0.1,0,0.7-0.7,0.7c-0.7,0-0.7-0.6-0.7-0.7v-2.4h-0.8v2.4c0,0.9,0.6,1.5,1.5,1.5
				c0.9,0,1.5-0.6,1.5-1.5v-2.4h-0.8V23.5z"/>
			<polygon class="st1" points="196.4,21.9 197.5,21.9 197.5,24.9 198.3,24.9 198.3,21.9 199.4,21.9 199.4,21.1 196.4,21.1 			"/>
			<polygon class="st1" points="200.5,21.1 199.7,21.1 199.7,24.9 202,24.9 202,24.2 200.5,24.2 			"/>
			<polygon class="st1" points="203.1,23.4 204.8,23.4 204.8,22.6 203.1,22.6 203.1,21.9 204.9,21.9 204.9,21.1 202.3,21.1 
				202.3,24.9 205,24.9 205,24.2 203.1,24.2 			"/>
			<polygon class="st1" points="205.1,21.9 206.2,21.9 206.2,24.9 207,24.9 207,21.9 208.1,21.9 208.1,21.1 205.1,21.1 			"/>
		</g>
	</g>
</g>
</svg>
