<svg xmlns="http://www.w3.org/2000/svg" width="424" height="119" viewBox="0 0 424 119" fill="none">
        <g clip-path="url(#clip0_19301_112984)">
            <path d="M228.059 94.7851C228.059 94.7851 228.059 94.7668 228.059 94.7622V94.2444C227.99 91.0508 227.543 88.7049 227.141 87.2204L227 86.7668C226.727 85.8366 226.503 85.3556 226.503 85.3556C225.544 82.9318 224.171 80.7417 222.304 78.7119C218.224 74.2721 212.725 71.7704 206.774 71.6054C206.774 71.6054 206.77 71.6054 206.765 71.6054H206.733C206.541 71.6008 206.345 71.5917 206.153 71.5917C206.117 71.5917 206.081 71.5917 206.044 71.5917C206.008 71.5917 205.971 71.5917 205.935 71.5917C205.739 71.5917 205.547 71.6008 205.355 71.6054H205.323C205.323 71.6054 205.319 71.6054 205.313 71.6054C199.358 71.7658 193.863 74.2721 189.779 78.7119C187.507 81.1861 185.96 83.9031 185.01 86.9821C184.996 87.0234 184.983 87.06 184.969 87.1013L184.832 87.5457C184.741 87.8572 184.664 88.21 184.577 88.5904C184.554 88.6912 184.531 88.792 184.509 88.8973L184.371 89.5021H184.385C184.089 91.0279 183.911 92.6407 183.852 94.3544V95.6739C183.911 97.3876 184.084 98.9958 184.385 100.526H184.371L184.509 101.131C184.531 101.232 184.554 101.333 184.577 101.433C184.664 101.814 184.741 102.166 184.832 102.478L184.969 102.922C184.983 102.964 184.996 103 185.01 103.042C185.96 106.125 187.507 108.842 189.779 111.312C193.859 115.752 199.358 118.253 205.313 118.418H205.351C205.547 118.423 205.739 118.436 205.929 118.436C205.966 118.436 206.003 118.436 206.04 118.436C206.076 118.436 206.113 118.436 206.149 118.436C206.345 118.436 206.537 118.428 206.729 118.423H206.765C211.228 118.299 215.435 116.865 218.977 114.276V117.388H228.054V108.723V94.7942L228.059 94.7851ZM219.169 95.6419C219.169 97.2546 218.882 98.9316 218.329 100.522L218.197 100.865C216.526 105.158 212.634 108.398 208.271 109.118C208.203 109.131 208.184 109.136 208.162 109.136C207.984 109.168 207.833 109.186 207.683 109.209L207.618 109.218C207.277 109.259 206.925 109.287 206.546 109.305C206.377 109.314 206.208 109.314 206.04 109.314C205.871 109.314 205.701 109.314 205.533 109.305C205.155 109.287 204.803 109.259 204.46 109.218L204.401 109.209C204.25 109.19 204.1 109.168 203.922 109.136C203.904 109.136 203.88 109.136 203.813 109.118C199.454 108.398 195.557 105.158 193.887 100.865L193.754 100.522H193.75C193.198 98.9316 192.905 97.2547 192.91 95.6465V94.3818C192.91 92.7691 193.198 91.092 193.75 89.5021H193.754L193.887 89.1585C195.557 84.8653 199.45 81.6305 203.813 80.9066C203.88 80.8929 203.899 80.8882 203.922 80.8882C204.1 80.8562 204.25 80.8379 204.401 80.815L204.46 80.8058C204.803 80.7645 205.159 80.7371 205.533 80.7188C205.701 80.7095 205.871 80.7095 206.04 80.7095C206.208 80.7095 206.377 80.7095 206.546 80.7188C206.925 80.7371 207.277 80.7645 207.618 80.8058L207.683 80.815C207.833 80.8333 207.984 80.8562 208.162 80.8882C208.18 80.8882 208.203 80.8883 208.271 80.9066C212.63 81.6259 216.526 84.8653 218.197 89.1585L218.329 89.5021C218.882 91.092 219.173 92.7691 219.169 94.3772V95.6419Z" fill="#ffffff"/>
            <path d="M164.908 46.1714L165.045 46.7762C165.067 46.877 165.091 46.9778 165.113 47.0786C165.2 47.4589 165.277 47.8117 165.369 48.1232L165.506 48.5677C165.519 48.6089 165.533 48.6456 165.547 48.6868C166.496 51.7704 168.043 54.4874 170.316 56.9571C174.395 61.3969 179.895 63.8986 185.85 64.0635C185.85 64.0635 185.855 64.0635 185.859 64.0635H185.891C186.087 64.0681 186.279 64.0773 186.471 64.0773C186.507 64.0773 186.544 64.0773 186.58 64.0773C186.617 64.0773 186.653 64.0773 186.69 64.0773C186.886 64.0773 187.077 64.0681 187.269 64.0635H187.306C191.769 63.9399 195.977 62.5057 199.519 59.917V63.028H208.595V54.3637V40.4349C208.595 40.4349 208.595 40.4166 208.595 40.412V39.8942C208.526 36.7007 208.079 34.3548 207.677 32.8703L207.536 32.4166C207.263 31.4865 207.039 31.0054 207.039 31.0054C206.081 28.5817 204.707 26.3915 202.841 24.3617C198.761 19.9219 193.261 17.4203 187.311 17.2553C187.311 17.2553 187.306 17.2553 187.301 17.2553H187.269C187.077 17.2507 186.881 17.2416 186.69 17.2416C186.653 17.2416 186.617 17.2416 186.58 17.2416C186.544 17.2416 186.507 17.2416 186.471 17.2416C186.275 17.2416 186.083 17.2507 185.891 17.2553H185.859C185.859 17.2553 185.855 17.2553 185.85 17.2553C179.895 17.4157 174.4 19.9219 170.316 24.3617C168.043 26.8359 166.496 29.553 165.547 32.632C165.533 32.6732 165.519 32.7099 165.506 32.7511L165.369 33.2001C165.277 33.5117 165.2 33.8645 165.113 34.2448C165.091 34.3456 165.067 34.4464 165.045 34.5518L164.908 35.1566H164.921C164.625 36.6823 164.447 38.2952 164.388 40.0088V41.3284C164.447 43.0419 164.62 44.6502 164.921 46.1805H164.908V46.1714ZM173.447 41.2917V40.0317C173.447 38.4189 173.734 36.7419 174.286 35.152L174.423 34.8084C176.094 30.5152 179.986 27.2804 184.349 26.5564C184.417 26.5427 184.436 26.5381 184.458 26.5381C184.636 26.5061 184.787 26.4878 184.937 26.4648L184.997 26.4556C185.339 26.4144 185.695 26.3869 186.069 26.364C186.238 26.3548 186.407 26.3548 186.576 26.3503C186.744 26.3503 186.913 26.3503 187.083 26.364C187.461 26.3823 187.813 26.4144 188.154 26.4556L188.219 26.4648C188.369 26.4831 188.52 26.5061 188.698 26.5381C188.716 26.5381 188.739 26.5381 188.807 26.5564C193.166 27.2758 197.063 30.5152 198.733 34.8084L198.866 35.152C199.418 36.7419 199.709 38.4188 199.705 40.0271V41.2917C199.705 42.9046 199.418 44.5815 198.866 46.1714L198.733 46.515C197.063 50.8082 193.17 54.0476 188.807 54.767C188.739 54.7807 188.72 54.7853 188.698 54.7853C188.52 54.8173 188.369 54.8356 188.219 54.8586L188.154 54.8678C187.813 54.909 187.461 54.9365 187.083 54.9548C186.913 54.964 186.744 54.964 186.576 54.9686C186.407 54.9686 186.238 54.9686 186.069 54.9548C185.691 54.9365 185.339 54.909 184.997 54.8678L184.937 54.8586C184.787 54.8403 184.636 54.8173 184.458 54.7853C184.44 54.7853 184.417 54.7853 184.349 54.767C179.99 54.0476 176.094 50.8082 174.423 46.515L174.286 46.1714C173.734 44.5815 173.441 42.9046 173.447 41.2963V41.2917Z" fill="#ffffff"/>
            <path d="M100.334 58.7303L100.416 58.6616C100.566 58.5288 100.699 58.4142 100.826 58.2905C103.332 56.0224 105.312 53.1496 106.545 49.9927C106.718 49.5758 106.887 49.1084 107.056 48.577L107.197 48.1325C107.307 47.7522 107.398 47.3262 107.507 46.845L107.658 46.1806H98.2709L98.1339 46.5288C96.4637 50.8175 92.5709 54.0569 88.2127 54.7808C88.1443 54.7945 88.126 54.7945 88.1032 54.7991C87.9253 54.8312 87.7746 54.8495 87.624 54.8724L87.5602 54.8816C87.2179 54.9229 86.8665 54.9503 86.4877 54.9732C86.296 54.9824 86.1044 54.9869 85.9127 54.9869C82.4353 54.9869 79.1541 53.6125 76.6714 51.1107C74.198 48.6227 72.8426 44.7923 72.8517 41.3147V40.0501C72.8426 36.5633 74.198 32.7329 76.6714 30.2495C79.1541 27.7524 82.4353 26.3732 85.9127 26.3732C86.1044 26.3732 86.296 26.3732 86.4877 26.3871C86.8665 26.4054 87.2179 26.4374 87.5602 26.4787L87.624 26.4878C87.7746 26.5061 87.9253 26.529 88.1032 26.5612C88.1215 26.5612 88.1443 26.5611 88.2127 26.5795C92.5709 27.2988 96.4682 30.5382 98.1339 34.8313L98.2709 35.175H107.658L107.507 34.5107C107.398 34.0295 107.307 33.6034 107.197 33.2232L107.056 32.7741C106.892 32.2427 106.723 31.7752 106.545 31.3584C105.312 28.2014 103.332 25.3286 100.826 23.0605C100.699 22.9369 100.566 22.8224 100.416 22.6894L100.334 22.6207C100.092 22.4191 99.8544 22.2175 99.5988 22.0159C99.2931 21.7777 98.9782 21.544 98.6587 21.3148C98.3986 21.1316 98.1339 20.9575 97.8738 20.7879C97.7187 20.6872 97.559 20.5909 97.4174 20.5039C96.8151 20.1282 96.1396 19.7663 95.3046 19.3676C95.1311 19.276 94.9577 19.1981 94.8025 19.1385C94.4329 18.9689 94.0404 18.8086 93.5384 18.63C92.7489 18.3367 91.9321 18.0846 91.1289 17.8968C90.9555 17.851 90.7775 17.8097 90.6086 17.7777C89.9651 17.6402 89.3993 17.5394 88.8654 17.4707C88.6874 17.4478 88.5049 17.4249 88.3314 17.4112C87.8431 17.3562 87.4004 17.3196 86.9441 17.2966C86.8711 17.2966 86.8026 17.2966 86.6977 17.2874C86.4193 17.2783 86.1409 17.2737 85.8671 17.2737C79.6743 17.2737 73.9379 19.8029 69.7166 24.3939C65.7874 28.6688 64.0122 33.663 63.7931 40.0318V41.3514C64.0122 47.7201 65.7874 52.7143 69.7166 56.9892C73.9379 61.5803 79.6743 64.1095 85.8671 64.1095C86.1409 64.1095 86.4193 64.1049 86.6977 64.0957C86.7981 64.0912 86.8711 64.0866 86.9441 64.0866C87.3959 64.0636 87.8431 64.027 88.3314 63.972C88.5049 63.9582 88.6828 63.9354 88.8654 63.9125C89.3947 63.8437 89.9651 63.7429 90.6086 63.6054C90.7775 63.5734 90.9509 63.5321 91.1289 63.4863C91.9321 63.2985 92.7489 63.0465 93.5384 62.7532C94.045 62.5699 94.4329 62.4142 94.8025 62.2447C94.9577 62.1851 95.1311 62.1072 95.3046 62.0156C96.1396 61.6215 96.8151 61.2549 97.4174 60.8793C97.559 60.7922 97.7187 60.696 97.8738 60.5952C98.1339 60.4257 98.394 60.247 98.6587 60.0683C98.9782 59.8392 99.2931 59.6055 99.5988 59.3673C99.8544 59.1656 100.092 58.964 100.334 58.7625V58.7303Z" fill="#ffffff"/>
            <path d="M242.398 94.3909C242.388 90.9041 243.744 87.0737 246.217 84.5902C248.699 82.0932 251.981 80.714 255.458 80.714C255.65 80.714 255.842 80.714 256.033 80.7278C256.412 80.7461 256.764 80.7782 257.106 80.8194L257.17 80.8286C257.32 80.847 257.471 80.8698 257.649 80.9019C257.667 80.9019 257.69 80.9019 257.758 80.9202C262.117 81.6396 266.013 84.879 267.68 89.1722L267.816 89.5158H277.204L277.053 88.8514C276.944 88.3703 276.852 87.9442 276.743 87.564L276.602 87.1149C276.437 86.5834 276.268 86.1161 276.09 85.6991C274.858 82.5422 272.878 79.6694 270.372 77.4014C270.244 77.2777 270.112 77.1631 269.962 77.0302L269.879 76.9615C269.638 76.7599 269.4 76.5583 269.145 76.3567C268.838 76.1184 268.523 75.8848 268.204 75.6557C267.945 75.4724 267.68 75.2983 267.42 75.1288C267.264 75.028 267.104 74.9272 266.963 74.8447C266.361 74.469 265.686 74.107 264.851 73.7084C264.677 73.6168 264.503 73.5389 264.348 73.4793C263.978 73.3097 263.586 73.1494 263.085 72.9707C262.295 72.6775 261.478 72.43 260.674 72.2376C260.501 72.1918 260.323 72.1506 260.155 72.1185C259.516 71.981 258.945 71.8802 258.411 71.8115C258.233 71.7886 258.051 71.7657 257.877 71.7519C257.389 71.697 256.946 71.6603 256.489 71.6374C256.417 71.6374 256.348 71.6374 256.243 71.6282C255.965 71.6191 255.687 71.6145 255.408 71.6145C249.216 71.6145 243.479 74.1437 239.258 78.7346C235.329 83.0095 233.553 88.0038 233.335 94.3726V95.6922C233.553 102.061 235.329 107.055 239.258 111.33C243.479 115.921 249.216 118.45 255.408 118.45C255.682 118.45 255.96 118.446 256.243 118.436C256.344 118.432 256.417 118.428 256.489 118.428C256.942 118.404 257.389 118.368 257.877 118.318C258.051 118.304 258.229 118.281 258.411 118.253C258.94 118.185 259.511 118.084 260.155 117.946C260.323 117.915 260.496 117.873 260.674 117.827C261.478 117.639 262.295 117.388 263.085 117.094C263.59 116.911 263.978 116.755 264.348 116.585C264.503 116.526 264.677 116.448 264.851 116.356C265.681 115.963 266.361 115.596 266.963 115.22C267.104 115.133 267.264 115.037 267.42 114.936C267.68 114.766 267.939 114.588 268.204 114.409C268.523 114.18 268.838 113.946 269.145 113.708C269.4 113.506 269.638 113.305 269.879 113.103L269.962 113.035C270.112 112.902 270.244 112.787 270.372 112.664C272.878 110.396 274.858 107.522 276.09 104.366C276.264 103.949 276.432 103.481 276.602 102.95L276.743 102.505C276.852 102.125 276.944 101.699 277.053 101.218L277.204 100.554H267.816L267.68 100.902C266.009 105.19 262.117 108.43 257.758 109.154C257.69 109.167 257.671 109.167 257.649 109.172C257.471 109.204 257.32 109.223 257.17 109.245L257.106 109.255C256.764 109.295 256.412 109.323 256.033 109.346C255.842 109.355 255.65 109.36 255.458 109.36C251.981 109.36 248.699 107.985 246.217 105.484C243.744 102.996 242.388 99.1652 242.398 95.6876V94.423V94.3909Z" fill="#ffffff"/>
            <path d="M122.759 39.4865C122.759 32.2426 128.628 26.3549 135.842 26.3549C143.058 26.3549 148.927 32.2472 148.927 39.4865V63.0373H158.004V39.4865C158.004 27.2208 148.06 17.2462 135.842 17.2462C130.8 17.2462 126.013 18.969 122.759 21.9104V1.6449H113.682V63.0373H122.759V39.4865Z" fill="#ffffff"/>
            <path d="M224.189 18.3274H215.112V63.0418H224.189V18.3274Z" fill="#ffffff"/>
            <path d="M219.652 11.0239C222.679 11.0239 225.143 8.54975 225.143 5.51198C225.143 2.47421 222.679 0 219.652 0C216.627 0 214.162 2.47421 214.162 5.51198C214.162 8.54975 216.627 11.0239 219.652 11.0239Z" fill="#ffffff"/>
            <path d="M239.792 39.4864C239.792 32.2424 245.66 26.3548 252.876 26.3548C260.09 26.3548 265.959 32.2471 265.959 39.4864V63.0371H275.036V39.4864C275.027 27.2208 265.083 17.2461 252.87 17.2461C240.659 17.2461 230.714 27.2253 230.714 39.491V63.0418H239.792V39.4864Z" fill="#ffffff"/>
            <path d="M99.2292 94.9133V117.382H108.307V94.9133C108.307 87.6739 114.175 81.7817 121.39 81.7817H131.275V72.6683H121.385C109.168 72.6683 99.2292 82.6476 99.2292 94.9087V94.9133Z" fill="#ffffff"/>
            <path d="M291.885 95.1423V81.777H308.377V72.6637H291.885V56.2285H282.808V95.1423C282.808 107.408 292.748 117.382 304.964 117.382H310.531V108.269H304.968C297.753 108.269 291.885 102.382 291.885 95.1377V95.1423Z" fill="#ffffff"/>
            <path d="M352.056 71.6052C339.825 71.6052 329.872 81.5982 329.872 93.8776V96.2281C329.872 108.508 339.825 118.495 352.056 118.495C364.286 118.495 374.239 108.508 374.239 96.2281V93.8776C374.239 81.5982 364.29 71.6098 352.056 71.6098V71.6052ZM365.139 96.3609C365.139 103.6 359.27 109.493 352.056 109.493C344.84 109.493 338.972 103.605 338.972 96.3609V94.0105C338.972 86.7665 344.84 80.8789 352.056 80.8789C359.27 80.8789 365.139 86.7712 365.139 94.0105V96.3609Z" fill="#ffffff"/>
            <path d="M64.4228 74.2032C49.8285 67.3807 47.3551 63.6328 46.78 47.4817C46.6385 43.1427 45.2923 38.932 42.8964 35.3032C38.5519 28.7236 31.2548 24.7924 23.3781 24.7924C18.7826 24.7924 14.3194 26.1441 10.4769 28.7053C5.26528 32.1692 1.71482 37.4658 0.473533 43.6147C-0.767757 49.7635 0.450716 56.0269 3.90077 61.2594C6.29665 64.8882 9.63717 67.7702 13.5573 69.5892C28.1516 76.4116 30.625 80.1596 31.2001 96.3106C31.346 100.65 32.6878 104.86 35.0836 108.489C39.4281 115.069 46.7252 119 54.602 119C59.1975 119 63.6607 117.648 67.5078 115.087C72.7149 111.618 76.2652 106.327 77.5066 100.178C78.7478 94.0289 77.5294 87.7654 74.0793 82.533C71.6835 78.9041 68.3429 76.0221 64.4228 74.2032ZM28.6307 53.0487C27.07 54.6936 24.9662 55.6329 22.7072 55.6924C22.6342 55.6924 22.5612 55.6924 22.4881 55.6924C17.8607 55.6924 14.1414 52.0499 14.0273 47.4038C13.968 45.1312 14.7986 42.9732 16.3548 41.3283C17.9155 39.6834 20.0147 38.7441 22.2783 38.6845C22.3513 38.6845 22.4243 38.6845 22.4974 38.6845C27.1248 38.6845 30.8441 42.3271 30.9627 46.9731C31.0175 49.2457 30.1915 51.4038 28.6353 53.0487H28.6307ZM62.8165 97.1949C62.3691 99.4033 61.0914 101.305 59.2158 102.546C57.8375 103.463 56.2358 103.949 54.5883 103.949C51.7543 103.949 49.1303 102.533 47.5695 100.164C46.3328 98.2854 45.8993 96.0312 46.3465 93.8227C46.7937 91.6142 48.0716 89.7127 49.9471 88.471C51.3253 87.5547 52.9272 87.069 54.5746 87.069C57.4086 87.069 60.0327 88.4848 61.5934 90.8536C62.8301 92.7322 63.2637 94.9865 62.8165 97.1949Z" fill="#ffffff"/>
            <path d="M156.552 71.6054C144.336 71.6054 134.396 81.5847 134.396 93.8503V96.1963C134.396 108.462 144.336 118.436 156.552 118.436C161.302 118.418 165.976 116.865 169.709 114.061C172.772 111.779 175.213 108.742 176.769 105.268L177.074 104.581H166.587L166.487 104.7C165.776 105.539 164.958 106.286 164.055 106.932C161.846 108.494 159.249 109.319 156.552 109.319C156.379 109.319 156.21 109.314 156.036 109.305L155.836 109.296C155.648 109.282 155.466 109.273 155.284 109.255L154.973 109.227C149.715 108.585 145.28 104.696 143.915 99.5777H178.434L178.499 99.1057C178.64 98.0061 178.709 97.0851 178.709 96.1963V93.8412C178.709 81.5755 168.769 71.6008 156.552 71.6008V71.6054ZM143.915 90.4643C145.426 84.7737 150.638 80.7141 156.552 80.7141C162.466 80.7141 167.669 84.7737 169.189 90.4643H143.92H143.915Z" fill="#ffffff"/>
            <path d="M324.77 72.6729H315.692V117.388H324.77V72.6729Z" fill="#ffffff"/>
            <path d="M320.229 54.3455C317.203 54.3455 314.739 56.8196 314.739 59.8574C314.739 62.8952 317.203 65.3694 320.229 65.3694C323.254 65.3694 325.719 62.8952 325.719 59.8574C325.719 56.8196 323.254 54.3455 320.229 54.3455Z" fill="#ffffff"/>
            <path d="M401.834 71.5869C389.618 71.5869 379.678 81.5662 379.678 93.8318V117.382H388.756V93.8273C388.756 86.5832 394.624 80.6956 401.84 80.6956C409.054 80.6956 414.923 86.5879 414.923 93.8273V117.378H424V93.8273C423.99 81.5616 414.047 71.5869 401.834 71.5869Z" fill="#ffffff"/>
        </g>
        <defs fill="#000000">
            <clipPath id="clip0_19301_112984" fill="#000000">
                <rect width="424" height="119" fill="white"/>
            </clipPath>
        </defs>
    </svg>