<svg xmlns="http://www.w3.org/2000/svg" id="Layer_1" data-name="Layer 1" viewBox="0 0 315 90"><defs fill="#000000"><style>.cls-1{fill:#ffffff;}</style></defs><title>Evans_logo</title><path class="cls-1" d="M66.8,82.7a12.437,12.437,0,0,1-8.9-3.2,11.754,11.754,0,0,1-3.6-8.7c0-7,5.1-11.9,13.1-11.9a17.544,17.544,0,0,1,8.1,1.9v5.4a13.784,13.784,0,0,0-7.7-2.5c-4.7,0-7.5,2.7-7.5,7.1,0,4.2,2.7,7.1,7,7.1A14.421,14.421,0,0,0,75.6,75v5.4A17.774,17.774,0,0,1,66.8,82.7Z" fill="#000000"/><path class="cls-1" d="M102,71.8,92.9,59.2h6.9l5.1,7.5,5.2-7.5h6.8l-9.2,12.6V82.3H102Z" fill="#000000"/><path class="cls-1" d="M143.4,82.7a12.436,12.436,0,0,1-8.9-3.2,11.754,11.754,0,0,1-3.6-8.7c0-7,5.1-11.9,13.1-11.9a17.544,17.544,0,0,1,8.1,1.9v5.4a13.784,13.784,0,0,0-7.7-2.5c-4.7,0-7.5,2.7-7.5,7.1,0,4.2,2.7,7.1,7,7.1a14.421,14.421,0,0,0,8.3-2.9v5.4A17.5,17.5,0,0,1,143.4,82.7Z" fill="#000000"/><path class="cls-1" d="M172.5,59.2h5.8V77.8h9.9v4.5H172.5Z" fill="#000000"/><path class="cls-1" d="M207.7,59.2h15.4v4.2h-9.6v4.7h9.2v4.3h-9.2v5.5h9.9v4.3H207.7Z" fill="#000000"/><path class="cls-1" d="M243.5,75.3c2.9,1.8,5.3,2.9,7.9,2.9,2.3,0,3.4-.7,3.4-2.1s-1-1.8-3.1-2.5c-5.8-2-8.6-3.9-8.6-8.1,0-3.8,3.4-6.6,8.7-6.6a17.542,17.542,0,0,1,7.8,1.9v4.7a17.105,17.105,0,0,0-7.5-2.3c-2.2,0-3.4.7-3.4,1.9,0,.9,1,1.8,3.1,2.6a29.715,29.715,0,0,1,5.7,2.5,6.321,6.321,0,0,1,3,5.8c0,4.2-3.3,6.8-9.1,6.8a15.073,15.073,0,0,1-8-2.2V75.3Z" fill="#000000"/><polygon class="cls-1" points="191 11.2 208.9 11.2 228.8 28 234.6 11.2 247.7 11.2 239.8 34.1 220.4 34.1 202.1 17.5 196.3 34.1 183.1 34.1 188.9 17.2 186.2 11.2 191 11.2" fill="#000000"/><path class="cls-1" d="M162,11.2H134.4l2.7,6L113.8,34h14.3l5.5-3.8h26.3l2.7,3.8h14.5ZM140.8,24.7l10.7-7.9,5.5,7.9Z" fill="#000000"/><polyline class="cls-1" points="111.8 11.2 125.7 11.2 95.1 34.1 79.7 34.1 65.2 11.2 78.7 11.2 89 27.5 111.8 11.2" fill="#000000"/><polyline class="cls-1" points="11.5 9.3 56.9 9.3 61.5 15.6 27.1 15.6 25.8 19.6 54.7 19.6 53.1 24.3 24.1 24.3 22.8 28.1 57.4 28.1 55.3 34.2 7.6 34.2 14.2 15.2 11.5 9.3" fill="#000000"/><path class="cls-1" d="M284,10.2c18.2,0,24.9.9,23.3,7.1l-.1.6H294.6v-.6c0-1.7-8.7-1.8-12-1.8-6.5,0-13.2-.2-14,2.4-.8,2.4,5.3,1.3,12.4,1.3,22.5,0,24.2,3.3,22.9,7-2.5,7.1-8.2,8.6-29.1,8.6-11.1,0-27.4-.8-23.7-8.4H264l-.3,1c-.5,2.2,8.5,2,13.1,2,11,0,13.6-1.1,14.2-2.7.5-1.6-2.1-2-12.2-2-18.5,0-26.2-.5-23.8-6.8C257.6,11.1,268.5,10.2,284,10.2Z" fill="#000000"/></svg>