<svg id="Layer_1" data-name="Layer 1" xmlns="http://www.w3.org/2000/svg" viewBox="0 0 174 29.5"><title>flanlogo-black</title><polygon points="5.9 7.1 5.9 12.7 15.9 12.7 15.9 16.8 5.9 16.8 5.9 27 1 27 1 3 17.4 3 17.4 7.1 5.9 7.1"/><polygon points="20.4 26.9 20.4 3 25.2 3 25.2 22.9 37.2 22.9 37.2 27 20.4 27 20.4 26.9"/><path d="M54,3H49L39.6,27h5.2l2.1-5.6h9.5L58.6,27h5.2ZM48.4,17.5l3.2-8.9,3.2,8.9Z"/><polygon points="70.9 11.3 70.9 27 66.1 27 66.1 3 71.1 3 80.9 19 80.9 3 85.6 3 85.6 27 80.5 27 70.9 11.3"/><polygon points="94.3 11.3 94.3 27 89.6 27 89.6 3 94.5 3 104.3 19 104.3 3 109.1 3 109.1 27 104 27 94.3 11.3"/><polygon points="131.2 23 131.2 27 113 27 113 3 130.7 3 130.7 7.1 117.8 7.1 117.8 12.3 129.8 12.3 129.8 16.4 117.8 16.4 117.8 23 131.2 23"/><polygon points="135.2 26.9 135.2 3 140 3 140 22.9 152.1 22.9 152.1 27 135.2 27 135.2 26.9"/><path d="M166.1,7.4a5.1,5.1,0,0,0-3-.8,5.389,5.389,0,0,0-3.3.9A1.9,1.9,0,0,0,159,9a1.622,1.622,0,0,0,.7,1.4c.6.5,2.1,1,4.5,1.6a23.583,23.583,0,0,1,5.3,1.7,6.708,6.708,0,0,1,2.6,2.4,7.371,7.371,0,0,1,.9,3.8,7.3,7.3,0,0,1-1.1,3.8,6.321,6.321,0,0,1-3.2,2.6,13.108,13.108,0,0,1-5.2.9c-3,0-5.4-.7-7-2.1a9.065,9.065,0,0,1-2.9-6.1l4.7-.5a5.251,5.251,0,0,0,1.7,3.4,5.424,5.424,0,0,0,3.5,1.1,5.219,5.219,0,0,0,3.5-1,2.94,2.94,0,0,0,1.2-2.3,2.168,2.168,0,0,0-.5-1.4,3.8,3.8,0,0,0-1.7-1c-.6-.2-1.8-.5-3.8-1a13.04,13.04,0,0,1-5.5-2.3,6.442,6.442,0,0,1-2.2-4.9,6.111,6.111,0,0,1,1-3.4,7.647,7.647,0,0,1,2.9-2.4,12.8,12.8,0,0,1,4.7-.8c3,0,5.3.6,6.8,2a6.99,6.99,0,0,1,2.4,5.3l-4.9.2a4.047,4.047,0,0,0-1.3-2.6Z"/></svg>