<svg xmlns="http://www.w3.org/2000/svg" width="753" height="133" viewBox="0 0 753 133" fill="none">
<path d="M652.25 124.097V126.977H641.253H640.401C638.78 126.931 636.971 126.657 635.121 126.291C632.44 125.743 630.008 124.874 628.095 123.892L627.887 123.8C621.755 120.486 613.918 113.972 610.821 101.698C605.354 80.1679 597.289 70.8883 587.269 70.8883H573.487V110.932C573.487 117.355 578.206 122.703 583.86 123.8V127H541.413V123.252C544.926 121.743 551.827 117.903 551.827 110.932V19.0735C551.827 12.3995 547.212 6.84549 541.309 6.09124V3.00567H587.872C587.872 3.00567 593.983 3.00567 602.34 3.89706C623.751 6.73121 635.121 15.1423 635.121 36.787C635.121 54.8662 624.644 64.8086 606.04 68.5112C606.04 68.5112 616.787 68.3741 624.042 78.2479C624.042 78.2479 629.675 83.0477 637.761 111.458C637.761 111.458 641.295 124.097 652.208 124.097H652.25ZM605.105 60.3516C610.197 54.3862 610.8 44.6038 610.8 34.3642C610.8 25.6789 609.407 17.9307 605.312 12.8566C601.217 7.78259 594.794 6.09124 587.332 6.09124H573.487V67.597H586.957C594.586 67.597 599.991 66.3171 605.084 60.3516H605.105ZM741.593 74.2938C738.62 69.3341 734.879 65.0828 730.368 61.5173C725.878 57.9517 721.035 54.9119 715.859 52.3748C710.683 49.8378 705.839 47.3236 701.349 44.8552C696.859 42.3867 693.117 39.6211 690.124 36.6041C687.152 33.5871 685.655 29.9073 685.655 25.5646C685.655 19.8963 687.297 15.6451 690.602 12.7881C693.907 9.95392 697.898 8.53685 702.596 8.53685C706.359 8.53685 710.08 9.38252 713.738 11.0739C717.397 12.7652 720.764 15.0508 723.862 17.9536C726.938 20.8563 729.661 24.239 732.01 28.1017C734.359 31.9643 736.064 36.147 737.103 40.6039H740.824V7.37118C739.223 7.50832 737.54 7.57689 735.814 7.53118C733.029 7.46261 730.41 7.16548 728.04 6.66264L726.876 6.43408C724.818 5.93125 722.614 5.35985 720.307 4.71988C717.688 3.98848 714.923 3.37137 711.992 2.82282C709.061 2.27427 706.026 2 702.887 2C690.748 2 681.705 4.55988 675.739 9.7025C669.773 14.8451 666.801 23.0733 666.801 34.4328C666.801 40.9468 668.318 46.4551 671.353 50.9121C674.388 55.3918 678.172 59.2545 682.724 62.5001C687.276 65.7685 692.182 68.6484 697.462 71.1854C702.742 73.7224 707.668 76.3509 712.2 79.0708C716.752 81.7906 720.536 84.8076 723.571 88.1218C726.606 91.4359 728.123 95.5729 728.123 100.533C728.123 104.167 727.583 107.138 726.481 109.492C725.379 111.846 723.82 113.721 721.783 115.115C719.746 116.509 717.314 117.492 714.487 118.109C711.66 118.703 708.521 119.023 705.07 119.023C701.1 119.023 697.067 117.995 692.993 115.938C688.918 113.881 685.114 111.138 681.622 107.687C678.109 104.235 675.053 100.35 672.434 96.0071C669.815 91.6645 667.944 87.2533 666.78 82.7735H663.329C664.784 89.7903 668.776 117.309 669.607 124.074C669.607 124.074 678.192 122.223 683.41 122.634C685.592 122.794 687.671 123.114 689.604 123.549L690.373 123.686C691.267 123.892 692.161 124.12 693.055 124.349C695.612 125.012 698.21 125.606 700.829 126.154C703.449 126.703 706.068 126.977 708.666 126.977C714.32 126.977 719.434 126.154 724.049 124.532C728.643 122.909 732.571 120.6 735.814 117.652C739.057 114.703 741.572 111.092 743.339 106.864C745.127 102.635 746 97.927 746 92.7387C746 85.3791 744.503 79.2079 741.531 74.271L741.593 74.2938ZM209.088 124.074V126.954H198.092H197.24C195.618 126.909 193.81 126.634 191.96 126.269C189.278 125.72 186.846 124.852 184.934 123.869L184.726 123.777C178.594 120.463 170.757 113.949 167.66 101.675C162.193 80.145 154.127 70.8654 144.108 70.8654H130.326V110.909C130.326 117.332 135.044 122.68 140.699 123.777V126.977H98.2512V123.229C101.764 121.72 108.666 117.88 108.666 110.909V19.0735C108.666 12.3995 104.051 6.84549 98.1473 6.09124V3.00567H144.711C144.711 3.00567 150.822 3.00567 159.178 3.89706C180.589 6.73121 191.96 15.1423 191.96 36.787C191.96 54.8662 181.483 64.8086 162.879 68.5112C162.879 68.5112 173.625 68.3741 180.88 78.2479C180.88 78.2479 186.514 83.0477 194.6 111.458C194.6 111.458 198.134 124.097 209.047 124.097L209.088 124.074ZM161.943 60.3288C167.036 54.3633 167.639 44.5809 167.639 34.3414C167.639 25.6561 166.246 17.9078 162.151 12.8338C158.056 7.75974 151.633 6.06839 144.17 6.06839H130.326V67.5742H143.796C151.425 67.5742 156.829 66.2942 161.922 60.3288H161.943ZM412.803 61.5173C408.313 57.9517 403.469 54.9119 398.293 52.3748C393.117 49.8378 388.274 47.3236 383.784 44.8552C379.294 42.3867 375.552 39.6211 372.559 36.6041C369.586 33.5871 368.089 29.9073 368.089 25.5646C368.089 19.8963 369.732 15.6451 373.037 12.7881C376.342 9.95392 380.333 8.53685 385.031 8.53685C388.793 8.53685 392.514 9.38252 396.173 11.0739C399.831 12.7652 403.199 15.0508 406.296 17.9536C409.373 20.8563 412.096 24.239 414.445 28.1017C416.794 31.9643 418.498 36.147 419.538 40.6039H423.259V7.37118C421.658 7.50832 419.974 7.57689 418.249 7.53118C415.463 7.46261 412.844 7.16548 410.474 6.66264L409.31 6.43408C407.252 5.93125 405.049 5.35985 402.742 4.71988C400.122 3.98848 397.358 3.37137 394.427 2.82282C391.496 2.27427 388.461 2 385.322 2C373.182 2 364.14 4.55988 358.174 9.7025C352.208 14.8451 349.235 23.0733 349.235 34.4328C349.235 40.9468 350.753 46.4551 353.788 50.9121C356.823 55.3918 360.606 59.2545 365.158 62.5001C369.711 65.7685 374.617 68.6484 379.897 71.1854C385.176 73.7224 390.103 76.3509 394.635 79.0708C399.187 81.7906 402.97 84.8076 406.005 88.1218C409.04 91.4359 410.558 95.5729 410.558 100.533C410.558 104.167 410.017 107.138 408.915 109.492C407.814 111.846 406.255 113.721 404.217 115.115C402.18 116.509 399.748 117.492 396.921 118.109C394.094 118.703 390.955 119.023 387.505 119.023C383.534 119.023 379.502 117.995 375.427 115.938C371.353 113.881 367.549 111.138 364.057 107.687C360.544 104.235 357.488 100.35 354.869 96.0071C352.25 91.6645 350.379 87.2533 349.215 82.7735H345.764C347.219 89.7903 351.21 117.309 352.042 124.074C352.042 124.074 360.627 122.223 365.844 122.634C368.027 122.794 370.106 123.114 372.039 123.549L372.808 123.686C373.702 123.892 374.596 124.12 375.49 124.349C378.046 125.012 380.645 125.606 383.264 126.154C385.883 126.703 388.502 126.977 391.101 126.977C396.755 126.977 401.868 126.154 406.483 124.532C411.077 122.909 415.006 120.6 418.249 117.652C421.492 114.703 424.007 111.092 425.774 106.864C427.561 102.635 428.435 97.927 428.435 92.7387C428.435 85.3791 426.938 79.2079 423.965 74.271C420.993 69.3112 417.251 65.06 412.74 61.4944L412.803 61.5173ZM5 2.91424V4.17133C9.96813 5.70269 13.6682 11.1882 13.6682 17.6564L13.5851 110.955C13.5851 116.852 8.61697 120.486 5 122.36V126.909H45.3479V123.732C39.7354 122.657 35.0582 117.332 35.0582 110.932L35.1414 66.2713H61.063C66.4053 66.2713 70.9369 70.7511 72.2049 76.7623H73.5976V49.655H72.2049C70.9369 55.6661 66.4053 60.1459 61.063 60.1459H35.1414V8.85683L65.844 8.94825C71.1863 8.94825 75.7179 13.428 76.9859 19.4392H78.3787L76.882 2.89139H5V2.91424ZM522.434 19.2792H523.952L522.309 2.82282H443.422V4.03419C448.868 5.56555 452.922 11.0282 452.922 17.4964L452.818 112.441C452.818 118.818 448.744 124.189 443.318 125.606V126.909H523.328L523.453 110.315H521.935C520.542 116.326 515.574 120.783 509.712 120.783H476.515V66.0656H504.453C510.315 66.0656 515.283 70.5454 516.676 76.5337H518.193V49.4493H516.676C515.283 55.4604 510.315 59.9174 504.453 59.9174H476.494V8.71969L510.17 8.81112C516.032 8.81112 521 13.2909 522.392 19.2792H522.434ZM298.972 107.618L290.47 80.9678H250.517L241.205 109.675C239.521 114.909 242.015 120.715 246.775 122.589C246.775 122.589 249.166 123.32 250.164 123.32V123.389C250.164 123.389 250.164 126.931 250.143 126.931H222.247V122.954L223.889 122.886C228.441 122.612 232.661 119.435 234.345 114.452L271.325 2.91424H288.163L325.455 113.995C327.222 119.412 329.321 122.817 334.269 122.68V126.954H293.547V123.229C293.754 123.114 293.921 122.954 294.108 122.817C298.598 119.663 300.739 113.401 298.951 107.618H298.972ZM288.89 75.9852L270.66 18.8221L252.118 75.9852H288.89Z" fill="#ffffff"/>
</svg>