<svg xmlns="http://www.w3.org/2000/svg" width="93" height="27" viewBox="0 0 93 27" fill="none">
        <g clip-path="url(#clip0_951_10194)">
            <path d="M23.8886 2.49293V5.65257C23.8886 6.38712 23.2917 6.98554 22.5556 6.98554C22.3437 6.98554 22.1447 6.93617 21.9677 6.8474C19.4499 5.61168 16.9171 4.9589 14.4012 4.9589C9.5416 4.9589 5.8768 8.59228 5.8768 13.4135C5.8768 18.2347 9.57202 21.7938 14.8625 21.7938C16.5022 21.7938 18.0032 21.4383 19.3117 21.0423V15.9817H15.0999C14.3628 15.9817 13.7664 15.3848 13.7664 14.6482V11.2632H23.0523C23.7869 11.2632 24.3853 11.8586 24.3853 12.5947V24.3231L23.9056 24.5326C20.5888 25.9932 17.8247 26.5881 14.3663 26.5881C6.4433 26.5876 0.697021 21.0927 0.697021 13.5197C0.697021 5.94679 6.62034 0.168091 14.473 0.168091C17.4526 0.168091 19.5386 0.662781 23.3989 2.28449L23.8881 2.49293H23.8886Z" fill="#ffffff"/>
            <path d="M38.729 0.319702H36.2575C35.714 0.319702 35.2457 0.651823 35.0462 1.12158L25.9912 23.4629C25.707 24.1272 26.0142 24.8991 26.6819 25.1839L30.4998 26.4365L32.9189 19.7004H41.1795L43.5986 26.4365L47.4185 25.1839C48.0862 24.8996 48.3949 24.1272 48.1082 23.4629L38.729 0.319702ZM34.6368 15.0721L37.0873 8.33847L39.5384 15.0721H34.6368Z" fill="#ffffff"/>
            <path d="M54.3266 0.319702H51.0278C50.3032 0.319702 49.7153 0.906648 49.7153 1.63173V23.8374C49.7138 24.3496 50.013 24.8388 50.5137 25.0517L54.7624 26.4365V10.9251C55.6416 12.3942 58.9877 17.8109 59.7273 18.902C60.0335 19.3533 60.589 19.6894 61.1296 19.6894H62.1528C62.6924 19.6894 63.2714 19.3688 63.5551 18.902C64.2438 17.7775 67.6393 12.3942 68.5185 10.9251V26.4365L72.7682 25.0517C73.2664 24.8388 73.5666 24.3496 73.5631 23.8374V0.319702H69.6654C69.3024 0.319702 68.8735 0.503715 68.6766 0.788959C68.4917 1.05625 66.1461 4.81297 61.6397 12.0591L54.3266 0.319702Z" fill="#ffffff"/>
            <path d="M75.0636 1.62922C75.0636 0.933063 75.669 0.329163 76.41 0.329163H91.9818V3.74711C91.9818 4.49014 91.3814 5.09005 90.6354 5.09005H80.1831V10.8937H91.6243V14.3086C91.6243 15.0477 91.0204 15.6506 90.2793 15.6506H80.1831V21.6662H92.303V25.0816C92.303 25.8236 91.701 26.427 90.96 26.427H76.4095C75.6685 26.427 75.0631 25.8236 75.0631 25.0372V1.62922H75.0636Z" fill="#ffffff"/>
        </g>
    </svg>