<svg width="31" height="31" viewBox="0 0 31 31" fill="none" xmlns="http://www.w3.org/2000/svg">
<path d="M15.5 30.8854C24.0604 30.8854 31 23.9715 31 15.4427C31 6.91394 24.0604 0 15.5 0C6.93959 0 0 6.91394 0 15.4427C0 23.9715 6.93959 30.8854 15.5 30.8854Z" fill="url(#paint0_linear_4268_118000)"/>
<path fill-rule="evenodd" clip-rule="evenodd" d="M11.3467 6.5271H19.6534C22.3218 6.5271 24.5168 8.71403 24.5168 11.3726V19.6057C24.5168 22.2642 22.3218 24.4512 19.6534 24.4512H11.3467C8.6783 24.4512 6.48325 22.2642 6.48325 19.6057V11.3726C6.48325 8.71403 8.6783 6.5271 11.3467 6.5271ZM20.342 9.65739C20.9015 9.65739 21.3749 10.1291 21.3749 10.6865C21.3749 11.244 20.9015 11.7157 20.342 11.7157C19.7395 11.7157 19.309 11.244 19.309 10.6865C19.309 10.1291 19.7394 9.65739 20.342 9.65739ZM15.4785 10.6007H15.5215C18.1899 10.6007 20.428 12.8305 20.428 15.4891C20.428 18.1906 18.1899 20.3775 15.5215 20.3775H15.4785C12.8101 20.3775 10.615 18.1906 10.615 15.4891C10.615 12.8305 12.8101 10.6007 15.4785 10.6007ZM15.4785 12.2731H15.5215C17.2861 12.2731 18.7494 13.731 18.7494 15.4891C18.7494 17.2901 17.2861 18.748 15.5215 18.748H15.4785C13.7139 18.748 12.2506 17.2901 12.2506 15.4891C12.2506 13.731 13.7139 12.2731 15.4785 12.2731ZM11.3897 8.07082H19.6103C21.461 8.07082 22.9675 9.57168 22.9675 11.4155V19.5628C22.9675 21.4067 21.461 22.9075 19.6103 22.9075H11.3897C9.53904 22.9075 8.03269 21.4068 8.03269 19.5628V11.4155C8.03269 9.57168 9.53904 8.07082 11.3897 8.07082Z" fill="white"/>
<defs>
<linearGradient id="paint0_linear_4268_118000" x1="3.98122" y1="5.10941" x2="26.9425" y2="25.8605" gradientUnits="userSpaceOnUse">
<stop stop-color="#0496FB"/>
<stop offset="0.138" stop-color="#3F72FF"/>
<stop offset="0.279" stop-color="#784AFF"/>
<stop offset="0.421" stop-color="#B038EE"/>
<stop offset="0.566" stop-color="#CD40BE"/>
<stop offset="0.72" stop-color="#FF415A"/>
<stop offset="0.865" stop-color="#F7941E"/>
<stop offset="0.981" stop-color="#FFE800"/>
</linearGradient>
</defs>
</svg>
