<svg xmlns="http://www.w3.org/2000/svg" width="42" height="42" viewBox="0 0 42 42" fill="none">
<path fill-rule="evenodd" clip-rule="evenodd" d="M20.9998 31.6C18.1998 31.6 17.7998 31.6 16.5998 31.4999C15.6998 31.4999 14.8998 31.2999 13.9998 30.9999C13.2998 30.6999 12.6998 30.2999 12.0998 29.7999C11.5998 29.2999 11.0998 28.5999 10.8998 27.9C10.5998 27.1 10.3998 26.2 10.3998 25.2999C10.2998 24.1999 10.2998 23.7999 10.2998 20.9C10.2998 18 10.2998 17.7 10.3998 16.5C10.3998 15.6 10.5998 14.8 10.8998 13.9C11.1998 13.2 11.5998 12.6 12.0998 12C12.5998 11.5 13.2998 11 13.9998 10.8C14.7998 10.5 15.6998 10.3 16.5998 10.3C17.6998 10.2 18.0998 10.2 20.9998 10.2C23.7998 10.2 24.1998 10.2 25.3998 10.3C26.2998 10.3 27.1998 10.5 27.9998 10.8C28.6998 11.1 29.2998 11.5 29.8998 12C30.3998 12.5 30.8998 13.2 31.0998 13.9C31.3998 14.7 31.5998 15.6 31.5998 16.5C31.6998 17.6 31.6998 18 31.6998 20.9C31.6998 23.7 31.6998 24.1 31.5998 25.2999C31.5998 26.1999 31.3998 26.9999 31.0998 27.9C30.5998 29.2999 29.3998 30.4 27.9998 31C27.1998 31.3 26.2998 31.5 25.3998 31.5C24.1998 31.6 23.7998 31.6 20.9998 31.6H20.9998ZM20.9998 15.6C17.9998 15.6 15.5998 17.9999 15.5998 20.9999C15.5998 23.9999 17.9998 26.3999 20.9998 26.3999C23.9998 26.3999 26.3998 23.9999 26.3998 20.9999C26.3998 18.1 23.9998 15.6 20.9998 15.6ZM26.5998 14.1C25.8998 14.1 25.2998 14.7 25.2998 15.4C25.2998 16.1 25.8998 16.7 26.5998 16.7C27.2998 16.7 27.8998 16.0999 27.8998 15.4C27.8998 14.7 27.2998 14.1 26.5998 14.1ZM20.9998 24.6C19.0998 24.6 17.4998 22.9999 17.4998 21.1C17.4998 19.2 19.0998 17.6 20.9998 17.6C22.8998 17.6 24.4998 19.2 24.4998 21.1C24.4998 23 22.8998 24.6 20.9998 24.6Z" fill="#000000"/>
</svg>