<svg width="31" height="31" viewBox="0 0 31 31" fill="none" xmlns="http://www.w3.org/2000/svg">
<path d="M31 15.5C31 24.0598 24.061 30.9988 15.5012 30.9988C6.94147 30.9988 0.00242264 24.0598 0.00242264 15.5C0.00242264 6.94027 6.94147 0.0012207 15.5012 0.0012207C24.061 0.0012207 31 6.94027 31 15.5Z" fill="white"/>
<path d="M15.4999 0C6.93953 0 0 6.93971 0 15.4999C0 22.0666 4.08541 27.6802 9.85142 29.9386C9.7158 28.7122 9.59343 26.8262 9.90525 25.4873C10.1868 24.2777 11.7227 17.7828 11.7227 17.7828C11.7227 17.7828 11.259 16.8544 11.259 15.4816C11.259 13.3263 12.5082 11.7173 14.0637 11.7173C15.386 11.7173 16.0249 12.7102 16.0249 13.9007C16.0249 15.2307 15.1782 17.2188 14.7411 19.0614C14.376 20.6043 15.5149 21.8624 17.0364 21.8624C19.7915 21.8624 21.9091 18.9576 21.9091 14.7645C21.9091 11.0534 19.2423 8.4586 15.4346 8.4586C11.0243 8.4586 8.43559 11.7665 8.43559 15.1851C8.43559 16.5173 8.94872 17.9458 9.58913 18.7223C9.71567 18.8758 9.73432 19.0104 9.69666 19.1669C9.5789 19.6565 9.31752 20.7093 9.26611 20.9247C9.19848 21.2084 9.04142 21.2686 8.74777 21.132C6.81184 20.2308 5.60157 17.4007 5.60157 15.1273C5.60157 10.2378 9.15398 5.74767 15.843 5.74767C21.2199 5.74767 25.3986 9.57902 25.3986 14.6995C25.3986 20.0415 22.0304 24.3406 17.3554 24.3406C15.7848 24.3406 14.3082 23.5246 13.8028 22.5608C13.8028 22.5608 13.0255 25.5203 12.8371 26.2455C12.487 27.5919 11.5425 29.2794 10.9106 30.3088C12.361 30.7579 13.9022 31 15.4999 31C24.0606 31 31.0001 24.0606 31.0001 15.4999C31.0001 6.93971 24.0606 0 15.4999 0Z" fill="#E71D27"/>
</svg>
