<svg xmlns="http://www.w3.org/2000/svg" width="42" height="42" viewBox="0 0 42 42" fill="none">
<path d="M21.6902 9C16.8163 9 12 12.2475 12 17.5061C12 20.8496 13.8797 22.7503 15.0202 22.7503C15.4906 22.7503 15.7632 21.439 15.7632 21.0685C15.7632 20.6269 14.6362 19.6862 14.6362 17.8479C14.6362 14.0292 17.543 11.3231 21.3053 11.3231C24.5405 11.3231 26.9347 13.1604 26.9347 16.5375C26.9347 19.0593 25.9219 23.789 22.6435 23.789C21.4618 23.789 20.4509 22.9346 20.4509 21.7097C20.4509 19.9146 21.6 18.1762 21.6 16.3235C21.6 13.1787 17.2445 13.7489 17.2445 17.5493C17.2445 18.347 17.3443 19.2302 17.7005 19.9569C17.0448 22.7791 15.84 27.2746 15.84 30.1823C15.84 31.0798 15.9686 31.963 16.0541 32.8615C16.2154 33.0419 16.1347 33.0237 16.3814 32.9335C18.7757 29.6562 18.5539 28.7212 19.6368 24.4322C20.2224 25.5438 21.7325 26.1418 22.9296 26.1418C27.9744 26.1418 30.24 21.2269 30.24 16.7938C30.24 12.0776 26.1648 9 21.6902 9Z" fill="#000000"/>
</svg>