<svg xmlns="http://www.w3.org/2000/svg" viewBox="0 0 98 44" fill="none"><path fill="#0000ED" d="M98.627 21.192V.5H.4v20.692h98.227Z"></path><path fill="#ED0000" d="M98.627 44.5V23.808H.4V44.5h98.227Z"></path><path fill="#fff" d="M28.524 3.473h-5.589l-2.557 14.805H24.6l.773-4.637h2.2c5.292 0 6.719-3.211 6.719-5.887 0-3.508-2.854-4.281-5.768-4.281Zm-.832 7.135h-1.724l.654-4.103h1.843c.832 0 1.843.357 1.843 1.784 0 1.13-.654 2.32-2.616 2.32Zm15.935-7.492c-5.59 0-8.146 4.4-8.146 8.8 0 4.34 2.616 6.72 7.076 6.72 5.589 0 8.146-4.4 8.146-8.741-.06-4.34-2.617-6.779-7.076-6.779Zm-1.01 12.13c-1.487 0-2.736-.832-2.736-3.627 0-2.557.951-5.173 3.687-5.173 1.486 0 2.735.832 2.735 3.627 0 2.557-1.011 5.173-3.687 5.173Zm23.188-7.73c0-3.389-2.794-4.043-5.53-4.043H54.33l-2.557 14.805h4.222l.95-5.41h1.785l2.14 5.41h4.34l-2.615-6.005c2.259-.713 3.21-2.735 3.21-4.757Zm-6.48 2.498h-1.903l.654-3.628h1.902c.833 0 1.784.298 1.784 1.606 0 .832-.416 2.022-2.438 2.022ZM79.6 6.862h-4.043l-1.962 11.416h-4.222l1.962-11.416h-4.043l.535-3.389h12.368l-.595 3.39Zm.119 9.99 1.486-2.795a7.966 7.966 0 0 0 4.282 1.248c1.01 0 2.378-.178 2.378-1.367 0-.654-.416-1.011-1.487-1.249l-1.427-.357c-2.14-.535-3.746-1.664-3.746-3.983 0-1.844.892-3.211 2.14-4.103 1.25-.892 2.855-1.07 3.985-1.07 1.665 0 3.805.475 5.292 1.665l-1.487 2.794c-1.605-1.07-2.913-1.249-4.043-1.249-.951 0-1.962.238-1.962 1.25 0 .594.357.891 1.605 1.248l1.725.475c2.437.655 3.627 2.082 3.627 3.925 0 3.21-2.557 5.351-6.541 5.351-1.903-.06-4.162-.416-5.827-1.784Zm-73.314 0 1.487-2.795a7.966 7.966 0 0 0 4.281 1.248c1.01 0 2.378-.178 2.378-1.367 0-.654-.416-1.011-1.486-1.249l-1.427-.357c-2.14-.535-3.746-1.664-3.746-3.983 0-1.844.892-3.211 2.14-4.103 1.19-.892 2.854-1.07 3.984-1.07 1.665 0 3.806.475 5.292 1.665l-1.486 2.794c-1.606-1.07-2.914-1.249-4.044-1.249-.951 0-1.962.238-1.962 1.25 0 .594.357.891 1.606 1.248l1.724.475c2.438.655 3.627 2.082 3.627 3.925 0 3.21-2.557 5.351-6.54 5.351-1.903-.06-4.163-.416-5.828-1.784Zm13.2 11c-1.308-.714-3.21-1.13-5.351-1.13H9.438L6.822 41.527h6.66c6.123 0 8.918-4.043 8.918-8.265 0-2.497-.951-4.34-2.795-5.41ZM13.54 38.434h-1.724l1.487-8.622h1.367c1.784 0 3.211.892 3.211 3.509 0 2.2-.892 5.113-4.34 5.113Zm10.228 3.092 2.616-14.805h4.4l-2.616 14.805h-4.4Zm38.648-6.54c0-3.687 2.081-8.622 8.146-8.622 3.687 0 5.887 1.665 6.54 4.28l-3.864 1.25c-.416-1.665-1.368-2.141-2.795-2.141-2.794 0-3.567 3.032-3.567 5.173 0 2.081.832 3.568 2.794 3.568 1.725 0 2.795-.892 3.27-2.141l3.509 1.427c-.952 2.081-3.092 4.103-6.957 4.103-4.519 0-7.076-2.379-7.076-6.898Zm29.195-4.817h-4.4l-2.022 11.357h-4.34l2.021-11.416h-4.4l.595-3.39h13.14l-.594 3.45Zm-45.487.595c0-3.39-2.794-4.043-5.53-4.043h-6.243l-2.616 14.805h4.34l.952-5.41h1.784l2.14 5.41h4.579l-2.617-6.005c2.26-.773 3.211-2.676 3.211-4.757Zm-6.66 2.557h-1.842l.654-3.627h1.843c.832 0 1.784.297 1.784 1.605 0 .832-.476 2.022-2.438 2.022Zm14.687-3.39-.475 2.498h5.53l-.536 3.151h-5.53l-.475 2.735h7.492l-.535 3.152H47.73l2.616-14.806H61.94l-.536 3.211-7.254.06Z"></path></svg>