<svg width="754" height="171" viewBox="0 0 754 171" fill="none" xmlns="http://www.w3.org/2000/svg">
<path d="M0 148.53L11.5364 116.43C27.6891 128.182 49.722 137.199 79.5176 137.199C101.129 137.199 115.4 132.583 115.4 123.772C115.4 116.637 105.961 115.803 88.5441 113.49C40.4983 107.404 4.82251 100.484 4.82251 65.2293C4.82251 34.6002 31.2567 18.4385 75.1164 18.4385C102.187 18.4385 129.876 25.3675 145.616 34.385L138.275 67.9543C124.847 59.7704 101.56 52.0078 75.3315 52.0078C53.7199 52.0078 44.281 56.418 44.281 62.9167C44.281 71.1006 59.1788 72.7768 79.7417 75.2957C118.349 80.1182 154.858 85.1558 154.858 120.616C154.858 152.088 125.484 170.347 80.3692 170.347C51.2011 170.347 22.2481 162.791 0.00896569 148.53H0Z" fill="#00003C"/>
<path d="M179.132 126.282V89.145L160.039 90.6151L157.735 60.1921L179.141 58.5158V27.044L215.435 20.7515V55.5847L259.286 52.2322L261.59 82.6553L215.426 86.2228V123.154C215.426 131.965 218.788 138.473 229.275 138.473C239.763 138.473 249.632 131.337 257.18 124.624L271.029 151.479C254.661 165.113 240.399 170.366 224.453 170.366C200.537 170.366 179.132 159.457 179.132 126.3V126.282Z" fill="#00003C"/>
<path d="M404.383 167.829H368.294V153.146C359.904 163.849 346.889 170.348 329.266 170.348C300.519 170.348 280.378 153.352 280.378 115.794V52.4292H316.466V109.502C316.466 127.546 326.326 136.778 341.43 136.778C357.798 136.778 368.286 126.076 368.286 106.149V52.4382H404.374V167.838L404.383 167.829Z" fill="#00003C"/>
<path d="M417.281 110.551C417.281 75.3051 442.039 50.1259 477.079 50.1259C493.025 50.1259 506.453 55.791 515.892 65.6511V17.8115L552.186 9.42139V167.838H515.892V155.038C506.453 164.692 493.016 170.357 477.079 170.357C442.039 170.357 417.281 145.599 417.281 110.56V110.551ZM485.057 138.455C503.943 138.455 515.901 126.703 515.901 110.336C515.901 93.9677 503.943 82.01 485.057 82.01C466.17 82.01 454.212 93.7615 454.212 110.336C454.212 126.91 466.17 138.455 485.057 138.455Z" fill="#00003C"/>
<path d="M591.95 0.815918C604.956 0.815918 614.816 9.42114 614.816 20.7513C614.816 32.0816 604.956 40.6868 591.95 40.6868C578.943 40.6868 569.289 32.0816 569.289 20.7513C569.289 9.42114 579.149 0.815918 591.95 0.815918ZM573.905 52.4293H609.994V167.829H573.905V52.4293Z" fill="#00003C"/>
<path d="M623.547 110.55C623.547 75.0894 650.617 49.9102 689.009 49.9102C727.401 49.9102 753.002 74.8743 753.002 110.335C753.002 145.796 726.567 170.347 689.009 170.347C651.451 170.347 623.547 145.796 623.547 110.55ZM688.382 137.827C705.171 137.827 717.128 126.497 717.128 110.344C717.128 94.1912 705.171 82.4397 688.382 82.4397C671.593 82.4397 660.477 93.976 660.477 110.344C660.477 126.712 672.014 137.827 688.382 137.827Z" fill="#00003C"/>
</svg>
