<svg xmlns="http://www.w3.org/2000/svg" width="42" height="42" viewBox="0 0 42 42" fill="none">
<path d="M27.6607 12.76C26.7452 11.7195 26.2407 10.3832 26.2411 9H22.1027V25.5333C22.0708 26.428 21.6913 27.2755 21.0443 27.8973C20.3973 28.519 19.5332 28.8665 18.6339 28.8667C16.7321 28.8667 15.1518 27.32 15.1518 25.4C15.1518 23.1067 17.375 21.3867 19.6652 22.0933V17.88C15.0446 17.2667 11 20.84 11 25.4C11 29.84 14.6964 33 18.6205 33C22.8259 33 26.2411 29.6 26.2411 25.4V17.0133C27.9192 18.2131 29.934 18.8569 32 18.8533V14.7333C32 14.7333 29.4821 14.8533 27.6607 12.76Z" fill="#000000"/>
</svg>