<svg width="32" height="31" viewBox="0 0 32 31" fill="none" xmlns="http://www.w3.org/2000/svg">
<path d="M15.5575 31C24.1497 31 31.115 24.0604 31.115 15.5C31.115 6.93959 24.1497 0 15.5575 0C6.96533 0 0 6.93959 0 15.5C0 24.0604 6.96533 31 15.5575 31Z" fill="black"/>
<path fill-rule="evenodd" clip-rule="evenodd" d="M14.0863 13.613H13.9734V15.9368C13.7101 15.8618 13.4844 15.8243 13.2211 15.8243C11.7916 15.8243 10.6629 16.9487 10.6629 18.3355C10.6629 19.2725 11.2273 20.1345 12.0173 20.5468C11.7163 20.1345 11.5658 19.6098 11.5658 19.0851C11.5658 17.6983 12.6944 16.5739 14.0863 16.5739C14.3496 16.5739 14.6129 16.6113 14.8387 16.6863V13.6879C14.613 13.6504 14.3496 13.613 14.0863 13.613ZM10.061 22.7957C11.0767 23.8451 12.5062 24.5197 14.0863 24.5197C17.1335 24.5197 19.6163 22.0836 19.6163 19.0851V12.9383C20.7448 13.9502 22.212 14.4375 23.7168 14.325V11.3641C23.4158 11.4391 23.1149 11.4391 22.8516 11.3641V13.5754C21.3468 13.6878 19.8421 13.2006 18.7135 12.1886V18.3354C18.7135 21.3338 16.2682 23.7701 13.2211 23.7701C12.0549 23.7701 10.9639 23.3953 10.061 22.7956V22.7957ZM20.7073 10.1273C19.9925 9.34025 19.5787 8.29085 19.6163 7.27881H18.7887C18.9768 8.40319 19.7292 9.52766 20.7073 10.1273Z" fill="#FF2E56"/>
<path fill-rule="evenodd" clip-rule="evenodd" d="M13.2212 12.8633C10.1739 12.8633 7.69114 15.2995 7.69114 18.3354C7.69114 20.172 8.63159 21.821 10.0612 22.7956C9.15832 21.821 8.594 20.5093 8.594 19.085C8.594 16.1241 10.964 13.6879 13.9736 13.6129V12.9382C13.7102 12.9008 13.4844 12.8633 13.2212 12.8633ZM22.8517 11.364V10.6145C22.0992 10.7644 21.3469 10.5395 20.7073 10.1272C21.3092 10.8019 22.024 11.2516 22.8517 11.364ZM18.7888 7.2787C18.7512 7.01631 18.7135 6.79145 18.7135 6.52905H15.7415V18.3354C15.7415 19.7222 14.613 20.8465 13.2211 20.8465C12.7696 20.8465 12.3935 20.7341 12.0173 20.5467C12.5063 21.1839 13.2586 21.5962 14.0863 21.5962C15.5158 21.5962 16.6445 20.4718 16.6445 19.085V7.2787H18.7888Z" fill="#23F1E7"/>
<path fill-rule="evenodd" clip-rule="evenodd" d="M10.0612 22.7957C10.9641 23.3953 12.0551 23.7702 13.2213 23.7702C16.2684 23.7702 18.7137 21.334 18.7137 18.3355V12.1887C19.8423 13.2007 21.347 13.6879 22.8518 13.5755V11.3642C22.0242 11.2517 21.3095 10.802 20.7075 10.1273C19.7294 9.52766 18.977 8.40328 18.7889 7.27881H16.6446V19.0851C16.6446 20.4719 15.5161 21.5963 14.0865 21.5963C13.2589 21.5963 12.5065 21.184 12.0174 20.5468C11.2274 20.1345 10.6631 19.2725 10.6631 18.3355C10.6631 16.9487 11.7916 15.8243 13.2212 15.8243C13.4846 15.8243 13.7103 15.8618 13.9735 15.9368V13.613C10.964 13.688 8.59398 16.1242 8.59398 19.0851C8.59398 20.5094 9.15838 21.8212 10.0612 22.7957Z" fill="white"/>
</svg>
