<svg xmlns="http://www.w3.org/2000/svg" width="269" height="171" viewBox="0 0 269 171" fill="none">
<g clip-path="url(#clip0_19733_60522)">
<path d="M173.345 13.2275C173.345 10.1339 173.28 7.03649 173.364 3.94665C173.456 0.572475 174.826 -0.508021 178.137 0.21231C183.601 1.39896 188.206 3.78742 190.195 9.4515C191.268 12.5072 191.089 15.6236 190.684 18.8006C189.294 29.7686 187.186 40.5584 183.872 51.1435C181.237 59.5524 175.743 64.9966 167.846 68.5072C160.076 71.9648 151.939 74.0348 143.588 75.4982C136.792 76.6887 129.961 76.9048 123.088 76.9958C114.374 77.1133 106.589 74.7969 99.6773 69.4474C92.2163 63.6696 85.37 57.3573 80.6734 49.0621C78.4664 45.1647 77.0956 41.0399 78.6955 36.5776C80.0395 32.8281 82.4871 29.9127 86.126 28.0891C88.7568 26.7698 90.4636 27.3422 91.613 30.0795C93.6367 34.9019 95.4008 39.8267 97.9438 44.4292C100.853 49.6914 104.137 54.7148 108.376 58.9761C111.335 61.9522 114.947 64.1777 119.33 64.5075C133.817 65.5956 147.827 63.8137 161.176 57.7478C167.866 54.7072 170.286 49.1038 171.474 42.473C173.207 32.7902 173.188 23.0089 173.345 13.2351V13.2275Z" fill="#ffffff"/>
<path d="M17.5791 139.471C18.5165 136.22 19.4539 132.973 20.3874 129.722C22.7214 121.576 25.192 113.472 28.0763 105.501C28.4406 104.497 28.9226 103.532 29.3666 102.559C31.5829 97.652 39.6171 97.9802 41.7879 102.616C44.027 107.401 45.4463 112.46 47.0668 117.455C49.4464 124.796 51.5033 132.233 53.6513 140.074C54.786 137.327 55.2187 134.786 55.7955 132.309C58.0726 122.538 59.7045 112.655 60.4635 102.643C60.6153 100.628 61.3325 99.308 63.3857 98.8043C65.158 98.3694 66.881 97.7512 68.6419 97.2628C70.6419 96.7057 71.0859 97.0186 70.9872 99.0714C70.7292 104.532 69.9626 109.935 69.1087 115.322C67.5375 125.22 65.5792 135.038 62.528 144.599C60.3724 151.357 58.6418 152.475 51.6285 151.849C47.8524 151.513 46.4938 150.208 45.5792 146.488C42.7708 135.06 39.5564 123.743 36.0801 112.502C35.9738 112.151 35.7234 111.846 35.4501 111.362C33.6588 116.349 32.2015 121.259 30.8581 126.201C29.0137 132.981 27.2641 139.788 25.4501 146.576C24.4216 150.422 22.6303 151.807 18.6872 151.887C11.5639 152.032 10.7517 151.468 8.55439 144.691C4.14071 131.062 1.6056 117.047 0.0989536 102.83C-0.212243 99.8956 0.0799782 99.5293 2.89972 98.6212C4.52022 98.0984 6.16349 97.652 7.79537 97.1598C9.30202 96.7057 10.0724 97.2056 10.1863 98.8349C10.8504 108.469 12.1901 118.012 14.2091 127.456C15.0667 131.474 15.8865 135.507 17.5791 139.475V139.471Z" fill="#ffffff"/>
<path d="M184.142 148.885C182.135 150.019 180.231 151.138 178.078 151.675C165.463 154.823 152.928 149.323 149.319 135.209C147.158 126.759 147.553 118.332 151.242 110.316C154.816 102.543 161.08 98.3259 169.623 97.3211C177.105 96.438 184.365 97.4276 191.49 99.6619C194.126 100.488 194.931 101.664 194.934 104.424C194.95 117.993 195.095 131.562 194.896 145.132C194.781 152.866 192.743 160.033 186.518 165.381C183.395 168.065 179.637 169.268 175.737 170.371C172.584 171.266 169.428 170.493 166.279 170.969C165.041 171.155 163.222 170.478 161.904 169.58C161.168 169.077 161.065 168.362 161.547 167.581C162.681 165.751 163.796 163.908 164.93 162.077C165.551 161.076 166.497 160.924 167.593 161.023C170.205 161.259 172.818 161.301 175.373 160.555C180.285 159.124 183.848 154.457 184.139 148.889L184.142 148.885ZM184.637 121.434C184.637 117.255 184.564 113.075 184.675 108.9C184.713 107.45 184.2 106.825 182.855 106.635C181.093 106.388 179.342 106.056 177.576 105.84C168.93 104.77 162.628 108.218 159.862 115.664C157.644 121.632 157.632 127.707 159.712 133.698C162.034 140.385 167.616 143.861 174.707 143.004C180.216 142.338 185.004 139.008 184.671 132.259C184.491 128.658 184.641 125.042 184.641 121.434H184.637Z" fill="#ffffff"/>
<path d="M131.198 149.013C123.693 153.428 116.05 153.878 108.318 150.428C101.144 147.229 97.361 141.189 95.9038 133.831C94.3621 126.056 94.6389 118.27 97.9377 110.873C101.521 102.836 107.811 98.375 116.627 97.3265C124.139 96.4343 131.421 97.4218 138.576 99.6638C141.241 100.499 141.99 101.547 141.99 104.224C141.99 118.072 142.033 131.924 141.94 145.772C141.902 151.659 140.422 157.184 136.873 162.038C133.409 166.77 128.549 169.217 122.94 170.407C118.895 171.265 114.827 171.128 110.783 170.407C108.234 169.953 107.926 168.992 109.022 166.682C110.887 162.751 113.263 160.661 118.261 161.1C125.335 161.721 130.656 156.433 131.202 149.017L131.198 149.013ZM131.771 121.145C131.771 116.959 131.733 112.768 131.798 108.582C131.817 107.488 131.475 107.064 130.399 106.801C127.084 105.993 123.728 105.558 120.337 105.738C114.232 106.054 109.768 109.017 107.323 114.564C104.631 120.672 104.585 127.013 106.554 133.331C108.668 140.137 114.381 143.881 121.51 143.115C127.123 142.509 132.14 139.222 131.806 131.997C131.637 128.386 131.775 124.764 131.779 121.149L131.771 121.145Z" fill="#ffffff"/>
<path d="M220.024 125.274C219.917 118.528 221.348 112.2 225.452 106.676C229.449 101.297 234.915 98.2928 241.509 97.341C245.978 96.6976 250.447 96.926 254.75 98.3575C262.514 100.935 266.734 106.573 268.356 114.336C268.851 116.7 269.051 119.102 268.989 121.512C268.92 124.234 268.095 125.258 265.403 125.837C261.732 126.625 258.049 127.36 254.367 128.091C247.182 129.515 240.001 130.942 232.805 132.309C231.551 132.549 231.493 133.014 231.889 134.083C233.837 139.345 239.94 143.319 246.262 143.434C249.691 143.494 253.017 143.019 256.177 141.698C258.049 140.917 259.35 141.404 260.401 143.034C261.018 143.993 261.72 144.899 262.391 145.828C264.003 148.052 263.761 149.03 261.176 150.096C254.401 152.883 247.366 153.659 240.155 152.445C234.033 151.413 228.801 148.725 225.061 143.628C221.716 139.071 220.442 133.824 220.036 128.316C219.963 127.307 220.024 126.286 220.024 125.274ZM244.85 105.538C242.41 105.785 239.334 106.421 236.749 108.572C232.261 112.303 230.699 117.317 230.285 122.849C230.205 123.93 230.788 123.823 231.639 123.652C240.247 121.916 248.859 120.21 257.485 118.569C258.552 118.368 258.686 117.896 258.579 117.016C257.754 110.16 252.533 105.522 244.85 105.538Z" fill="#ffffff"/>
<path d="M149.985 31.258C150.028 34.9897 149.547 38.9479 148.113 42.7853C145.167 50.6638 139.395 51.6298 132.584 47.9018C128.052 45.4228 125.358 41.3175 123.524 36.7782C121.047 30.6429 120.214 24.2397 121.834 17.7459C122.97 13.1916 125.327 9.35421 130.471 8.34298C136.359 7.18081 141.325 8.97311 144.969 13.7048C148.896 18.8062 150.105 24.7038 149.993 31.258H149.985Z" fill="#ffffff"/>
<path d="M213.183 111.226C213.183 119.374 213.195 127.518 213.176 135.665C213.172 137.66 213.309 139.639 213.716 141.587C214.32 144.506 215.97 146.689 218.453 148.248C219.205 148.722 220.065 149.157 219.996 150.239C219.928 151.398 218.966 151.76 218.103 152.145C212.67 154.578 204.128 151.945 203.208 142.607C203.063 141.144 203.01 139.666 203.01 138.191C202.998 121.322 202.998 104.453 203.002 87.5848C203.002 84.6045 203.139 84.4274 205.968 83.5726C207.477 83.1183 208.986 82.6485 210.503 82.2211C212.529 81.6474 213.176 82.1402 213.18 84.2888C213.187 93.268 213.183 102.247 213.18 111.226H213.183Z" fill="#ffffff"/>
<path d="M89 124.793C89 132.811 89 140.829 89 148.847C89 151.651 88.6438 151.979 85.6104 151.986C83.977 151.99 82.3395 151.949 80.7061 151.998C78.8026 152.05 78.0043 151.237 78.0206 149.506C78.0616 145.184 78.037 140.863 78.037 136.541C78.037 125.455 78.0739 114.366 78.0002 103.28C77.9879 101.288 78.5938 100.076 80.8494 99.651C82.5729 99.3272 84.2349 98.74 85.9297 98.3034C88.4965 97.6446 88.9713 97.942 88.9795 100.366C89.0041 108.508 88.9877 116.651 88.9877 124.797H88.9959L89 124.793Z" fill="#ffffff"/>
<path d="M88.9997 89.7806C89.0079 92.5097 88.8523 92.7111 86.0592 93.4083C84.0974 93.9004 82.1152 94.3366 80.1658 94.881C78.7856 95.2687 78.2532 94.6759 78.0607 93.5835C77.6798 91.4099 79.1214 89.2362 81.5255 88.4831C82.8074 88.0804 84.1466 87.8343 85.453 87.4876C88.7949 86.5891 88.9874 86.7084 88.9956 89.7806H88.9997Z" fill="#ffffff"/>
</g>
<defs fill="#000000">
<clipPath id="clip0_19733_60522" fill="#000000">
<rect width="269" height="171" fill="white"/>
</clipPath>
</defs>
</svg>