<svg xmlns="http://www.w3.org/2000/svg" xmlns:xlink="http://www.w3.org/1999/xlink" width="1366" height="150" viewBox="0 0 1366 150"><defs><style>.a{fill:#a91700;}.b{clip-path:url(#a);}.c{clip-path:url(#b);}.d{fill:#d8ba39;opacity:0.5;}.e{fill:url(#c);}.f,.h,.i,.j,.k,.l{fill:none;}.f{stroke:#fff;}.f,.h,.i,.j{stroke-miterlimit:10;}.f,.i,.j,.k,.l{stroke-width:2px;}.g{fill:url(#d);}.h{stroke:#968552;stroke-width:1.3px;}.i,.k{stroke:#503221;}.j,.l{stroke:#6ca43b;}.k,.l{stroke-linecap:round;stroke-linejoin:round;}</style><clipPath id="a"><rect width="1366" height="150" transform="translate(8975 1406)"/></clipPath><clipPath id="b"><rect class="a" width="1369" height="150" transform="translate(8975 1406)"/></clipPath><linearGradient id="c" x1="0.417" y1="-0.035" x2="0.54" y2="0.651" gradientUnits="objectBoundingBox"><stop offset="0" stop-color="#3a9b67"/><stop offset="1" stop-color="#85af4b"/></linearGradient><linearGradient id="d" x1="0.497" y1="0.84" x2="0.482" y2="0.339" gradientUnits="objectBoundingBox"><stop offset="0" stop-color="#7d7979"/><stop offset="1" stop-color="#85af4b"/></linearGradient></defs><g class="b" transform="translate(-8975 -1406)"><g class="c"><path d="M0,0H1369V150H0Z" transform="translate(8974 1406)"/></g><g transform="translate(8934.097 1362.947)"><path class="d" d="M-52.659,85.9c-.268,6.538,17.462,15.612,22.178,18.485,33.731,20.542,72.759,5.676,103.824-13.01C98.881,76.011,123.8,57.634,151.866,47.8c21.864-7.661,44.813-11.113,67.693-13.361,36.6-3.6,73.77-3.851,109.675-12.946C358.276,14.136,392.1-.2,396.945-35.36L-45.817-58.4S-52.652,85.768-52.659,85.9Z" transform="translate(80.948 78.737)"/><path class="e" d="M-54.182,83.054c.043,6.272,18.256,14.077,23.124,16.593,34.807,17.987,73.244,1.81,103.513-17.628,24.883-15.979,49-34.815,76.684-45.629C170.7,27.966,193.556,23.518,216.4,20.225c36.536-5.266,73.807-7.361,109.385-17.857,28.778-8.491,62.019-23.9,65.209-57.8H-54.182Z" transform="translate(75.305 81.254)"/><path class="f" d="M-79.424,52.2c.042,6.272,18.256,14.077,23.123,16.592C-21.494,86.781,16.943,70.6,47.212,51.166c24.883-15.979,49-34.816,76.684-45.629,21.565-8.424,44.418-12.871,67.258-16.164,36.536-5.266,73.806-7.361,109.386-17.858,28.778-8.49,62.017-23.9,65.209-57.8H-79.424Z" transform="translate(79.424 86.288)"/></g><g transform="translate(9913.74 1398.719)"><path class="d" d="M174.539,494.724c-.268-3.613,7.883-12.213,9.818-14.86,44.459-60.8,117.721-87.467,191.65-77.921,35.6,4.6,70.135,15.372,105.9,18.9,42.73,4.213,83.814-4.834,123.8-19.354,28.869-10.482,58.055-26.03,74.2-53.6a46.528,46.528,0,0,0,4.944-11.5l10.988,148.342L152.987,524.947S174.54,494.744,174.539,494.724Z" transform="translate(-152.987 -333.328)"/><path class="g" d="M186.2,517.3c-.455-3.6,7.238-12.608,9.033-15.352,41.24-63.031,113.019-93.462,187.344-87.769,35.789,2.742,70.839,11.71,106.74,13.373,42.89,1.987,83.449-9.182,122.629-25.757,28.285-11.967,56.624-29.011,71.32-57.378a46.51,46.51,0,0,0,4.34-11.739l18.678,147.571-516.5,65.373S186.2,517.318,186.2,517.3Z" transform="translate(-158.802 -332.677)"/><path class="f" d="M221.035,545.72c-.454-3.6,7.238-12.607,9.034-15.352,41.24-63.031,113.019-93.461,187.343-87.769,35.789,2.742,70.839,11.709,106.74,13.372,42.891,1.987,83.45-9.182,122.63-25.757,28.285-11.966,56.623-29.01,71.319-57.378a46.483,46.483,0,0,0,4.34-11.74l18.678,147.572-516.5,65.372Z" transform="translate(-164.906 -337.656)"/></g><circle class="h" cx="1" cy="1" r="1" transform="translate(10096.543 1427.351)"/><circle class="h" cx="1" cy="1" r="1" transform="translate(10116.123 1427.351)"/><circle class="h" cx="1" cy="1" r="1" transform="translate(10135.703 1427.351)"/><circle class="h" cx="1" cy="1" r="1" transform="translate(10155.281 1427.351)"/><circle class="h" cx="1" cy="1" r="1" transform="translate(10174.861 1427.351)"/><circle class="h" cx="1" cy="1" r="1" transform="translate(10194.441 1427.351)"/><circle class="h" cx="1" cy="1" r="1" transform="translate(10214.02 1427.351)"/><circle class="h" cx="1" cy="1" r="1" transform="translate(10233.6 1427.351)"/><circle class="h" cx="1" cy="1" r="1" transform="translate(10253.18 1427.351)"/><circle class="h" cx="1" cy="1" r="1" transform="translate(10272.758 1427.351)"/><circle class="h" cx="1" cy="1" r="1" transform="translate(10292.336 1427.351)"/><circle class="h" cx="1" cy="1" r="1" transform="translate(10096.543 1436.492)"/><circle class="h" cx="1" cy="1" r="1" transform="translate(10116.121 1436.492)"/><circle class="h" cx="1" cy="1" r="1" transform="translate(10135.701 1436.492)"/><circle class="h" cx="1" cy="1" r="1" transform="translate(10155.281 1436.492)"/><circle class="h" cx="1" cy="1" r="1" transform="translate(10174.859 1436.492)"/><circle class="h" cx="1" cy="1" r="1" transform="translate(10194.439 1436.492)"/><circle class="h" cx="1" cy="1" r="1" transform="translate(10214.02 1436.492)"/><circle class="h" cx="1" cy="1" r="1" transform="translate(10233.598 1436.492)"/><circle class="h" cx="1" cy="1" r="1" transform="translate(10253.178 1436.492)"/><circle class="h" cx="1" cy="1" r="1" transform="translate(10272.758 1436.492)"/><circle class="h" cx="1" cy="1" r="1" transform="translate(10292.336 1436.492)"/><circle class="h" cx="1" cy="1" r="1" transform="translate(10096.543 1445.632)"/><circle class="h" cx="1" cy="1" r="1" transform="translate(10116.121 1445.632)"/><circle class="h" cx="1" cy="1" r="1" transform="translate(10135.701 1445.632)"/><circle class="h" cx="1" cy="1" r="1" transform="translate(10155.281 1445.632)"/><circle class="h" cx="1" cy="1" r="1" transform="translate(10174.859 1445.632)"/><circle class="h" cx="1" cy="1" r="1" transform="translate(10194.439 1445.632)"/><circle class="h" cx="1" cy="1" r="1" transform="translate(10214.02 1445.632)"/><circle class="h" cx="1" cy="1" r="1" transform="translate(10233.598 1445.632)"/><circle class="h" cx="1" cy="1" r="1" transform="translate(10253.178 1445.632)"/><circle class="h" cx="1" cy="1" r="1" transform="translate(10272.758 1445.632)"/><circle class="h" cx="1" cy="1" r="1" transform="translate(10292.336 1445.632)"/><circle class="h" cx="1" cy="1" r="1" transform="translate(10096.543 1400.351)"/><circle class="h" cx="1" cy="1" r="1" transform="translate(10116.123 1400.351)"/><circle class="h" cx="1" cy="1" r="1" transform="translate(10135.703 1400.351)"/><circle class="h" cx="1" cy="1" r="1" transform="translate(10155.281 1400.351)"/><circle class="h" cx="1" cy="1" r="1" transform="translate(10174.861 1400.351)"/><circle class="h" cx="1" cy="1" r="1" transform="translate(10194.441 1400.351)"/><circle class="h" cx="1" cy="1" r="1" transform="translate(10214.02 1400.351)"/><circle class="h" cx="1" cy="1" r="1" transform="translate(10233.6 1400.351)"/><circle class="h" cx="1" cy="1" r="1" transform="translate(10253.18 1400.351)"/><circle class="h" cx="1" cy="1" r="1" transform="translate(10272.758 1400.351)"/><circle class="h" cx="1" cy="1" r="1" transform="translate(10292.336 1400.351)"/><circle class="h" cx="1" cy="1" r="1" transform="translate(10096.543 1409.492)"/><circle class="h" cx="1" cy="1" r="1" transform="translate(10116.121 1409.492)"/><circle class="h" cx="1" cy="1" r="1" transform="translate(10135.701 1409.492)"/><circle class="h" cx="1" cy="1" r="1" transform="translate(10155.281 1409.492)"/><circle class="h" cx="1" cy="1" r="1" transform="translate(10174.859 1409.492)"/><circle class="h" cx="1" cy="1" r="1" transform="translate(10194.439 1409.492)"/><circle class="h" cx="1" cy="1" r="1" transform="translate(10214.02 1409.492)"/><circle class="h" cx="1" cy="1" r="1" transform="translate(10233.598 1409.492)"/><circle class="h" cx="1" cy="1" r="1" transform="translate(10253.178 1409.492)"/><circle class="h" cx="1" cy="1" r="1" transform="translate(10272.758 1409.492)"/><circle class="h" cx="1" cy="1" r="1" transform="translate(10292.336 1409.492)"/><circle class="h" cx="1" cy="1" r="1" transform="translate(10096.543 1418.632)"/><circle class="h" cx="1" cy="1" r="1" transform="translate(10116.121 1418.632)"/><circle class="h" cx="1" cy="1" r="1" transform="translate(10135.701 1418.632)"/><circle class="h" cx="1" cy="1" r="1" transform="translate(10155.281 1418.632)"/><circle class="h" cx="1" cy="1" r="1" transform="translate(10174.859 1418.632)"/><circle class="h" cx="1" cy="1" r="1" transform="translate(10194.439 1418.632)"/><circle class="h" cx="1" cy="1" r="1" transform="translate(10214.02 1418.632)"/><circle class="h" cx="1" cy="1" r="1" transform="translate(10233.598 1418.632)"/><circle class="h" cx="1" cy="1" r="1" transform="translate(10253.178 1418.632)"/><circle class="h" cx="1" cy="1" r="1" transform="translate(10272.758 1418.632)"/><circle class="h" cx="1" cy="1" r="1" transform="translate(10292.336 1418.632)"/><circle class="i" cx="7.303" cy="7.303" r="7.303" transform="translate(9287.581 1527.172)"/><circle class="j" cx="7.5" cy="7.5" r="7.5" transform="translate(9953 1441)"/><g transform="translate(9760.131 1517.367)"><line class="k" y2="13.288" transform="translate(6.645)"/><line class="k" x1="13.29" transform="translate(0 6.645)"/></g><path class="l" d="M366.053,445.861l-3.586,11.772,13.883-5.033Z" transform="translate(9093.069 1010.587)"/></g></svg>