<svg width="25" height="24" viewBox="0 0 25 24" fill="none" xmlns="http://www.w3.org/2000/svg">
<mask id="path-1-inside-1_14810_63787" fill="white">
<path fill-rule="evenodd" clip-rule="evenodd" d="M16.0944 2.24133C16.0944 1.04366 15.1235 0.0727539 13.9258 0.0727539H10.5684C9.37077 0.0727539 8.39987 1.04366 8.39987 2.24134V3.01591C8.39987 3.59194 8.04682 4.10557 7.54229 4.38352C7.07083 4.64325 6.50208 4.67705 6.02939 4.41956L5.03321 3.87689C4.0187 3.32423 2.74904 3.66394 2.14606 4.64937L0.565417 7.23253C-0.0820593 8.29067 0.288415 9.67532 1.37778 10.2688L2.17706 10.7042C2.64444 10.9588 2.90323 11.4698 2.90323 12.002C2.90323 12.5297 2.64636 13.0362 2.18296 13.2886L1.37817 13.727C0.288805 14.3205 -0.0816687 15.7051 0.565807 16.7633L2.14645 19.3464C2.74943 20.3319 4.01909 20.6716 5.0336 20.1189L6.01913 19.582C6.49404 19.3233 7.06547 19.3576 7.53904 19.6187C8.04541 19.8979 8.39987 20.4135 8.39987 20.9918V21.7586C8.39987 22.9562 9.37077 23.9271 10.5684 23.9271H13.9258C15.1235 23.9271 16.0944 22.9562 16.0944 21.7586V20.9907C16.0944 20.4128 16.4485 19.8975 16.9546 19.6184C17.4279 19.3574 17.999 19.3232 18.4737 19.5818L19.459 20.1185C20.4736 20.6712 21.7432 20.3315 22.3462 19.3461L23.9268 16.7629C24.5743 15.7048 24.2038 14.3201 23.1145 13.7267L22.3101 13.2885C21.8467 13.0361 21.5899 12.5296 21.5899 12.002C21.5899 11.4699 21.8486 10.9589 22.316 10.7043L23.1149 10.2691C24.2042 9.6757 24.5747 8.29105 23.9272 7.23291L22.3466 4.64974C21.7436 3.66431 20.474 3.32461 19.4594 3.87726L18.4634 4.41984C17.991 4.6772 17.4225 4.64342 16.9513 4.3838C16.4471 4.106 16.0944 3.59268 16.0944 3.01703V2.24133Z"/>
</mask>
<path d="M23.9272 7.23291L22.6478 8.01582L23.9272 7.23291ZM22.316 10.7043L23.0335 12.0216L22.316 10.7043ZM23.9268 16.7629L22.6474 15.98L23.9268 16.7629ZM23.1145 13.7267L22.3969 15.0439L23.1145 13.7267ZM22.3462 19.3461L21.0667 18.5631L22.3462 19.3461ZM18.4737 19.5818L17.7561 20.899L18.4737 19.5818ZM2.14645 19.3464L3.42592 18.5635L2.14645 19.3464ZM5.0336 20.1189L4.31604 18.8017L5.0336 20.1189ZM1.37817 13.727L2.09573 15.0443L1.37817 13.727ZM2.18296 13.2886L2.90052 14.6059L2.18296 13.2886ZM2.17706 10.7042L2.89463 9.38693L2.17706 10.7042ZM0.565417 7.23253L-0.714056 6.44962L0.565417 7.23253ZM1.37778 10.2688L0.660218 11.586L1.37778 10.2688ZM18.4634 4.41984L17.7459 3.10261L18.4634 4.41984ZM6.01913 19.582L6.73669 20.8993L6.01913 19.582ZM22.3466 4.64974L23.6261 3.86683L22.3466 4.64974ZM10.5684 1.57275H13.9258V-1.42725H10.5684V1.57275ZM9.89987 3.01591V2.24134H6.89987V3.01591H9.89987ZM4.31565 5.19412L5.31182 5.73679L6.74695 3.10232L5.75078 2.55966L4.31565 5.19412ZM1.84489 8.01544L3.42553 5.43228L0.866585 3.86646L-0.714056 6.44962L1.84489 8.01544ZM2.89463 9.38693L2.09534 8.95152L0.660218 11.586L1.4595 12.0214L2.89463 9.38693ZM2.09573 15.0443L2.90052 14.6059L1.4654 11.9714L0.660607 12.4098L2.09573 15.0443ZM3.42592 18.5635L1.84528 15.9804L-0.713665 17.5462L0.866976 20.1293L3.42592 18.5635ZM5.30157 18.2648L4.31604 18.8017L5.75117 21.4361L6.73669 20.8993L5.30157 18.2648ZM9.89987 21.7586V20.9918H6.89987V21.7586H9.89987ZM13.9258 22.4271H10.5684V25.4271H13.9258V22.4271ZM14.5944 20.9907V21.7586H17.5944V20.9907H14.5944ZM20.1766 18.8013L19.1912 18.2645L17.7561 20.899L18.7415 21.4358L20.1766 18.8013ZM22.6474 15.98L21.0667 18.5631L23.6257 20.129L25.2063 17.5458L22.6474 15.98ZM21.5925 14.6057L22.3969 15.0439L23.832 12.4094L23.0276 11.9712L21.5925 14.6057ZM22.3973 8.9519L21.5984 9.38711L23.0335 12.0216L23.8324 11.5864L22.3973 8.9519ZM21.0671 5.43266L22.6478 8.01582L25.2067 6.45L23.6261 3.86683L21.0671 5.43266ZM19.181 5.73708L20.177 5.1945L18.7419 2.56003L17.7459 3.10261L19.181 5.73708ZM14.5944 2.24133V3.01703H17.5944V2.24133H14.5944ZM17.6752 3.07002C17.6324 3.04643 17.6064 3.01778 17.5952 3.00045C17.586 2.98615 17.5944 2.99265 17.5944 3.01703H14.5944C14.5944 4.22505 15.3246 5.20012 16.2275 5.69758L17.6752 3.07002ZM23.8324 11.5864C25.6753 10.5825 26.302 8.24004 25.2067 6.45L22.6478 8.01582C22.8474 8.34205 22.7332 8.76894 22.3973 8.9519L23.8324 11.5864ZM23.0899 12.002C23.0899 11.9902 23.0914 11.9802 23.0931 11.9731C23.0949 11.9659 23.0964 11.9639 23.095 11.9664C23.0936 11.9691 23.0886 11.9774 23.0778 11.9884C23.0667 11.9997 23.0517 12.0117 23.0335 12.0216L21.5984 9.38711C20.5749 9.94466 20.0899 11.0103 20.0899 12.002H23.0899ZM23.0276 11.9712C23.0466 11.9816 23.0625 11.9941 23.0743 12.0062C23.0857 12.0179 23.0913 12.027 23.0933 12.0307C23.0953 12.0342 23.0942 12.0332 23.0927 12.0272C23.0912 12.0213 23.0899 12.0126 23.0899 12.002H20.0899C20.0899 12.99 20.5736 14.0506 21.5925 14.6057L23.0276 11.9712ZM25.2063 17.5458C26.3017 15.7558 25.6749 13.4133 23.832 12.4094L22.3969 15.0439C22.7328 15.2269 22.847 15.6537 22.6474 15.98L25.2063 17.5458ZM18.7415 21.4358C20.4577 22.3707 22.6056 21.796 23.6257 20.129L21.0667 18.5631C20.8808 18.867 20.4894 18.9717 20.1766 18.8013L18.7415 21.4358ZM17.679 20.9319C17.7185 20.9101 17.7499 20.9049 17.7645 20.9044C17.776 20.904 17.7694 20.9062 17.7561 20.899L19.1912 18.2645C18.2059 17.7278 17.0877 17.832 16.2302 18.3049L17.679 20.9319ZM17.5944 20.9907C17.5944 21.014 17.5863 21.0194 17.5962 21.0041C17.608 20.9857 17.635 20.9562 17.679 20.9319L16.2302 18.3049C15.3261 18.8035 14.5944 19.7803 14.5944 20.9907H17.5944ZM13.9258 25.4271C15.9519 25.4271 17.5944 23.7847 17.5944 21.7586H14.5944C14.5944 22.1278 14.295 22.4271 13.9258 22.4271V25.4271ZM6.89987 21.7586C6.89987 23.7847 8.54235 25.4271 10.5684 25.4271V22.4271C10.1992 22.4271 9.89987 22.1278 9.89987 21.7586H6.89987ZM6.81473 20.9322C6.85889 20.9566 6.88602 20.9863 6.89792 21.0048C6.90786 21.0202 6.89987 21.0149 6.89987 20.9918H9.89987C9.89987 19.781 9.16778 18.8039 8.26334 18.3052L6.81473 20.9322ZM0.866976 20.1293C1.88705 21.7964 4.03492 22.3711 5.75117 21.4361L4.31604 18.8017C4.00326 18.9721 3.61182 18.8673 3.42592 18.5635L0.866976 20.1293ZM0.660607 12.4098C-1.18227 13.4137 -1.809 15.7561 -0.713665 17.5462L1.84528 15.9804C1.64566 15.6541 1.75988 15.2272 2.09573 15.0443L0.660607 12.4098ZM1.40323 12.002C1.40323 12.0126 1.4019 12.0213 1.40041 12.0273C1.39891 12.0333 1.39784 12.0343 1.39975 12.0308C1.40175 12.0271 1.40734 12.018 1.41877 12.0063C1.43058 11.9943 1.44642 11.9817 1.4654 11.9714L2.90052 14.6059C3.91951 14.0508 4.40323 12.9901 4.40323 12.002H1.40323ZM1.4595 12.0214C1.44139 12.0115 1.42633 11.9996 1.41522 11.9882C1.40449 11.9773 1.39953 11.969 1.39805 11.9663C1.39668 11.9638 1.39817 11.9658 1.39996 11.973C1.40175 11.9802 1.40323 11.9901 1.40323 12.002H4.40323C4.40323 11.0102 3.91821 9.94453 2.89463 9.38693L1.4595 12.0214ZM-0.714056 6.44962C-1.80939 8.23967 -1.18266 10.5821 0.660218 11.586L2.09534 8.95152C1.75949 8.76857 1.64527 8.34167 1.84489 8.01544L-0.714056 6.44962ZM5.75078 2.55966C4.03453 1.62473 1.88665 2.19941 0.866585 3.86646L3.42553 5.43228C3.61143 5.12847 4.00287 5.02374 4.31565 5.19412L5.75078 2.55966ZM6.8185 3.0697C6.77996 3.09093 6.74955 3.09589 6.73601 3.09634C6.72997 3.09655 6.72898 3.09585 6.73224 3.09659C6.73588 3.09742 6.74135 3.09927 6.74695 3.10232L5.31182 5.73679C6.2947 6.27221 7.41024 6.16883 8.26608 5.69734L6.8185 3.0697ZM6.89987 3.01591C6.89987 2.99167 6.90818 2.98533 6.89889 2.99977C6.88765 3.01724 6.86148 3.04602 6.8185 3.0697L8.26608 5.69734C9.16926 5.19978 9.89987 4.2244 9.89987 3.01591H6.89987ZM17.7459 3.10261C17.7515 3.09952 17.7571 3.09765 17.7608 3.0968C17.7641 3.09604 17.7632 3.09673 17.7572 3.09653C17.7438 3.09608 17.7136 3.09117 17.6752 3.07002L16.2275 5.69758C17.0831 6.16901 18.1984 6.27236 19.181 5.73708L17.7459 3.10261ZM13.9258 1.57275C14.295 1.57275 14.5944 1.87209 14.5944 2.24133H17.5944C17.5944 0.215233 15.9519 -1.42725 13.9258 -1.42725V1.57275ZM6.73669 20.8993C6.72351 20.9065 6.7171 20.9042 6.72877 20.9046C6.74345 20.9051 6.77507 20.9104 6.81473 20.9322L8.26334 18.3052C7.40562 17.8322 6.28714 17.7279 5.30157 18.2648L6.73669 20.8993ZM23.6261 3.86683C22.606 2.19979 20.4581 1.6251 18.7419 2.56003L20.177 5.1945C20.4898 5.02411 20.8812 5.12884 21.0671 5.43266L23.6261 3.86683ZM10.5684 -1.42725C8.54235 -1.42725 6.89987 0.215235 6.89987 2.24134H9.89987C9.89987 1.87209 10.1992 1.57275 10.5684 1.57275V-1.42725Z" fill="black" mask="url(#path-1-inside-1_14810_63787)"/>
<path d="M15.5713 11.9984C15.5713 13.7711 14.1136 15.2242 12.2956 15.2242C10.4776 15.2242 9.01981 13.7711 9.01981 11.9984C9.01981 10.2257 10.4776 8.77271 12.2956 8.77271C14.1136 8.77271 15.5713 10.2257 15.5713 11.9984Z" stroke="black" stroke-width="1.5"/>
</svg>
