<svg width="27" height="23" viewBox="0 0 27 23" fill="none" xmlns="http://www.w3.org/2000/svg">
<path d="M15.2462 23C13.5277 23 11.7758 22.5852 9.99066 21.7556C8.20548 20.9259 6.54992 19.7481 5.02399 18.2222C3.49807 16.6963 2.32029 15.0407 1.49066 13.2556C0.661031 11.4704 0.246216 9.71852 0.246216 8C0.246216 7.71428 0.341453 7.47619 0.531927 7.28571C0.722401 7.09524 0.960497 7 1.24622 7H4.35733C4.56473 7 4.74251 7.07407 4.89066 7.22222C5.03881 7.37037 5.14251 7.55556 5.20177 7.77778L5.80019 10.5698C5.83087 10.7825 5.8277 10.9741 5.79066 11.1444C5.75362 11.3148 5.67415 11.4609 5.55224 11.5828L3.3351 13.8222C3.72029 14.4741 4.1277 15.0815 4.55733 15.6444C4.98696 16.2074 5.46103 16.7407 5.97955 17.2444C6.5277 17.8074 7.10548 18.3222 7.71288 18.7889C8.32029 19.2556 8.95733 19.6667 9.62399 20.0222L11.7351 17.8444C11.8833 17.6815 12.0547 17.5704 12.2496 17.5111C12.4444 17.4519 12.6359 17.437 12.824 17.4667L15.4684 18.0444C15.6907 18.1037 15.8758 18.2225 16.024 18.401C16.1721 18.5794 16.2462 18.7791 16.2462 19V22C16.2462 22.2857 16.151 22.5238 15.9605 22.7143C15.77 22.9048 15.5319 23 15.2462 23ZM2.66844 12.6L4.46844 10.7778L3.95733 8.33333H1.57955C1.60918 8.95556 1.70918 9.61111 1.87955 10.3C2.04992 10.9889 2.31288 11.7556 2.66844 12.6ZM10.8684 20.6667C11.4758 20.9481 12.1351 21.1778 12.8462 21.3556C13.5573 21.5333 14.2462 21.637 14.9129 21.6667V19.2889L12.624 18.8222L10.8684 20.6667Z" fill="black"/>
<path d="M7.24622 1.5V14C7.24622 15.1046 8.14165 16 9.24622 16H24.2462C25.3508 16 26.2462 15.1046 26.2462 14V1.5M7.24622 1.5V1.5C7.24622 1.22386 7.47007 1 7.74622 1H25.7462C26.0224 1 26.2462 1.22386 26.2462 1.5V1.5M7.24622 1.5L15.5069 8.02162C16.2335 8.59526 17.2589 8.59526 17.9855 8.02161L26.2462 1.5" stroke="black" stroke-width="1.5"/>
</svg>
