<svg width="28" height="24" viewBox="0 0 28 24" fill="none" xmlns="http://www.w3.org/2000/svg">
<path d="M21.7112 20.4766H16.6897M22.951 20.4766V13H14.972C14.0189 13 13.2462 13.7727 13.2462 14.7258V19.0658C13.2462 19.845 13.8779 20.4766 14.657 20.4766V20.4766" stroke="black" stroke-width="1.5"/>
<path d="M17.2878 21.7681C17.2878 22.5866 16.6243 23.25 15.8059 23.25C14.9874 23.25 14.3239 22.5866 14.3239 21.7681C14.3239 20.9496 14.9874 20.2861 15.8059 20.2861C16.6243 20.2861 17.2878 20.9496 17.2878 21.7681Z" stroke="black" stroke-width="1.5"/>
<path d="M24.0198 21.7681C24.0198 22.5866 23.3563 23.25 22.5378 23.25C21.7193 23.25 21.0558 22.5866 21.0558 21.7681C21.0558 20.9496 21.7193 20.2861 22.5378 20.2861C23.3563 20.2861 24.0198 20.9496 24.0198 21.7681Z" stroke="black" stroke-width="1.5"/>
<path d="M22.7162 15.8989H25.8834C26.3599 15.8989 26.7463 16.2853 26.7463 16.7618V19.6138C26.7463 20.0903 26.3599 20.4766 25.8834 20.4766H23.5923" stroke="black" stroke-width="1.5"/>
<path fill-rule="evenodd" clip-rule="evenodd" d="M1.74622 21.8607V8.64688C1.74622 8.48731 1.82238 8.33733 1.95121 8.24318L11.0469 1.59631C11.2226 1.4679 11.4612 1.4679 11.6369 1.5963L20.7327 8.24318C20.8615 8.33733 20.9377 8.48731 20.9377 8.64687V11.0508H22.4377V8.64687C22.4377 8.00861 22.133 7.40868 21.6177 7.03209L12.522 0.385217C11.8191 -0.128406 10.8648 -0.128405 10.1619 0.385218L1.06618 7.03209C0.550854 7.40868 0.246216 8.00861 0.246216 8.64688V21.8607C0.246216 22.9653 1.14165 23.8607 2.24622 23.8607H7.0659C8.17046 23.8607 9.0659 22.9653 9.0659 21.8607V17.7397C9.0659 16.6351 9.96133 15.7397 11.0659 15.7397H11.2462V14.2397H11.0659C9.1329 14.2397 7.5659 15.8067 7.5659 17.7397V21.8607C7.5659 22.1368 7.34204 22.3607 7.0659 22.3607H2.24622C1.97007 22.3607 1.74622 22.1368 1.74622 21.8607Z" fill="black"/>
</svg>
