<svg xmlns="http://www.w3.org/2000/svg" width="32" height="32" viewBox="0 0 32 32">
  <g id="_001-headphones" data-name="001-headphones" transform="translate(-25 3.264)">
    <g id="Group_56" data-name="Group 56" transform="translate(-1.131)">
      <g id="Group_46" data-name="Group 46" transform="translate(31.881 9.861)">
        <g id="Group_45" data-name="Group 45" transform="translate(0 0)">
          <path id="Path_11592" data-name="Path 11592" d="M93.812,210A2.816,2.816,0,0,0,91,212.813v7.625a2.812,2.812,0,1,0,5.625,0v-7.625A2.816,2.816,0,0,0,93.812,210Z" transform="translate(-91 -210)"/>
        </g>
      </g>
      <g id="Group_48" data-name="Group 48" transform="translate(28.131 11.884)">
        <g id="Group_47" data-name="Group 47" transform="translate(0 0)">
          <path id="Path_11593" data-name="Path 11593" d="M32.875,243.156a4.651,4.651,0,0,1,.08-.79A2.807,2.807,0,0,0,31,245.031v3.875a2.807,2.807,0,0,0,1.955,2.665,4.651,4.651,0,0,1-.08-.79Z" transform="translate(-31 -242.366)"/>
        </g>
      </g>
      <g id="Group_50" data-name="Group 50" transform="translate(39.381 9.861)">
        <g id="Group_49" data-name="Group 49" transform="translate(0 0)">
          <path id="Path_11594" data-name="Path 11594" d="M221.312,210a2.816,2.816,0,0,0-2.812,2.813v7.625a2.816,2.816,0,0,0,2.812,2.813,2.775,2.775,0,0,0,.806-.132,2.807,2.807,0,0,1-2.681,2.007h-2.985a2.813,2.813,0,1,0,0,1.875h2.985a4.693,4.693,0,0,0,4.687-4.688v-9.5A2.816,2.816,0,0,0,221.312,210Z" transform="translate(-211 -210)"/>
        </g>
      </g>
      <g id="Group_52" data-name="Group 52" transform="translate(54.301 11.884)">
        <g id="Group_51" data-name="Group 51" transform="translate(0 0)">
          <path id="Path_11595" data-name="Path 11595" d="M449.722,242.366a4.651,4.651,0,0,1,.08.79v7.625a4.651,4.651,0,0,1-.08.79,2.807,2.807,0,0,0,1.955-2.665v-3.875A2.807,2.807,0,0,0,449.722,242.366Z" transform="translate(-449.722 -242.366)"/>
        </g>
      </g>
      <g id="Group_54" data-name="Group 54" transform="translate(28.131 -3.264)">
        <g id="Group_53" data-name="Group 53" transform="translate(0)">
          <path id="Path_11596" data-name="Path 11596" d="M45.062,0A14.078,14.078,0,0,0,31,14.062v.024a4.642,4.642,0,0,1,1.918-.871,12.173,12.173,0,0,1,24.289,0,4.644,4.644,0,0,1,1.918.871v-.024A14.078,14.078,0,0,0,45.062,0Z" transform="translate(-31)"/>
        </g>
      </g>
    </g>
    <rect id="Rectangle_184" data-name="Rectangle 184" width="32" height="32" transform="translate(25 -3.264)" fill="none"/>
  </g>
</svg>
