<svg xmlns="http://www.w3.org/2000/svg" width="32" height="32" viewBox="0 0 32 32">
  <g id="arena-hire-active" transform="translate(-440 780.631)">
    <path id="Path_15" data-name="Path 15" d="M15.007-1104.294c-.313.169-.313.175-.331,3.47l-.013,3.1-1.463.044a14.892,14.892,0,0,1-1.7-.006.679.679,0,0,0-.406.025,9.254,9.254,0,0,1-1.244.15,30.866,30.866,0,0,0-7.91,1.35c-.3.119-.563.219-.588.219A7.737,7.737,0,0,1,1.313-1097v-1.044L2.589-1099c1.382-1.038,1.476-1.15,1.376-1.563-.05-.206-.206-.344-1.582-1.382-1.488-1.119-1.532-1.144-1.776-1.113a.771.771,0,0,0-.413.194l-.163.162-.019,4.177L0-1094.352l.682,6.134c.5,4.5.707,6.2.788,6.359.588,1.244,3.733,2.176,8.7,2.583l.513.044.019-2.526.019-2.526.15-.306a2.327,2.327,0,0,1,.888-.919c.438-.219.994-.25,3.883-.231a12.818,12.818,0,0,1,3.064.137,2.285,2.285,0,0,1,1.094,1.025l.175.357.019,2.495.019,2.495.513-.044a29.5,29.5,0,0,0,6.691-1.17c1.126-.413,1.9-.975,2.045-1.482.038-.125.375-3,.75-6.372.557-5.034.663-6.184.613-6.391a1.917,1.917,0,0,0-.913-1.007l-.381-.219-.006-1.063v-1.063L30.6-1099a7.037,7.037,0,0,0,1.351-1.144.7.7,0,0,0-.144-.731c-.219-.206-2.751-2.082-2.9-2.151a.7.7,0,0,0-.713.175l-.15.163-.019,3.12c-.006,1.714-.025,3.12-.044,3.12s-.369-.088-.794-.188a42.892,42.892,0,0,0-6.7-.913,4.7,4.7,0,0,1-.9-.119.714.714,0,0,0-.406-.031,14.348,14.348,0,0,1-1.676.019l-1.5-.037v-.85l.006-.85,1.269-.951c1.882-1.4,1.882-1.332-.131-2.851-.75-.563-1.426-1.057-1.5-1.094A.711.711,0,0,0,15.007-1104.294Zm3.4,7.972c.019.019-.2.894-.488,1.939l-.519,1.907-.244.044c-.306.056-3.133.063-3.558.012l-.319-.038-.513-1.888c-.281-1.038-.513-1.907-.513-1.926s.106-.056.238-.069C12.831-1096.378,18.365-1096.359,18.409-1096.322Zm-7.529.094c0,.025.888,3.3.975,3.608.031.1-.013.113-.375.113-.506,0-2.095-.113-2.964-.213l-.638-.069-1.151-1.438c-.932-1.163-1.132-1.444-1.05-1.482A37.549,37.549,0,0,1,10.88-1096.228Zm11.161.131a27.837,27.837,0,0,1,2.989.4,11.318,11.318,0,0,1-1.082,1.476c-.632.788-1.144,1.438-1.151,1.444-.025.031-2.239.207-3.051.244-.663.031-.925.025-.925-.025s.894-3.408.975-3.633C19.828-1096.284,20.36-1096.265,22.042-1096.1Zm5.252.819a5.824,5.824,0,0,1,2.007.775c.131.219-.825.657-2.195.994a10.58,10.58,0,0,1-2.332.425c.013-.031.425-.569.925-1.2.813-1.031.925-1.144,1.063-1.119C26.85-1095.384,27.088-1095.327,27.294-1095.277Zm-22.267,1.063c.5.631.913,1.15.913,1.169a19.286,19.286,0,0,1-2-.369,6.245,6.245,0,0,1-2.564-.969,5.529,5.529,0,0,1,2.345-.957C4.039-1095.421,4.108-1095.359,5.027-1094.214Z" transform="translate(440 327.751)" fill="#fff"/>
    <rect id="Rectangle_2180" data-name="Rectangle 2180" width="32" height="32" transform="translate(440 -780.631)" fill="rgba(62,207,77,0)"/>
  </g>
</svg>
