<svg xmlns="http://www.w3.org/2000/svg" xmlns:xlink="http://www.w3.org/1999/xlink" width="25px" height="25px" viewBox="0 0 25 25" version="1.1">
<g id="surface1">
<path style=" stroke:none;fill-rule:nonzero;fill:#ffffff;fill-opacity:1;" d="M 23.4375 5.46875 L 18.46875 5.46875 C 19.117188 4.894531 19.53125 4.058594 19.53125 3.125 C 19.53125 1.398438 18.132812 0 16.40625 0 C 14.679688 0 13.28125 1.398438 13.28125 3.125 L 13.28125 5.46875 L 11.71875 5.46875 L 11.71875 3.125 C 11.71875 1.398438 10.320312 0 8.59375 0 C 6.867188 0 5.46875 1.398438 5.46875 3.125 C 5.46875 4.058594 5.882812 4.894531 6.53125 5.46875 L 1.5625 5.46875 C 0.699219 5.46875 0 6.167969 0 7.03125 L 0 10.15625 C 0 11.019531 0.699219 11.71875 1.5625 11.71875 L 1.5625 23.4375 C 1.5625 24.300781 2.261719 25 3.125 25 L 21.875 25 C 22.738281 25 23.4375 24.300781 23.4375 23.4375 L 23.4375 11.71875 C 24.300781 11.71875 25 11.019531 25 10.15625 L 25 7.03125 C 25 6.167969 24.300781 5.46875 23.4375 5.46875 Z M 10.9375 24.21875 L 3.125 24.21875 C 2.695312 24.21875 2.34375 23.867188 2.34375 23.4375 L 2.34375 11.71875 L 10.9375 11.71875 Z M 10.9375 10.9375 L 1.5625 10.9375 C 1.132812 10.9375 0.78125 10.585938 0.78125 10.15625 L 0.78125 7.03125 C 0.78125 6.601562 1.132812 6.25 1.5625 6.25 L 10.9375 6.25 Z M 8.59375 5.46875 C 7.300781 5.46875 6.25 4.417969 6.25 3.125 C 6.25 1.832031 7.300781 0.78125 8.59375 0.78125 C 9.886719 0.78125 10.9375 1.832031 10.9375 3.125 L 10.9375 5.46875 Z M 13.28125 24.21875 L 11.71875 24.21875 L 11.71875 11.71875 L 13.28125 11.71875 Z M 13.28125 10.9375 L 11.71875 10.9375 L 11.71875 6.25 L 13.28125 6.25 Z M 14.0625 3.125 C 14.0625 1.832031 15.113281 0.78125 16.40625 0.78125 C 17.699219 0.78125 18.75 1.832031 18.75 3.125 C 18.75 4.417969 17.699219 5.46875 16.40625 5.46875 L 14.0625 5.46875 Z M 22.65625 23.4375 C 22.65625 23.867188 22.304688 24.21875 21.875 24.21875 L 14.0625 24.21875 L 14.0625 11.71875 L 22.65625 11.71875 Z M 24.21875 10.15625 C 24.21875 10.585938 23.867188 10.9375 23.4375 10.9375 L 14.0625 10.9375 L 14.0625 6.25 L 23.4375 6.25 C 23.867188 6.25 24.21875 6.601562 24.21875 7.03125 Z M 24.21875 10.15625 "/>
<path style=" stroke:none;fill-rule:nonzero;fill:#ffffff;fill-opacity:1;" d="M 8.59375 1.5625 C 7.730469 1.5625 7.03125 2.261719 7.03125 3.125 C 7.03125 3.988281 7.730469 4.6875 8.59375 4.6875 L 10.15625 4.6875 L 10.15625 3.125 C 10.15625 2.261719 9.457031 1.5625 8.59375 1.5625 Z M 9.375 3.90625 L 8.59375 3.90625 C 8.164062 3.90625 7.8125 3.554688 7.8125 3.125 C 7.8125 2.695312 8.164062 2.34375 8.59375 2.34375 C 9.023438 2.34375 9.375 2.695312 9.375 3.125 Z M 9.375 3.90625 "/>
<path style=" stroke:none;fill-rule:nonzero;fill:#ffffff;fill-opacity:1;" d="M 17.96875 3.125 C 17.96875 2.261719 17.269531 1.5625 16.40625 1.5625 C 15.542969 1.5625 14.84375 2.261719 14.84375 3.125 L 14.84375 4.6875 L 16.40625 4.6875 C 17.269531 4.6875 17.96875 3.988281 17.96875 3.125 Z M 15.625 3.125 C 15.625 2.695312 15.976562 2.34375 16.40625 2.34375 C 16.835938 2.34375 17.1875 2.695312 17.1875 3.125 C 17.1875 3.554688 16.835938 3.90625 16.40625 3.90625 L 15.625 3.90625 Z M 15.625 3.125 "/>
</g>
</svg>