<svg xmlns="http://www.w3.org/2000/svg" xmlns:xlink="http://www.w3.org/1999/xlink" width="25px" height="25px" viewBox="0 0 25 25" version="1.1">
<g id="surface1">
<path style=" stroke:none;fill-rule:nonzero;fill:#ffffff;fill-opacity:1;" d="M 25 7.824219 C 25 6.960938 24.300781 6.261719 23.4375 6.261719 L 20.769531 6.261719 C 21.460938 5.582031 21.902344 4.6875 21.902344 3.589844 C 21.902344 2.234375 21.125 0.765625 18.941406 0.765625 C 16.070312 0.765625 13.671875 3.820312 12.546875 5.535156 C 11.417969 3.820312 8.945312 0.765625 6.074219 0.765625 C 3.894531 0.765625 3.117188 2.234375 3.117188 3.589844 C 3.117188 4.6875 3.570312 5.582031 4.273438 6.261719 L 1.5625 6.261719 C 0.699219 6.261719 0 6.960938 0 7.824219 L 0 12.5 L 1.574219 12.5 L 1.574219 22.667969 C 1.574219 23.53125 2.273438 24.230469 3.136719 24.230469 L 21.878906 24.230469 C 22.742188 24.230469 23.441406 23.53125 23.441406 22.667969 L 23.441406 12.5 L 25 12.5 Z M 18.941406 2.328125 C 19.910156 2.328125 20.339844 2.734375 20.339844 3.589844 C 20.339844 5.324219 18.402344 6.261719 16.582031 6.261719 L 13.9375 6.261719 C 15.046875 4.613281 17 2.328125 18.941406 2.328125 Z M 6.078125 2.328125 C 8.019531 2.328125 10.046875 4.613281 11.15625 6.261719 L 8.511719 6.261719 C 6.691406 6.261719 4.679688 5.300781 4.679688 3.566406 C 4.679688 2.710938 5.109375 2.328125 6.078125 2.328125 Z M 23.4375 10.9375 L 13.28125 10.9375 L 13.28125 7.824219 L 23.4375 7.824219 Z M 1.5625 7.824219 L 11.71875 7.824219 L 11.71875 10.9375 L 1.5625 10.9375 Z M 3.140625 12.5 L 11.71875 12.5 L 11.71875 22.671875 L 3.140625 22.671875 Z M 21.882812 22.671875 L 13.28125 22.671875 L 13.28125 12.503906 L 21.882812 12.503906 Z M 21.882812 22.671875 "/>
</g>
</svg>
