<svg xmlns="http://www.w3.org/2000/svg" width="32" height="32" viewBox="0 0 32 32">
  <g id="about-us-active" transform="translate(-1.819 0.922)">
    <path id="path0" d="M14.226.13A16.04,16.04,0,0,0,1.457,23.162,16.014,16.014,0,1,0,18.413.268,28.8,28.8,0,0,0,14.226.13m2.467,7.4a1.863,1.863,0,0,1-.879,3.55,1.864,1.864,0,0,1-1.934-2.23,1.97,1.97,0,0,1,2.813-1.32m-.052,5.291a2.08,2.08,0,0,1,1,.994l.206.418v9.246l-.206.418a2.017,2.017,0,0,1-3.689-.069l-.165-.351-.018-4.429c-.019-4.8-.016-4.856.317-5.41a2.047,2.047,0,0,1,2.553-.816" transform="translate(2 -1.021)" fill="#fff" fill-rule="evenodd"/>
    <rect id="Rectangle_2180" data-name="Rectangle 2180" width="32" height="32" transform="translate(1.819 -0.922)" fill="rgba(62,207,77,0)"/>
  </g>
</svg>
