<svg xmlns="http://www.w3.org/2000/svg" width="32" height="32" viewBox="0 0 32 32">
  <g id="our-services-active" transform="translate(-607 -422)">
    <path id="_002-repairing-service" data-name="002-repairing-service" d="M29.907,13.334a.977.977,0,0,0-.964-.739,3.312,3.312,0,0,1-2.267-5.764A.834.834,0,0,0,26.767,5.7a14.85,14.85,0,0,0-2.376-2.4.835.835,0,0,0-1.14.092,3.457,3.457,0,0,1-3.741.84A3.332,3.332,0,0,1,17.484.975.832.832,0,0,0,16.747.1,14.97,14.97,0,0,0,13.372.09a.835.835,0,0,0-.743.858,3.338,3.338,0,0,1-2.054,3.2A3.467,3.467,0,0,1,6.863,3.3a.836.836,0,0,0-1.132-.095A14.912,14.912,0,0,0,3.3,5.608a.834.834,0,0,0,.089,1.14,3.324,3.324,0,0,1,.839,3.743A3.467,3.467,0,0,1,.968,12.518a.816.816,0,0,0-.867.737A15.036,15.036,0,0,0,.1,16.665a.993.993,0,0,0,.984.738,3.29,3.29,0,0,1,3.087,2.055,3.337,3.337,0,0,1-.839,3.71.833.833,0,0,0-.091,1.13,14.9,14.9,0,0,0,2.373,2.4.834.834,0,0,0,1.142-.09,3.452,3.452,0,0,1,3.739-.841,3.327,3.327,0,0,1,2.03,3.255.833.833,0,0,0,.736.876,14.936,14.936,0,0,0,3.375.009.835.835,0,0,0,.742-.859,3.334,3.334,0,0,1,2.053-3.2,3.462,3.462,0,0,1,3.715.845.838.838,0,0,0,1.132.095,14.932,14.932,0,0,0,2.427-2.4.833.833,0,0,0-.089-1.14,3.323,3.323,0,0,1-.84-3.742,3.358,3.358,0,0,1,3.068-2.033l.186,0a.835.835,0,0,0,.878-.736A14.97,14.97,0,0,0,29.907,13.334ZM15,23.647a8.647,8.647,0,1,1,7.425-4.214l-3.787-3.787a5.3,5.3,0,0,0-6.28-7.185.6.6,0,0,0-.415.418.586.586,0,0,0,.166.573s1.869,1.884,2.495,2.509a.388.388,0,0,1,.056.278l-.006.041a11.955,11.955,0,0,1-.285,1.83l-.04.038-.042.043a11.784,11.784,0,0,1-1.858.289v0l-.031.008h-.03a.4.4,0,0,1-.288-.122c-.651-.651-2.447-2.434-2.447-2.434a.611.611,0,0,0-.437-.194.594.594,0,0,0-.559.452,5.305,5.305,0,0,0,7.187,6.27l3.828,3.828A8.6,8.6,0,0,1,15,23.647Z" transform="translate(607.998 423.001)" fill="#fff"/>
    <rect id="Rectangle_185" data-name="Rectangle 185" width="32" height="32" transform="translate(607 422)" fill="none"/>
  </g>
</svg>
