<svg xmlns="http://www.w3.org/2000/svg" width="32" height="32" viewBox="0 0 32 32">
  <g id="cancelling-or-freezing-active" transform="translate(4.602 2)">
    <path id="path0" d="M0,7.864v7.864H8.725v8.725h5.046l-.045-.341a9.355,9.355,0,0,1,7.2-10.274,9.476,9.476,0,0,1,2.321-.21l.378.039V0H0V7.864M17.866,4.748v.89H5.757V3.858H17.866v.89M12.346,8.31V9.2H5.757V7.419h6.588v.89m0,3.561v.89H5.757V10.981h6.588v.89m9.853,3.5a7.521,7.521,0,1,0,8.1,8.693,7.555,7.555,0,0,0-8.1-8.693M3.739,20.744c1.779,1.779,3.241,3.235,3.249,3.235S7,22.523,7,20.744V17.51H.5l3.234,3.235m18.147-.075,1.024,1.023,1.038-1.037,1.038-1.037.594.592.594.592-1.009,1.011a13.945,13.945,0,0,0-1.009,1.069,13.945,13.945,0,0,0,1.009,1.069l1.009,1.01-.594.592-.594.592-1.038-1.037-1.038-1.037-1.038,1.037-1.038,1.037-.594-.592-.594-.592,1.009-1.01a13.679,13.679,0,0,0,1.009-1.07,13.612,13.612,0,0,0-1.009-1.067l-1.009-1.007.577-.58c.318-.319.591-.58.608-.58s.491.46,1.055,1.023" transform="translate(-3.602 -1)" fill="#fff" fill-rule="evenodd"/>
    <rect id="Rectangle_2180" data-name="Rectangle 2180" width="32" height="32" transform="translate(-4.602 -2)" fill="rgba(62,207,77,0)"/>
  </g>
</svg>
