<svg xmlns="http://www.w3.org/2000/svg" width="32" height="32" viewBox="0 0 32 32">
  <g id="stores-services-active" transform="translate(-188 -1045)">
    <g id="Group_9853" data-name="Group 9853" transform="translate(189.333 1049)">
      <g id="Group_9850" data-name="Group 9850">
        <g id="Group_9849" data-name="Group 9849">
          <path id="Path_11526" data-name="Path 11526" d="M29.169,54.8l-4.583-6.417A.956.956,0,0,0,23.834,48H5.5a.956.956,0,0,0-.752.385L.165,54.8,0,55.3A3.674,3.674,0,0,0,3.667,59a3.635,3.635,0,0,0,2.75-1.247,3.656,3.656,0,0,0,5.5,0,3.656,3.656,0,0,0,5.5,0,3.656,3.656,0,0,0,5.5,0A3.635,3.635,0,0,0,25.667,59a3.674,3.674,0,0,0,3.667-3.7Z" transform="translate(0 -48.003)" fill="#fff"/>
        </g>
      </g>
      <g id="Group_9852" data-name="Group 9852" transform="translate(1.833 12.093)">
        <g id="Group_9851" data-name="Group 9851">
          <path id="Path_11527" data-name="Path 11527" d="M55.836,259.816a5.485,5.485,0,0,1-2.75-.741,5.618,5.618,0,0,1-5.5,0,5.618,5.618,0,0,1-5.5,0,5.618,5.618,0,0,1-5.5,0,5.574,5.574,0,0,1-4.583.383v9.524a1.834,1.834,0,0,0,1.833,1.833H48.5v-9.167H54v9.167h1.833a1.834,1.834,0,0,0,1.833-1.833v-9.5a5.466,5.466,0,0,1-1.83.334ZM43,267.149H35.67v-5.5H43Z" transform="translate(-32.003 -259.075)" fill="#fff"/>
        </g>
      </g>
    </g>
    <rect id="Rectangle_2180" data-name="Rectangle 2180" width="32" height="32" transform="translate(188 1045)" fill="none"/>
  </g>
</svg>
