<svg xmlns="http://www.w3.org/2000/svg" width="32" height="32" viewBox="0 0 32 32"><defs><style>.a{fill:#fff;}.b{fill:none;}</style></defs><g transform="translate(-274 -1018)"><g transform="translate(275 1006.3)"><g transform="translate(0 13.7)"><g transform="translate(0 0)"><path class="a" d="M22.851,123.445l-5.057-3.371a.521.521,0,0,0-.7.113l-1.473,1.893a1.579,1.579,0,0,1-2.023.417l-.272-.15a17.788,17.788,0,0,1-4.632-3.63,17.765,17.765,0,0,1-3.63-4.633l-.15-.272a1.578,1.578,0,0,1,.417-2.022l1.893-1.473a.52.52,0,0,0,.113-.7l-3.371-5.058a.518.518,0,0,0-.7-.157l-2.116,1.269a2.036,2.036,0,0,0-.932,1.2c-.695,2.531-.11,6.962,6.62,13.693s11.161,7.317,13.694,6.621a2.036,2.036,0,0,0,1.2-.932l1.268-2.116A.517.517,0,0,0,22.851,123.445Z" transform="translate(0 -99.02)"/><path class="a" d="M122.954,13.785a.291.291,0,0,0-.209-.085H100.293a.291.291,0,0,0-.295.295v7.8l1.273,1.91a1.6,1.6,0,0,1-.347,2.137l-1.891,1.473a.511.511,0,0,0-.138.655l.154.281a13.511,13.511,0,0,0,1.788,2.606h21.907a.293.293,0,0,0,.295-.288V13.994A.291.291,0,0,0,122.954,13.785ZM107.73,23.53v0l-5.489,5.881a.536.536,0,0,1-.784-.731l5.489-5.878a.536.536,0,0,1,.784.731Zm3.789-.422a1.776,1.776,0,0,1-1.072-.354l-8.956-6.791a.537.537,0,0,1,.651-.854l8.952,6.791a.723.723,0,0,0,.85,0l8.955-6.791a.536.536,0,1,1,.648.854l-8.956,6.791A1.776,1.776,0,0,1,111.519,23.108Zm10.069,6.327a.536.536,0,0,1-.758-.026l-5.489-5.881a.536.536,0,0,1,.785-.728l5.488,5.878A.536.536,0,0,1,121.588,29.435Z" transform="translate(-93.039 -13.7)"/></g></g></g><rect class="b" width="32" height="32" transform="translate(274 1018)"/></g></svg>