<svg xmlns="http://www.w3.org/2000/svg" width="32" height="32" viewBox="0 0 32 32"><defs><style>.a{fill:none;}.b{fill:#000;}</style></defs><g transform="translate(-107 -545)"><rect class="a" width="32" height="32" transform="translate(107 545)"/><g transform="translate(108.333 546.333)"><path class="b" d="M19.5,2.358,6.191,9.173.9,6.569,13.977.112a1.072,1.072,0,0,1,.953,0Z" transform="translate(0.2 -0.001)"/><path class="b" d="M26.606,5.916l-13.545,6.71-5.072-2.5-.733-.373L20.582,2.94l.733.372Z" transform="translate(1.612 0.653)"/><path class="b" d="M13.589,13.667l-.015,14.12L.6,21.017a1.133,1.133,0,0,1-.6-1V6.957L5.5,9.665v4.762a1.1,1.1,0,1,0,2.2,0V10.767l.733.357Z" transform="translate(0 1.545)"/><path class="b" d="M26.451,6.969,12.921,13.65l-.015,14.12,13.559-7.08Z" transform="translate(2.868 1.548)"/></g></g></svg>