<svg xmlns="http://www.w3.org/2000/svg" width="32" height="32" viewBox="0 0 32 32">
  <g id="events_-tournaments-esports" data-name="events,-tournaments-esports" transform="translate(-1.813 0.922)">
    <rect id="Rectangle_2180" data-name="Rectangle 2180" width="32" height="32" transform="translate(1.813 -0.922)" fill="rgba(62,207,77,0)"/>
    <g id="_001-game-controller" data-name="001-game-controller" transform="translate(1.653 439.004)">
      <path id="Path_13" data-name="Path 13" d="M8.76-434.8c-2.195.538-4.389,2.8-6.021,6.215C.494-423.876-.444-417.93.562-414.766a3.314,3.314,0,0,0,1.494,2.032,2.2,2.2,0,0,0,.907.175,6.345,6.345,0,0,0,4.546-1.995c.244-.219.85-.775,1.344-1.238s1.119-1.013,1.394-1.232a9.27,9.27,0,0,1,4.339-1.938,12.252,12.252,0,0,1,2.789-.025,11.456,11.456,0,0,1,3.939,1.6c.7.444,1.413.969,2.97,2.188,2.051,1.6,3.033,2.182,4.121,2.457a2.64,2.64,0,0,0,1.588.006c2.276-.7,2.826-5.346,1.326-11.167s-4.564-10.142-7.735-10.9c-.5-.119-.738-.125-7.428-.119C9.573-434.924,9.222-434.918,8.76-434.8Zm15.819,2.651a1.953,1.953,0,0,1,.6.344,1.805,1.805,0,0,1-.413,3.014,2.075,2.075,0,0,1-1.526,0,1.732,1.732,0,0,1-1.019-1.651,1.665,1.665,0,0,1,.607-1.357A1.773,1.773,0,0,1,24.579-432.148Zm-13.512.238a4.108,4.108,0,0,1,3.008,3.8,3.964,3.964,0,0,1-.425,2.063,4.353,4.353,0,0,1-1.876,1.863,4.153,4.153,0,0,1-5.59-1.895,4.261,4.261,0,0,1,.075-3.8,4.379,4.379,0,0,1,1.77-1.719,3.548,3.548,0,0,1,1.882-.444A3.374,3.374,0,0,1,11.067-431.911Zm10.217,2.295a1.372,1.372,0,0,1,.688,1.113,1.373,1.373,0,0,1-.957,1.251,1.252,1.252,0,0,1-1.382-.506,1.281,1.281,0,0,1,.163-1.651A1.366,1.366,0,0,1,21.284-429.616Zm5.127,2.063a1.268,1.268,0,0,1,.632,1.419,1.253,1.253,0,0,1-1.257.982,1.123,1.123,0,0,1-.932-.438,1.038,1.038,0,0,1-.319-.844,1.155,1.155,0,0,1,.388-.919A1.264,1.264,0,0,1,26.411-427.553Zm-3.189,1.082a1.926,1.926,0,0,1,.375,3.189,1.948,1.948,0,0,1-3.045-.632,1.5,1.5,0,0,1-.169-.825,1.717,1.717,0,0,1,.594-1.407A1.842,1.842,0,0,1,23.222-426.471Z" transform="translate(0 0)"/>
      <path id="Path_14" data-name="Path 14" d="M123.039-355.776a2.1,2.1,0,0,0-1.285,1.317,2.169,2.169,0,0,0,2.374,2.83,2.113,2.113,0,0,0,1.646-1.254,1.683,1.683,0,0,0,.165-.893,1.916,1.916,0,0,0-.608-1.513A2.157,2.157,0,0,0,123.039-355.776Z" transform="translate(-113.902 -74.078)"/>
    </g>
  </g>
</svg>
