<svg xmlns="http://www.w3.org/2000/svg" width="32" height="32" viewBox="0 0 32 32">
  <g id="facilities" transform="translate(-30 -14.406)">
    <path id="path0" d="M21.188,16.508c-.214.15-.3.41-.388,1.2-.078.688-.087.716-.263.812-.1.055-.344.2-.542.327l-.36.228-.726-.306c-1.192-.5-1.235-.481-2.1,1.034-.785,1.378-.78,1.431.2,2.172l.638.481v1.261l-.638.481c-.983.741-.988.8-.2,2.174.863,1.515.914,1.54,2.1,1.029l.716-.309.364.231c.2.127.446.275.547.33.176.1.185.124.263.812.151,1.329.118,1.306,1.869,1.306H24l.2-.2c.187-.187.209-.253.278-.828.128-1.058.078-.962.679-1.312a2.5,2.5,0,0,1,.6-.292c.037.011.358.145.714.3,1.1.471,1.155.446,1.954-.952.876-1.532.876-1.526-.112-2.27l-.66-.5V22.463l.661-.5c1-.753,1-.715.112-2.27-.78-1.37-.867-1.418-1.831-1L25.889,19c-.185.078-.215.07-.56-.159a4.5,4.5,0,0,0-.532-.311c-.186-.077-.191-.094-.311-1.09-.069-.575-.092-.641-.278-.828l-.2-.2H22.669c-1.134,0-1.358.015-1.481.1m2.221,4.073a2.671,2.671,0,0,1,1.845,2.9,2.6,2.6,0,0,1-5.166-.391,2.552,2.552,0,0,1,3.321-2.51M.191,31.263,0,31.454v6.438c0,6.3,0,6.439.121,6.5a16.82,16.82,0,0,0,3.738-.06c.272-.166.132.272,1.829-5.717C7.312,32.889,7.274,33.067,7,32.533c-.4-.787-2.5-1.353-5.3-1.426L.382,31.072l-.191.191M9.044,33.7c-.018.131-.644,2.4-1.391,5.033s-1.349,4.8-1.335,4.817c.069.065,2.7,1.183,3.839,1.632,4.12,1.624,6.519,2.138,8.419,1.806,3.63-.635,11.06-4.03,13.054-5.965.889-.863.093-2.215-1.5-2.553-1.291-.273-2.315.011-6.916,1.916-3.831,1.586-4.88,1.7-7.324.789-.935-.348-2.961-1.406-2.515-1.313.567.118,2.978.43,4,.517,2.819.241,3.956-.22,3.962-1.6.007-1.565-1.387-2.362-5.139-2.937l-.833-.128-.854-.49a10.562,10.562,0,0,0-4.478-1.631c-.309-.037-.65-.081-.757-.1-.185-.029-.2-.019-.227.208" transform="translate(30 -1)" fill-rule="evenodd"/>
    <rect id="Rectangle_2180" data-name="Rectangle 2180" width="32" height="32" transform="translate(30 14.406)" fill="rgba(62,207,77,0)"/>
  </g>
</svg>
