<svg xmlns="http://www.w3.org/2000/svg" width="32" height="32" viewBox="0 0 32 32">
  <g id="general-faq-active" transform="translate(4.203 510.956)">
    <g id="Group_13" data-name="Group 13" transform="translate(-3.397 2)">
      <path id="Path_16" data-name="Path 16" d="M10.268-511.871a11.181,11.181,0,0,0-3.037.8,11.492,11.492,0,0,0-6.139,6.121,11.511,11.511,0,0,0,.416,9.8l.264.487L1-491.9c-.422,1.525-.756,2.779-.739,2.791s1.266-.323,2.785-.745l2.768-.768.481.264a11.335,11.335,0,0,0,4.966,1.3,11.436,11.436,0,0,0,11.492-8.66,11.4,11.4,0,0,0-3.049-10.9A11.394,11.394,0,0,0,10.268-511.871Zm2.123,5.271a3.557,3.557,0,0,1,2.392,1.87,3.187,3.187,0,0,1,.352,1.566,3.213,3.213,0,0,1-.317,1.5,5.159,5.159,0,0,1-1.454,1.7l-.868.792v1.343H10.8v-2.158l.686-.639c1.841-1.695,1.894-1.765,1.894-2.539a1.562,1.562,0,0,0-.575-1.3,1.762,1.762,0,0,0-1.155-.463,1.809,1.809,0,0,0-1.73,1.536v.223H8.157v-.281a3.485,3.485,0,0,1,1.39-2.527A3.527,3.527,0,0,1,12.391-506.6Zm.106,11.41v.88H10.8v-1.759h1.7Z" transform="translate(0 0)" fill="#fff"/>
      <path id="Path_17" data-name="Path 17" d="M212.128-312.167a13.234,13.234,0,0,1-12.12,12.131c-.451.041-.827.076-.838.082a9.62,9.62,0,0,0,.921,1.478,12.39,12.39,0,0,0,2.146,2.064,12.013,12.013,0,0,0,2.592,1.29,8.323,8.323,0,0,0,2.979.44,7.854,7.854,0,0,0,1.777-.129,10.168,10.168,0,0,0,2.545-.862l.639-.317,2.322.645c1.278.352,2.334.633,2.345.622s-.27-1.067-.622-2.345l-.645-2.322.317-.639a10.168,10.168,0,0,0,.862-2.545,7.854,7.854,0,0,0,.129-1.777,8.325,8.325,0,0,0-.44-2.979,12.016,12.016,0,0,0-1.29-2.592,12.388,12.388,0,0,0-2.064-2.146,14.162,14.162,0,0,0-1.466-.932A7.872,7.872,0,0,0,212.128-312.167Z" transform="translate(-187.307 -187.291)" fill="#fff"/>
    </g>
    <rect id="Rectangle_2180" data-name="Rectangle 2180" width="32" height="32" transform="translate(-4.203 -510.956)" fill="rgba(62,207,77,0)"/>
  </g>
</svg>
