<svg version="1.2" xmlns="http://www.w3.org/2000/svg" viewBox="0 0 32 32" width="32" height="32">
	<title>gift-cards</title>
	<style>
		.s0 { fill: #000000 } 
	</style>
	<g id="Layer">
		<path id="Layer" fill-rule="evenodd" class="s0" d="m11.4 1c1.4 0.6 2.4 1.3 3.2 2.1 0.6 0.6 0.8 1 0.9 1.5 0 0.4 0 0.4-0.2 0.8-0.5 1-1.8 1.5-4.2 1.8-3.6 0.4-6.3-0.7-6.7-2.8-0.2-0.9 0-2.2 0.5-3 0.5-0.6 1.3-1.2 2.1-1.3 1.3-0.2 2.7 0 4.4 0.9zm-3.4 1.4c-0.2 0-0.7 0.1-0.9 0.1-0.2 0.2-0.3 0.4-0.4 0.9 0 0.4 0 0.5 0.1 0.7 0.3 0.6 1.8 0.9 3.7 0.8 0.8-0.1 1.9-0.3 2-0.4 0.1-0.1-1.1-0.9-2.1-1.4-0.6-0.3-1.5-0.6-1.9-0.6-0.2-0.1-0.5-0.1-0.5-0.1z"/>
		<path id="Layer" fill-rule="evenodd" class="s0" d="m25.3 0.1c1.3 0.4 2.2 1.5 2.4 3.1 0.2 1.5-0.5 2.8-1.8 3.4-1.2 0.6-3 0.8-4.8 0.7-2.4-0.3-4-1-4.4-1.9-0.5-1.1 0.2-2.1 2.2-3.5 1.5-0.9 2.9-1.6 4.3-1.8 0.5-0.1 1.6-0.1 2.1 0zm-1.6 2.3c-1 0.2-2.3 0.7-3.5 1.5-0.5 0.4-0.7 0.6-0.7 0.6 0.1 0.1 1.4 0.3 2.1 0.4 1.6 0.1 3-0.2 3.5-0.6 0.2-0.3 0.2-0.3 0.2-0.6 0-0.7-0.3-1.2-0.7-1.2-0.4-0.1-0.5-0.1-0.9-0.1z"/>
		<path id="Layer" class="s0" d="m1.5 8.6c-0.3 0.1-0.6 0.4-0.7 0.7-0.1 0.2-0.1 0.4-0.2 2.8 0 2.9 0 3 0.4 3.4 0.1 0.1 0.3 0.3 0.5 0.4l0.3 0.2h6.3c5.4 0 6.4-0.1 6.5-0.1 0.1-0.1 0.1-0.2 0.1-3.7v-3.6l-0.1-0.1c-0.2-0.2-0.4-0.2-6.5-0.2-6 0-6.3 0-6.6 0.2z"/>
		<path id="Layer" class="s0" d="m17.4 8.6c-0.1 0.2-0.1 0.2-0.1 3.7 0 3.4 0 3.4 0.1 3.6l0.1 0.2h6.4 6.3l0.3-0.2c0.2-0.1 0.4-0.3 0.5-0.4 0.4-0.4 0.4-0.5 0.4-3.4-0.1-2.4-0.1-2.6-0.2-2.8-0.1-0.3-0.4-0.6-0.7-0.7-0.3-0.2-0.6-0.2-6.6-0.2h-6.4z"/>
		<path id="Layer" class="s0" d="m3.4 17.8c-0.4 0.1-0.7 0.4-0.9 0.8l-0.2 0.3v6 6l0.2 0.3q0.2 0.4 0.8 0.7c0.2 0.1 0.3 0.1 5.7 0.1h5.6l0.1-0.1c0-0.2 0.1-1 0-7v-6.8l-0.1-0.2-0.2-0.1h-5.3c-4.2 0-5.4 0-5.7 0z"/>
		<path id="Layer" class="s0" d="m17.6 17.8c-0.4 0.2-0.4-0.1-0.4 7.2 0 6.7 0 6.7 0.2 6.9 0.1 0.1 0.2 0.1 5.6 0.1 5.4 0 5.5 0 5.7-0.1q0.6-0.3 0.8-0.7l0.2-0.3v-6-6l-0.2-0.3c-0.2-0.4-0.6-0.7-1-0.8-0.5-0.1-10.7-0.1-10.9 0z"/>
	</g>
</svg>