<?xml version="1.0" standalone="no"?>
<!DOCTYPE svg PUBLIC "-//W3C//DTD SVG 20010904//EN"
 "http://www.w3.org/TR/2001/REC-SVG-20010904/DTD/svg10.dtd">
<svg version="1.0" xmlns="http://www.w3.org/2000/svg"
 width="512.000000pt" height="512.000000pt" viewBox="0 0 512.000000 512.000000"
 preserveAspectRatio="xMidYMid meet">

<g transform="translate(0.000000,512.000000) scale(0.100000,-0.100000)"
fill="#000000" stroke="none">
<path d="M1124 5105 c-138 -25 -264 -107 -334 -216 -78 -121 -119 -335 -91
-472 72 -344 495 -521 1083 -452 382 45 593 136 669 291 28 57 31 71 26 123
-7 82 -46 150 -137 242 -126 127 -286 235 -511 344 -280 135 -497 178 -705
140z m230 -380 c76 -7 212 -53 316 -105 158 -79 348 -206 332 -222 -16 -16
-195 -47 -327 -56 -296 -21 -533 31 -589 127 -18 31 -19 40 -8 103 14 81 33
123 65 140 24 13 101 26 132 22 11 -1 47 -5 79 -9z"/>
<path d="M3709 5106 c-217 -39 -452 -140 -686 -296 -318 -211 -426 -379 -353
-549 67 -154 316 -260 710 -301 283 -29 572 9 758 101 213 106 325 313 294
546 -35 259 -169 429 -387 490 -73 20 -246 25 -336 9z m232 -380 c65 -11 109
-88 109 -193 0 -51 -3 -59 -38 -93 -77 -77 -293 -116 -554 -99 -110 7 -324 42
-337 54 -9 9 27 39 119 101 189 126 394 213 548 233 66 9 81 8 153 -3z"/>
<path d="M245 3751 c-50 -22 -96 -67 -121 -118 -18 -35 -19 -69 -22 -457 -3
-456 -2 -468 53 -540 15 -19 50 -46 78 -61 l51 -25 1016 0 c862 0 1019 2 1036
14 18 14 19 32 19 591 l0 577 -24 19 c-23 18 -54 19 -1035 19 -957 0 -1013 -1
-1051 -19z"/>
<path d="M2781 3744 c-21 -26 -21 -35 -21 -584 0 -549 0 -558 21 -584 l20 -26
1018 0 1017 0 51 25 c28 15 63 42 78 61 55 72 56 84 53 540 -3 388 -4 422 -22
457 -25 51 -71 96 -121 118 -38 18 -94 19 -1057 19 l-1017 0 -20 -26z"/>
<path d="M547 2266 c-62 -17 -116 -61 -147 -122 l-25 -48 0 -961 0 -960 22
-40 c28 -52 68 -89 123 -114 44 -20 61 -21 927 -21 l883 0 15 23 c14 21 15
148 13 1115 l-3 1091 -23 23 -23 23 -857 2 c-675 1 -867 -1 -905 -11z"/>
<path d="M2810 2267 c-51 -26 -50 14 -50 -1144 0 -1070 0 -1083 20 -1103 20
-20 33 -20 898 -20 861 0 878 1 922 21 55 25 95 62 123 114 l22 40 0 960 0
961 -26 49 c-32 62 -93 110 -159 124 -78 17 -1717 15 -1750 -2z"/>
</g>
</svg>
