<?xml version="1.0" encoding="UTF-8"?>
<svg xmlns="http://www.w3.org/2000/svg" xmlns:xlink="http://www.w3.org/1999/xlink" viewBox="0 0 32 32" width="32px" height="32px">
<g id="surface873807">
<path style=" stroke:none;fill-rule:nonzero;fill:rgb(0%,0%,0%);fill-opacity:1;" d="M 10.238281 15.359375 L 10.238281 22.398438 L 11.519531 22.398438 L 11.519531 15.359375 Z M 7.679688 17.28125 L 7.679688 20.480469 L 8.960938 20.480469 L 8.960938 17.28125 Z M 7.679688 17.28125 L 7.679688 20.480469 L 8.960938 20.480469 L 8.960938 17.28125 Z M 10.238281 15.359375 L 10.238281 22.398438 L 11.519531 22.398438 L 11.519531 15.359375 Z M 7.679688 17.28125 L 7.679688 20.480469 L 8.960938 20.480469 L 8.960938 17.28125 Z M 7.679688 17.28125 L 7.679688 20.480469 L 8.960938 20.480469 L 8.960938 17.28125 Z M 10.238281 15.359375 L 10.238281 22.398438 L 11.519531 22.398438 L 11.519531 15.359375 Z M 10.238281 15.359375 L 10.238281 22.398438 L 11.519531 22.398438 L 11.519531 15.359375 Z M 7.679688 17.28125 L 7.679688 20.480469 L 8.960938 20.480469 L 8.960938 17.28125 Z M 7.679688 17.28125 L 7.679688 20.480469 L 8.960938 20.480469 L 8.960938 17.28125 Z M 10.238281 15.359375 L 10.238281 22.398438 L 11.519531 22.398438 L 11.519531 15.359375 Z M 20.480469 15.359375 L 20.480469 22.398438 L 21.761719 22.398438 L 21.761719 15.359375 Z M 10.238281 15.359375 L 10.238281 22.398438 L 11.519531 22.398438 L 11.519531 15.359375 Z M 7.679688 17.28125 L 7.679688 20.480469 L 8.960938 20.480469 L 8.960938 17.28125 Z M 7.679688 17.28125 L 7.679688 20.480469 L 8.960938 20.480469 L 8.960938 17.28125 Z M 10.238281 15.359375 L 10.238281 22.398438 L 11.519531 22.398438 L 11.519531 15.359375 Z M 23.039062 17.28125 L 23.039062 20.480469 L 24.320312 20.480469 L 24.320312 17.28125 Z M 23.039062 17.28125 L 23.039062 20.480469 L 24.320312 20.480469 L 24.320312 17.28125 Z M 20.480469 22.398438 L 21.761719 22.398438 L 21.761719 15.359375 L 20.480469 15.359375 Z M 10.238281 22.398438 L 11.519531 22.398438 L 11.519531 15.359375 L 10.238281 15.359375 Z M 7.679688 20.480469 L 8.960938 20.480469 L 8.960938 17.28125 L 7.679688 17.28125 Z M 31.117188 12.292969 L 16.398438 0.804688 C 16.160156 0.628906 15.839844 0.628906 15.601562 0.804688 L 0.882812 12.292969 C 0.609375 12.511719 0.558594 12.914062 0.773438 13.195312 C 0.992188 13.472656 1.394531 13.523438 1.675781 13.304688 L 2.558594 12.613281 L 2.558594 29.441406 C 2.558594 29.792969 2.847656 30.078125 3.199219 30.078125 L 28.800781 30.078125 C 29.152344 30.078125 29.441406 29.792969 29.441406 29.441406 L 29.441406 12.613281 L 30.324219 13.304688 C 30.445312 13.394531 30.578125 13.441406 30.71875 13.441406 C 30.910156 13.441406 31.097656 13.355469 31.226562 13.195312 C 31.441406 12.914062 31.390625 12.511719 31.117188 12.292969 Z M 25.601562 21.121094 C 25.601562 21.472656 25.3125 21.761719 24.960938 21.761719 L 23.039062 21.761719 L 23.039062 23.039062 C 23.039062 23.390625 22.753906 23.679688 22.398438 23.679688 L 19.839844 23.679688 C 19.488281 23.679688 19.199219 23.390625 19.199219 23.039062 L 19.199219 19.839844 L 12.800781 19.839844 L 12.800781 23.039062 C 12.800781 23.390625 12.511719 23.679688 12.160156 23.679688 L 9.601562 23.679688 C 9.246094 23.679688 8.960938 23.390625 8.960938 23.039062 L 8.960938 21.761719 L 7.039062 21.761719 C 6.6875 21.761719 6.398438 21.472656 6.398438 21.121094 L 6.398438 16.640625 C 6.398438 16.289062 6.6875 16 7.039062 16 L 8.960938 16 L 8.960938 14.71875 C 8.960938 14.367188 9.246094 14.078125 9.601562 14.078125 L 12.160156 14.078125 C 12.511719 14.078125 12.800781 14.367188 12.800781 14.71875 L 12.800781 17.921875 L 19.199219 17.921875 L 19.199219 14.71875 C 19.199219 14.367188 19.488281 14.078125 19.839844 14.078125 L 22.398438 14.078125 C 22.753906 14.078125 23.039062 14.367188 23.039062 14.71875 L 23.039062 16 L 24.960938 16 C 25.3125 16 25.601562 16.289062 25.601562 16.640625 Z M 23.039062 20.480469 L 24.320312 20.480469 L 24.320312 17.28125 L 23.039062 17.28125 Z M 20.480469 22.398438 L 21.761719 22.398438 L 21.761719 15.359375 L 20.480469 15.359375 Z M 10.238281 22.398438 L 11.519531 22.398438 L 11.519531 15.359375 L 10.238281 15.359375 Z M 7.679688 20.480469 L 8.960938 20.480469 L 8.960938 17.28125 L 7.679688 17.28125 Z M 7.679688 17.28125 L 7.679688 20.480469 L 8.960938 20.480469 L 8.960938 17.28125 Z M 10.238281 15.359375 L 10.238281 22.398438 L 11.519531 22.398438 L 11.519531 15.359375 Z M 20.480469 15.359375 L 20.480469 22.398438 L 21.761719 22.398438 L 21.761719 15.359375 Z M 10.238281 15.359375 L 10.238281 22.398438 L 11.519531 22.398438 L 11.519531 15.359375 Z M 7.679688 17.28125 L 7.679688 20.480469 L 8.960938 20.480469 L 8.960938 17.28125 Z M 7.679688 17.28125 L 7.679688 20.480469 L 8.960938 20.480469 L 8.960938 17.28125 Z M 10.238281 15.359375 L 10.238281 22.398438 L 11.519531 22.398438 L 11.519531 15.359375 Z M 10.238281 15.359375 L 10.238281 22.398438 L 11.519531 22.398438 L 11.519531 15.359375 Z M 7.679688 17.28125 L 7.679688 20.480469 L 8.960938 20.480469 L 8.960938 17.28125 Z M 7.679688 17.28125 L 7.679688 20.480469 L 8.960938 20.480469 L 8.960938 17.28125 Z M 10.238281 15.359375 L 10.238281 22.398438 L 11.519531 22.398438 L 11.519531 15.359375 Z M 10.238281 15.359375 L 10.238281 22.398438 L 11.519531 22.398438 L 11.519531 15.359375 Z M 7.679688 17.28125 L 7.679688 20.480469 L 8.960938 20.480469 L 8.960938 17.28125 Z M 7.679688 17.28125 L 7.679688 20.480469 L 8.960938 20.480469 L 8.960938 17.28125 Z M 10.238281 15.359375 L 10.238281 22.398438 L 11.519531 22.398438 L 11.519531 15.359375 Z M 7.679688 17.28125 L 7.679688 20.480469 L 8.960938 20.480469 L 8.960938 17.28125 Z M 7.679688 17.28125 L 7.679688 20.480469 L 8.960938 20.480469 L 8.960938 17.28125 Z M 7.679688 17.28125 "/>
</g>
</svg>
