<svg width="27" height="24" viewBox="0 0 27 24" fill="none" xmlns="http://www.w3.org/2000/svg">
<path d="M4.26582 11.2092V21C4.26582 22.1046 5.16125 23 6.26582 23H21.2462C22.3508 23 23.2462 22.1046 23.2462 21V12.6471M23.2462 12.6471L25.6107 10.2826C26.2514 9.64188 26.3813 8.65047 25.9273 7.8663L22.5298 1.99793C22.1723 1.38029 21.5127 1 20.799 1H6.76741C6.02485 1 5.34341 1.4114 4.99757 2.06851L1.86937 8.01208C1.49224 8.72863 1.58439 9.60188 2.10277 10.2239L2.25256 10.4037C2.90689 11.1889 4.04797 11.3544 4.89841 10.7874L5.9212 10.1056C6.71444 9.57674 7.77068 9.68133 8.44481 10.3555L8.98197 10.8926C9.7265 11.6371 10.9208 11.6769 11.7132 10.9836L12.3479 10.4282C13.1403 9.73485 14.3346 9.77462 15.0791 10.5192L15.4526 10.8926C16.1971 11.6371 17.3914 11.6769 18.1838 10.9836L18.7215 10.5131C19.5527 9.78572 20.8163 9.86996 21.5436 10.7012L23.2462 12.6471Z" stroke="black" stroke-width="1.5"/>
<path d="M8.24622 3.5L7.24622 7.5" stroke="black" stroke-width="1.5" stroke-linecap="round"/>
<path d="M19.2462 3.5L20.2462 7.5" stroke="black" stroke-width="1.5" stroke-linecap="round"/>
<path d="M14.2142 3.50003L14.251 7.62297" stroke="black" stroke-width="1.5" stroke-linecap="round"/>
<path d="M14.6188 18.0981V21.0001C14.6188 22.1047 15.5142 23.0001 16.6188 23.0001H17.7952C18.8998 23.0001 19.7952 22.1047 19.7952 21.0001V18.0981C19.7952 16.9936 18.8998 16.0981 17.7952 16.0981H16.6188C15.5142 16.0981 14.6188 16.9936 14.6188 18.0981Z" stroke="black" stroke-width="1.5"/>
<path d="M7.7168 18.0393C7.7168 16.9672 8.58589 16.0981 9.65797 16.0981C10.7301 16.0981 11.5991 16.9672 11.5991 18.0393C11.5991 19.1114 10.7301 19.9805 9.65797 19.9805C8.58589 19.9805 7.7168 19.1114 7.7168 18.0393Z" stroke="black" stroke-width="1.5"/>
</svg>
