<svg xmlns="http://www.w3.org/2000/svg" width="32" height="32" viewBox="0 0 32 32">
  <g id="membership-info-active" transform="translate(-4 -68)">
    <rect id="Rectangle_2180" data-name="Rectangle 2180" width="32" height="32" transform="translate(4 68)" fill="rgba(62,207,77,0)"/>
    <path id="path0" d="M0,81.406V91.719H32V71.094H0V81.406m15.875-2.25,1.218,2.438-3.359,3.359-3.359,3.359L7.016,84.954,3.657,81.595l1.218-2.438,1.218-2.438h8.565l1.218,2.438m12.312-1.5v.938H18.812V76.719h9.375v.938M6.7,79.5c-.249.5-.452.921-.452.938s1.856.031,4.125.031,4.125-.014,4.125-.031-.2-.439-.452-.938l-.452-.907H7.154L6.7,79.5m21.485,1.906v.938H18.812V80.469h9.375v.938M8.672,84.047l1.7,1.7,1.7-1.7,1.7-1.7H6.969l1.7,1.7m19.516,1.11v.938H18.812V84.219h9.375v.938" transform="translate(4 2.906)" fill="#fff" fill-rule="evenodd"/>
  </g>
</svg>
