<svg xmlns="http://www.w3.org/2000/svg" width="32" height="32" viewBox="0 0 32 32">
  <g id="orders-payments-active" transform="translate(-570 -832)">
    <g id="Group_9846" data-name="Group 9846" transform="translate(571.333 834.667)">
      <path id="Path_11514" data-name="Path 11514" d="M127.127,103.1l10.93-6.311-5.141-2.968-10.93,6.311Z" transform="translate(-115.755 -90.475)" fill="#fff"/>
      <path id="Path_11515" data-name="Path 11515" d="M33.953,159.4,23,153.085v12.623l10.953,6.311Z" transform="translate(-23 -146.012)" fill="#fff"/>
      <rect id="Rectangle_2175" data-name="Rectangle 2175" width="1.196" height="1.196" transform="translate(20.647 19.846)" fill="#fff"/>
      <path id="Path_11516" data-name="Path 11516" d="M211,159.4v12.623l5.98-3.458v-9.112a1.891,1.891,0,0,1,1.882-1.9h1.568a1.544,1.544,0,0,1,1.474-1.133h-.014v-3.331Z" transform="translate(-199.166 -146.012)" fill="#fff"/>
      <rect id="Rectangle_2176" data-name="Rectangle 2176" width="3.84" height="1.322" rx="0.661" transform="translate(22.094 11.285)" fill="#fff"/>
      <path id="Path_11517" data-name="Path 11517" d="M45.851,43.551l-4.908-2.834-10.93,6.311,4.908,2.834Z" transform="translate(-29.572 -40.717)" fill="#fff"/>
      <path id="Path_11518" data-name="Path 11518" d="M329.625,238H328.04a1.507,1.507,0,0,1-1.457,1.07h-2.541a1.507,1.507,0,0,1-1.457-1.07H321a1.009,1.009,0,0,0-1,1.019V251.74a.984.984,0,0,0,1,.989h8.625a.994.994,0,0,0,1.012-.989V239.019A1.019,1.019,0,0,0,329.625,238Zm-8.555,2.961a.44.44,0,0,1,.437-.443h2.076a.447.447,0,0,1,.445.443v.3a.442.442,0,0,1-.443.44.424.424,0,0,1-.419-.3h-1.215v1.2h.017a.441.441,0,1,1,0,.881h-.461a.438.438,0,0,1-.437-.44Zm0,4.027a.441.441,0,0,1,.441-.441h2.077a.441.441,0,0,1,.441.441v2.077a.441.441,0,0,1-.441.441H321.51a.441.441,0,0,1-.441-.441Zm.9,6.546h-.461a.425.425,0,0,1-.437-.425v-2.076a.453.453,0,0,1,.437-.458h2.076a.46.46,0,0,1,.445.458v.425a.443.443,0,1,1-.886,0h-1.191v1.2h.017a.441.441,0,0,1,0,.881Zm3.252-1.716-1.6,1.6a.441.441,0,0,1-.623,0l-.7-.7a.441.441,0,0,1,.623-.623l.393.393,1.29-1.29a.441.441,0,1,1,.623.623Zm0-8.136-1.6,1.6a.441.441,0,0,1-.623,0l-.7-.7a.441.441,0,0,1,.623-.623l.393.393,1.29-1.29a.441.441,0,0,1,.623.623Zm3.9,8.845H326.35a.441.441,0,1,1,0-.881h2.768a.441.441,0,0,1,0,.881Zm0-4.029H326.35a.441.441,0,1,1,0-.881h2.768a.441.441,0,0,1,0,.881Zm0-4.029H326.35a.441.441,0,1,1,0-.881h2.768a.441.441,0,0,1,0,.881Z" transform="translate(-301.304 -225.582)" fill="#fff"/>
    </g>
    <rect id="Rectangle_2177" data-name="Rectangle 2177" width="32" height="32" transform="translate(570 832)" fill="none"/>
  </g>
</svg>
