<?xml version="1.0" standalone="no"?>
<!DOCTYPE svg PUBLIC "-//W3C//DTD SVG 20010904//EN"
 "http://www.w3.org/TR/2001/REC-SVG-20010904/DTD/svg10.dtd">
<svg version="1.0" xmlns="http://www.w3.org/2000/svg"
 width="50.000000pt" height="50.000000pt" viewBox="0 0 50.000000 50.000000"
 preserveAspectRatio="xMidYMid meet">

<g transform="translate(0.000000,50.000000) scale(0.100000,-0.100000)"
fill="#000000" stroke="none">
<path d="M130 399 c-109 -85 -144 -120 -106 -106 14 6 16 -8 16 -128 l0 -135
210 0 210 0 0 135 c0 120 2 134 16 128 38 -14 3 21 -106 106 -63 50 -117 91
-120 90 -3 0 -57 -40 -120 -90z m70 -149 c0 -29 1 -30 50 -30 49 0 50 1 50 30
0 27 3 30 30 30 20 0 30 -5 30 -15 0 -8 9 -15 20 -15 17 0 20 -7 20 -45 0 -38
-3 -45 -20 -45 -11 0 -20 -7 -20 -15 0 -10 -10 -15 -30 -15 -27 0 -30 3 -30
30 0 29 -1 30 -50 30 -49 0 -50 -1 -50 -30 0 -27 -3 -30 -30 -30 -20 0 -30 5
-30 15 0 8 -9 15 -20 15 -17 0 -20 7 -20 45 0 38 3 45 20 45 11 0 20 7 20 15
0 10 10 15 30 15 27 0 30 -3 30 -30z"/>
<path d="M160 205 c0 -30 5 -55 10 -55 6 0 10 25 10 55 0 30 -4 55 -10 55 -5
0 -10 -25 -10 -55z"/>
<path d="M320 205 c0 -30 5 -55 10 -55 6 0 10 25 10 55 0 30 -4 55 -10 55 -5
0 -10 -25 -10 -55z"/>
<path d="M120 205 c0 -14 5 -25 10 -25 6 0 10 11 10 25 0 14 -4 25 -10 25 -5
0 -10 -11 -10 -25z"/>
<path d="M360 205 c0 -14 5 -25 10 -25 6 0 10 11 10 25 0 14 -4 25 -10 25 -5
0 -10 -11 -10 -25z"/>
</g>
</svg>
