<svg xmlns="http://www.w3.org/2000/svg" width="32" height="32" viewBox="0 0 32 32">
  <g id="pay-2-play-active" transform="translate(-1.813 0.922)">
    <rect id="Rectangle_2180" data-name="Rectangle 2180" width="32" height="32" transform="translate(1.813 -0.922)" fill="rgba(62,207,77,0)"/>
    <g id="_001-game-controller" data-name="001-game-controller" transform="translate(1.653 439.004)">
      <path id="Path_13" data-name="Path 13" d="M8.76-434.8c-2.195.538-4.389,2.8-6.021,6.215C.494-423.876-.444-417.93.562-414.766a3.314,3.314,0,0,0,1.494,2.032,2.2,2.2,0,0,0,.907.175,6.345,6.345,0,0,0,4.546-1.995c.244-.219.85-.775,1.344-1.238s1.119-1.013,1.394-1.232a9.27,9.27,0,0,1,4.339-1.938,12.252,12.252,0,0,1,2.789-.025,11.456,11.456,0,0,1,3.939,1.6c.7.444,1.413.969,2.97,2.188,2.051,1.6,3.033,2.182,4.121,2.457a2.64,2.64,0,0,0,1.588.006c2.276-.7,2.826-5.346,1.326-11.167s-4.564-10.142-7.735-10.9c-.5-.119-.738-.125-7.428-.119C9.573-434.924,9.222-434.918,8.76-434.8Z" transform="translate(0 0)" fill="#fff"/>
      <text id="Pay" transform="translate(6.16 -421.926)" font-size="14" font-family="Calibri"><tspan x="0" y="0">Pay</tspan></text>
    </g>
  </g>
</svg>
