<svg xmlns="http://www.w3.org/2000/svg" width="32" height="32" viewBox="0 0 32 32">
  <g id="site-policies-active" transform="translate(-349 -1009)">
    <g id="Group_9848" data-name="Group 9848" transform="translate(354.333 1010.333)">
      <path id="Path_11523" data-name="Path 11523" d="M351,8.787v5.226h5.226Z" transform="translate(-334.385 -8.284)" fill="#fff"/>
      <path id="Path_11524" data-name="Path 11524" d="M177.639,192H174.1a4.534,4.534,0,0,1-3.1,2.212v4.125a7.133,7.133,0,0,0,4.87,6.8,7.133,7.133,0,0,0,4.87-6.8v-4.125A4.534,4.534,0,0,1,177.639,192Zm1.269,5.576-3.241,3.241a.859.859,0,0,1-1.215,0l-1.62-1.62a.859.859,0,0,1,1.215-1.215L175.06,199l2.633-2.633a.859.859,0,0,1,1.215,1.215Z" transform="translate(-164.698 -181)" fill="#fff"/>
      <path id="Path_11525" data-name="Path 11525" d="M76.755,7.448a.859.859,0,0,1-.859-.859V0H64.151A3.155,3.155,0,0,0,61,3.151V26.182a3.155,3.155,0,0,0,3.151,3.151H80.193a3.155,3.155,0,0,0,3.151-3.151V7.448Zm2,9.888a8.9,8.9,0,0,1-6.341,8.523.859.859,0,0,1-.5,0,8.9,8.9,0,0,1-6.342-8.523v-4.9a.859.859,0,0,1,.859-.859A2.833,2.833,0,0,0,68.991,10l.121-.242a.859.859,0,0,1,.769-.475h4.583a.859.859,0,0,1,.769.475l.121.242A2.833,2.833,0,0,0,77.9,11.573a.859.859,0,0,1,.859.859Z" transform="translate(-61)" fill="#fff"/>
    </g>
    <rect id="Rectangle_2179" data-name="Rectangle 2179" width="32" height="32" transform="translate(349 1009)" fill="none"/>
  </g>
</svg>
