<svg width="25" height="24" viewBox="0 0 25 24" fill="none" xmlns="http://www.w3.org/2000/svg">
<mask id="path-1-inside-1_14810_63843" fill="white">
<path fill-rule="evenodd" clip-rule="evenodd" d="M2.24622 0C1.14165 0 0.246216 0.895431 0.246216 2V17C0.246216 18.1046 1.14165 19 2.24622 19H4.27807V22.9987C4.27807 23.7831 5.13996 24.2621 5.80609 23.848L13.6032 19H22.2462C23.3508 19 24.2462 18.1046 24.2462 17V2C24.2462 0.895431 23.3508 0 22.2462 0H2.24622Z"/>
</mask>
<path d="M4.27807 19H5.77807V17.5H4.27807V19ZM5.80609 23.848L5.01406 22.5741L5.80609 23.848ZM13.6032 19V17.5H13.1749L12.8112 17.7262L13.6032 19ZM1.74622 2C1.74622 1.72386 1.97007 1.5 2.24622 1.5V-1.5C0.313219 -1.5 -1.25378 0.0670039 -1.25378 2H1.74622ZM1.74622 17V2H-1.25378V17H1.74622ZM2.24622 17.5C1.97007 17.5 1.74622 17.2761 1.74622 17H-1.25378C-1.25378 18.933 0.313219 20.5 2.24622 20.5V17.5ZM4.27807 17.5H2.24622V20.5H4.27807V17.5ZM5.77807 22.9987V19H2.77807V22.9987H5.77807ZM5.01406 22.5741C5.34712 22.367 5.77807 22.6065 5.77807 22.9987H2.77807C2.77807 24.9597 4.9328 26.1572 6.59812 25.1218L5.01406 22.5741ZM12.8112 17.7262L5.01406 22.5741L6.59812 25.1218L14.3953 20.2738L12.8112 17.7262ZM22.2462 17.5H13.6032V20.5H22.2462V17.5ZM22.7462 17C22.7462 17.2761 22.5224 17.5 22.2462 17.5V20.5C24.1792 20.5 25.7462 18.933 25.7462 17H22.7462ZM22.7462 2V17H25.7462V2H22.7462ZM22.2462 1.5C22.5224 1.5 22.7462 1.72386 22.7462 2H25.7462C25.7462 0.0670039 24.1792 -1.5 22.2462 -1.5V1.5ZM2.24622 1.5H22.2462V-1.5H2.24622V1.5Z" fill="black" mask="url(#path-1-inside-1_14810_63843)"/>
<path d="M10.8613 11.3206V10.6971C10.8613 10.1905 11.0561 9.69686 11.6927 9.20324L12.3551 8.69663C12.8488 8.31992 13.1345 7.91723 13.1345 7.28072C13.1345 6.63122 12.7059 6.21554 11.9914 6.21554C11.212 6.21554 10.7184 6.6572 10.7184 7.44959C10.7184 7.67042 10.7314 7.87826 10.7963 8.09909L8.79589 7.93022C8.73094 7.63145 8.70496 7.39763 8.70496 7.1768C8.70496 5.66996 9.93901 4.65674 12.0044 4.65674C14.0568 4.65674 15.2649 5.54006 15.2649 7.05989C15.2649 8.00816 14.7713 8.80055 14.0438 9.3851L13.4463 9.87872C13.0306 10.2165 12.8877 10.4763 12.8877 10.9439V11.3206H10.8613ZM10.7704 14.1005V12.113H13.0046V14.1005H10.7704Z" fill="black"/>
</svg>
