<svg xmlns="http://www.w3.org/2000/svg" width="32" height="32" viewBox="0 0 32 32"><defs><style>.a{fill:none;}</style></defs><g transform="translate(-349 -1009)"><g transform="translate(354.333 1010.333)"><path d="M351,8.787v5.226h5.226Z" transform="translate(-334.385 -8.284)"/><path d="M177.639,192H174.1a4.534,4.534,0,0,1-3.1,2.212v4.125a7.133,7.133,0,0,0,4.87,6.8,7.133,7.133,0,0,0,4.87-6.8v-4.125A4.534,4.534,0,0,1,177.639,192Zm1.269,5.576-3.241,3.241a.859.859,0,0,1-1.215,0l-1.62-1.62a.859.859,0,0,1,1.215-1.215l1.013,1.013,2.633-2.633a.859.859,0,1,1,1.215,1.215Z" transform="translate(-164.698 -181)"/><path d="M76.755,7.448a.859.859,0,0,1-.859-.859V0H64.151A3.155,3.155,0,0,0,61,3.151V26.182a3.155,3.155,0,0,0,3.151,3.151H80.193a3.155,3.155,0,0,0,3.151-3.151V7.448Zm2.005,9.888a8.9,8.9,0,0,1-6.342,8.523.859.859,0,0,1-.494,0,8.9,8.9,0,0,1-6.342-8.523v-4.9a.859.859,0,0,1,.859-.859A2.833,2.833,0,0,0,68.991,10l.121-.242a.859.859,0,0,1,.769-.475h4.583a.859.859,0,0,1,.769.475l.121.242A2.833,2.833,0,0,0,77.9,11.573a.859.859,0,0,1,.859.859Z" transform="translate(-61)"/></g><rect class="a" width="32" height="32" transform="translate(349 1009)"/></g></svg>