<svg version="1.2" xmlns="http://www.w3.org/2000/svg" viewBox="0 0 32 32" width="32" height="32">
	<title>001-tag-svg</title>
	<style>
		.s0 { fill: #000000 } 
	</style>
	<filter id="f0">
		<feFlood flood-color="#ffffff" flood-opacity="1" />
		<feBlend mode="normal" in2="SourceGraphic"/>
		<feComposite in2="SourceAlpha" operator="in" />
	</filter>
	<g id="price" filter="url(#f0)">
		<path id="Layer" fill-rule="evenodd" class="s0" d="m20.3 1.7c4.1 0 5.2 0 5.4 0.1 0.4 0.1 0.9 0.5 1.1 0.9 0.5 0.6 0.5 0.2 0.5 6.3v5.4l-0.2 0.4c-0.2 0.4-0.6 0.8-6.8 7-3.6 3.6-6.7 6.7-6.8 6.8-0.5 0.3-1 0.4-1.5 0.4-0.9-0.1-0.6 0.2-6.3-5.6-3.6-3.5-5.3-5.3-5.4-5.5-0.4-0.6-0.4-1.4 0-2.1 0.1-0.4 0.6-0.8 6.8-7 7.2-7.2 6.8-6.9 7.6-7.1 0.2 0 2.7 0 5.5 0zm-1 5.8c-0.1 0.3-0.1 1 0 1.3 0.8 1.8 3.4 1.2 3.4-0.6 0-0.4 0-0.6-0.2-0.8-0.2-0.4-0.5-0.7-0.8-0.8-1-0.4-1.9 0-2.4 0.9z"/>
		<path id="Layer" class="s0" d="m29.6 9.7c0 5.6 0 5.7-0.1 6-0.1 0.4-0.4 0.7-6.8 7.1l-6.6 6.6 0.2 0.2c0.7 0.7 1.7 0.9 2.6 0.5 0.3-0.1 1.4-1.3 6.5-6.3 4.3-4.4 6.2-6.3 6.3-6.5 0.3-0.5 0.3-0.6 0.3-6.2v-5.3l-0.2-0.4c-0.1-0.2-0.3-0.5-0.5-0.6-0.3-0.4-0.9-0.7-1.4-0.7l-0.3-0.1z"/>
	</g>
</svg>