<svg width="26" height="27" viewBox="0 0 26 27" fill="none" xmlns="http://www.w3.org/2000/svg">
<path fill-rule="evenodd" clip-rule="evenodd" d="M4.24148 2.73257C4.4783 2.42809 4.84243 2.25 5.22817 2.25H20.2718C20.6576 2.25 21.0217 2.42809 21.2585 2.73257L23.2165 5.25H2.28348L4.24148 2.73257ZM1.5 6.75V23.5C1.5 24.1904 2.05964 24.75 2.75 24.75H22.75C23.4404 24.75 24 24.1904 24 23.5V18C24 17.8619 23.8881 17.75 23.75 17.75H18.0607L20.75 20.4393C21.0429 20.7322 21.0429 21.2071 20.75 21.5C20.4571 21.7929 19.9822 21.7929 19.6893 21.5L15.1893 17L19.6893 12.5C19.9822 12.2071 20.4571 12.2071 20.75 12.5C21.0429 12.7929 21.0429 13.2678 20.75 13.5607L18.0607 16.25H23.75C24.7165 16.25 25.5 17.0335 25.5 18V23.5C25.5 25.0188 24.2688 26.25 22.75 26.25H2.75C1.23122 26.25 0 25.0188 0 23.5V6.68622C0 6.07468 0.203836 5.48059 0.579281 4.99788L3.05745 1.81166C3.57845 1.1418 4.37954 0.75 5.22817 0.75H20.2718C21.1205 0.75 21.9215 1.1418 22.4426 1.81166L24.9207 4.99788C25.2962 5.48059 25.5 6.07468 25.5 6.68622V14.5C25.5 14.9142 25.1642 15.25 24.75 15.25C24.3358 15.25 24 14.9142 24 14.5V6.75H1.5Z" fill="black"/>
</svg>
