<svg xmlns="http://www.w3.org/2000/svg" width="32" height="32" viewBox="0 0 32 32">
  <g id="returns-refunds-active" transform="translate(-1939 -894)">
    <rect id="Rectangle_2178" data-name="Rectangle 2178" width="32" height="32" transform="translate(1939 894)" fill="none"/>
    <g id="Group_9847" data-name="Group 9847" transform="translate(1940.333 895.333)">
      <path id="Path_11519" data-name="Path 11519" d="M18.353,15.508l2.177-1.9a.917.917,0,1,0-1.206-1.381l-4.01,3.5a.917.917,0,0,0,0,1.381l4.01,3.5a.916.916,0,0,0,1.2-1.381L18.38,17.352a6.023,6.023,0,0,1,5.785,6.065V25.75a.918.918,0,0,0,1.835,0V23.417a7.862,7.862,0,0,0-7.647-7.909Z" transform="translate(3.333 2.667)" fill="#fff"/>
      <path id="Path_11520" data-name="Path 11520" d="M23.528,3H.917A.917.917,0,0,0,0,3.917V8.194a.917.917,0,0,0,.917.917H23.528a.917.917,0,0,0,.917-.917V3.917A.917.917,0,0,0,23.528,3Z" transform="translate(0 0.667)" fill="#fff"/>
      <path id="Path_11521" data-name="Path 11521" d="M1,9.5V20.194a2.149,2.149,0,0,0,2.139,2.139H20.861a.338.338,0,0,0,.11-.012l-3.752-3.276a2.751,2.751,0,0,1,0-4.143l4.009-3.5A2.788,2.788,0,0,1,23,10.722V9.5Zm13.75,3.667H9.25a.917.917,0,0,1,0-1.833h5.5a.917.917,0,0,1,0,1.833Z" transform="translate(0.222 2.111)" fill="#fff"/>
      <path id="Path_11522" data-name="Path 11522" d="M24.2,3.964,20.843.3a.917.917,0,0,0-.676-.3H4.278A.917.917,0,0,0,3.6.3L.241,3.964A.917.917,0,0,0,.917,5.5H23.528A.917.917,0,0,0,24.2,3.964Z" fill="#fff"/>
    </g>
  </g>
</svg>
