<svg width="25" height="25" viewBox="0 0 25 25" fill="none" xmlns="http://www.w3.org/2000/svg">
<mask id="path-1-inside-1_30310_96811" fill="white">
<path fill-rule="evenodd" clip-rule="evenodd" d="M2 -0.000244141C0.895431 -0.000244141 0 0.895189 0 1.99976V17.7648C0 18.8694 0.89543 19.7648 2 19.7648H4.19985V23.9985C4.19985 24.7826 5.06121 25.2616 5.72736 24.848L13.9139 19.7648H23C24.1046 19.7648 25 18.8694 25 17.7648V1.99976C25 0.895186 24.1046 -0.000244141 23 -0.000244141H2Z"/>
</mask>
<path d="M4.19985 19.7648H5.69985V18.2648H4.19985V19.7648ZM5.72736 24.848L4.9361 23.5737L4.9361 23.5737L5.72736 24.848ZM13.9139 19.7648V18.2648H13.4861L13.1226 18.4905L13.9139 19.7648ZM1.5 1.99976C1.5 1.72361 1.72386 1.49976 2 1.49976V-1.50024C0.0670005 -1.50024 -1.5 0.0667651 -1.5 1.99976H1.5ZM1.5 17.7648V1.99976H-1.5V17.7648H1.5ZM2 18.2648C1.72386 18.2648 1.5 18.0409 1.5 17.7648H-1.5C-1.5 19.6978 0.067003 21.2648 2 21.2648V18.2648ZM4.19985 18.2648H2V21.2648H4.19985V18.2648ZM5.69985 23.9985V19.7648H2.69985V23.9985H5.69985ZM4.9361 23.5737C5.26918 23.3669 5.69985 23.6064 5.69985 23.9985H2.69985C2.69985 25.9588 4.85325 27.1564 6.51862 26.1223L4.9361 23.5737ZM13.1226 18.4905L4.9361 23.5737L6.51862 26.1223L14.7051 21.0391L13.1226 18.4905ZM23 18.2648H13.9139V21.2648H23V18.2648ZM23.5 17.7648C23.5 18.0409 23.2761 18.2648 23 18.2648V21.2648C24.933 21.2648 26.5 19.6978 26.5 17.7648H23.5ZM23.5 1.99976V17.7648H26.5V1.99976H23.5ZM23 1.49976C23.2761 1.49976 23.5 1.72361 23.5 1.99976H26.5C26.5 0.0667598 24.933 -1.50024 23 -1.50024V1.49976ZM2 1.49976H23V-1.50024H2V1.49976Z" fill="black" mask="url(#path-1-inside-1_30310_96811)"/>
<path d="M11.0577 11.7762V11.1276C11.0577 10.6006 11.2607 10.0871 11.9237 9.57356L12.6138 9.04655C13.128 8.65467 13.4257 8.23577 13.4257 7.57363C13.4257 6.89798 12.9791 6.46556 12.2349 6.46556C11.4231 6.46556 10.9089 6.925 10.9089 7.7493C10.9089 7.97902 10.9224 8.19523 10.9901 8.42495L8.90624 8.24928C8.83859 7.93848 8.81152 7.69525 8.81152 7.46553C8.81152 5.89801 10.097 4.84399 12.2485 4.84399C14.3864 4.84399 15.6448 5.76288 15.6448 7.34391C15.6448 8.33036 15.1306 9.15466 14.3729 9.76274L13.7504 10.2762C13.3174 10.6276 13.1686 10.8978 13.1686 11.3843V11.7762H11.0577ZM10.963 14.668V12.6005H13.2904V14.668H10.963Z" fill="black"/>
</svg>
